%TF.GenerationSoftware,KiCad,Pcbnew,7.0.10*%
%TF.CreationDate,2024-02-07T09:44:58+01:00*%
%TF.ProjectId,NanoFridgeThermistat-board,4e616e6f-4672-4696-9467-65546865726d,rev?*%
%TF.SameCoordinates,Original*%
%TF.FileFunction,Legend,Bot*%
%TF.FilePolarity,Positive*%
%FSLAX46Y46*%
G04 Gerber Fmt 4.6, Leading zero omitted, Abs format (unit mm)*
G04 Created by KiCad (PCBNEW 7.0.10) date 2024-02-07 09:44:58*
%MOMM*%
%LPD*%
G01*
G04 APERTURE LIST*
%ADD10C,0.150000*%
%ADD11C,0.250000*%
G04 APERTURE END LIST*
D10*
X144755713Y-98179819D02*
X144517618Y-99179819D01*
X144517618Y-99179819D02*
X144327142Y-98465533D01*
X144327142Y-98465533D02*
X144136666Y-99179819D01*
X144136666Y-99179819D02*
X143898571Y-98179819D01*
X143089047Y-99179819D02*
X143089047Y-98656009D01*
X143089047Y-98656009D02*
X143136666Y-98560771D01*
X143136666Y-98560771D02*
X143231904Y-98513152D01*
X143231904Y-98513152D02*
X143422380Y-98513152D01*
X143422380Y-98513152D02*
X143517618Y-98560771D01*
X143089047Y-99132200D02*
X143184285Y-99179819D01*
X143184285Y-99179819D02*
X143422380Y-99179819D01*
X143422380Y-99179819D02*
X143517618Y-99132200D01*
X143517618Y-99132200D02*
X143565237Y-99036961D01*
X143565237Y-99036961D02*
X143565237Y-98941723D01*
X143565237Y-98941723D02*
X143517618Y-98846485D01*
X143517618Y-98846485D02*
X143422380Y-98798866D01*
X143422380Y-98798866D02*
X143184285Y-98798866D01*
X143184285Y-98798866D02*
X143089047Y-98751247D01*
X142612856Y-99179819D02*
X142612856Y-98513152D01*
X142612856Y-98703628D02*
X142565237Y-98608390D01*
X142565237Y-98608390D02*
X142517618Y-98560771D01*
X142517618Y-98560771D02*
X142422380Y-98513152D01*
X142422380Y-98513152D02*
X142327142Y-98513152D01*
X141993808Y-98513152D02*
X141993808Y-99179819D01*
X141993808Y-98608390D02*
X141946189Y-98560771D01*
X141946189Y-98560771D02*
X141850951Y-98513152D01*
X141850951Y-98513152D02*
X141708094Y-98513152D01*
X141708094Y-98513152D02*
X141612856Y-98560771D01*
X141612856Y-98560771D02*
X141565237Y-98656009D01*
X141565237Y-98656009D02*
X141565237Y-99179819D01*
X141089046Y-99179819D02*
X141089046Y-98513152D01*
X141089046Y-98179819D02*
X141136665Y-98227438D01*
X141136665Y-98227438D02*
X141089046Y-98275057D01*
X141089046Y-98275057D02*
X141041427Y-98227438D01*
X141041427Y-98227438D02*
X141089046Y-98179819D01*
X141089046Y-98179819D02*
X141089046Y-98275057D01*
X140612856Y-98513152D02*
X140612856Y-99179819D01*
X140612856Y-98608390D02*
X140565237Y-98560771D01*
X140565237Y-98560771D02*
X140469999Y-98513152D01*
X140469999Y-98513152D02*
X140327142Y-98513152D01*
X140327142Y-98513152D02*
X140231904Y-98560771D01*
X140231904Y-98560771D02*
X140184285Y-98656009D01*
X140184285Y-98656009D02*
X140184285Y-99179819D01*
X139279523Y-98513152D02*
X139279523Y-99322676D01*
X139279523Y-99322676D02*
X139327142Y-99417914D01*
X139327142Y-99417914D02*
X139374761Y-99465533D01*
X139374761Y-99465533D02*
X139469999Y-99513152D01*
X139469999Y-99513152D02*
X139612856Y-99513152D01*
X139612856Y-99513152D02*
X139708094Y-99465533D01*
X139279523Y-99132200D02*
X139374761Y-99179819D01*
X139374761Y-99179819D02*
X139565237Y-99179819D01*
X139565237Y-99179819D02*
X139660475Y-99132200D01*
X139660475Y-99132200D02*
X139708094Y-99084580D01*
X139708094Y-99084580D02*
X139755713Y-98989342D01*
X139755713Y-98989342D02*
X139755713Y-98703628D01*
X139755713Y-98703628D02*
X139708094Y-98608390D01*
X139708094Y-98608390D02*
X139660475Y-98560771D01*
X139660475Y-98560771D02*
X139565237Y-98513152D01*
X139565237Y-98513152D02*
X139374761Y-98513152D01*
X139374761Y-98513152D02*
X139279523Y-98560771D01*
X138041427Y-99084580D02*
X137993808Y-99132200D01*
X137993808Y-99132200D02*
X138041427Y-99179819D01*
X138041427Y-99179819D02*
X138089046Y-99132200D01*
X138089046Y-99132200D02*
X138041427Y-99084580D01*
X138041427Y-99084580D02*
X138041427Y-99179819D01*
X138041427Y-98798866D02*
X138089046Y-98227438D01*
X138089046Y-98227438D02*
X138041427Y-98179819D01*
X138041427Y-98179819D02*
X137993808Y-98227438D01*
X137993808Y-98227438D02*
X138041427Y-98798866D01*
X138041427Y-98798866D02*
X138041427Y-98179819D01*
X148136667Y-100789819D02*
X148136667Y-99789819D01*
X148136667Y-100266009D02*
X147565239Y-100266009D01*
X147565239Y-100789819D02*
X147565239Y-99789819D01*
X147089048Y-100789819D02*
X147089048Y-100123152D01*
X147089048Y-99789819D02*
X147136667Y-99837438D01*
X147136667Y-99837438D02*
X147089048Y-99885057D01*
X147089048Y-99885057D02*
X147041429Y-99837438D01*
X147041429Y-99837438D02*
X147089048Y-99789819D01*
X147089048Y-99789819D02*
X147089048Y-99885057D01*
X146184287Y-100123152D02*
X146184287Y-100932676D01*
X146184287Y-100932676D02*
X146231906Y-101027914D01*
X146231906Y-101027914D02*
X146279525Y-101075533D01*
X146279525Y-101075533D02*
X146374763Y-101123152D01*
X146374763Y-101123152D02*
X146517620Y-101123152D01*
X146517620Y-101123152D02*
X146612858Y-101075533D01*
X146184287Y-100742200D02*
X146279525Y-100789819D01*
X146279525Y-100789819D02*
X146470001Y-100789819D01*
X146470001Y-100789819D02*
X146565239Y-100742200D01*
X146565239Y-100742200D02*
X146612858Y-100694580D01*
X146612858Y-100694580D02*
X146660477Y-100599342D01*
X146660477Y-100599342D02*
X146660477Y-100313628D01*
X146660477Y-100313628D02*
X146612858Y-100218390D01*
X146612858Y-100218390D02*
X146565239Y-100170771D01*
X146565239Y-100170771D02*
X146470001Y-100123152D01*
X146470001Y-100123152D02*
X146279525Y-100123152D01*
X146279525Y-100123152D02*
X146184287Y-100170771D01*
X145708096Y-100789819D02*
X145708096Y-99789819D01*
X145279525Y-100789819D02*
X145279525Y-100266009D01*
X145279525Y-100266009D02*
X145327144Y-100170771D01*
X145327144Y-100170771D02*
X145422382Y-100123152D01*
X145422382Y-100123152D02*
X145565239Y-100123152D01*
X145565239Y-100123152D02*
X145660477Y-100170771D01*
X145660477Y-100170771D02*
X145708096Y-100218390D01*
X144136667Y-100123152D02*
X143898572Y-100789819D01*
X143898572Y-100789819D02*
X143660477Y-100123152D01*
X143136667Y-100789819D02*
X143231905Y-100742200D01*
X143231905Y-100742200D02*
X143279524Y-100694580D01*
X143279524Y-100694580D02*
X143327143Y-100599342D01*
X143327143Y-100599342D02*
X143327143Y-100313628D01*
X143327143Y-100313628D02*
X143279524Y-100218390D01*
X143279524Y-100218390D02*
X143231905Y-100170771D01*
X143231905Y-100170771D02*
X143136667Y-100123152D01*
X143136667Y-100123152D02*
X142993810Y-100123152D01*
X142993810Y-100123152D02*
X142898572Y-100170771D01*
X142898572Y-100170771D02*
X142850953Y-100218390D01*
X142850953Y-100218390D02*
X142803334Y-100313628D01*
X142803334Y-100313628D02*
X142803334Y-100599342D01*
X142803334Y-100599342D02*
X142850953Y-100694580D01*
X142850953Y-100694580D02*
X142898572Y-100742200D01*
X142898572Y-100742200D02*
X142993810Y-100789819D01*
X142993810Y-100789819D02*
X143136667Y-100789819D01*
X142231905Y-100789819D02*
X142327143Y-100742200D01*
X142327143Y-100742200D02*
X142374762Y-100646961D01*
X142374762Y-100646961D02*
X142374762Y-99789819D01*
X141993809Y-100123152D02*
X141612857Y-100123152D01*
X141850952Y-99789819D02*
X141850952Y-100646961D01*
X141850952Y-100646961D02*
X141803333Y-100742200D01*
X141803333Y-100742200D02*
X141708095Y-100789819D01*
X141708095Y-100789819D02*
X141612857Y-100789819D01*
X140850952Y-100789819D02*
X140850952Y-100266009D01*
X140850952Y-100266009D02*
X140898571Y-100170771D01*
X140898571Y-100170771D02*
X140993809Y-100123152D01*
X140993809Y-100123152D02*
X141184285Y-100123152D01*
X141184285Y-100123152D02*
X141279523Y-100170771D01*
X140850952Y-100742200D02*
X140946190Y-100789819D01*
X140946190Y-100789819D02*
X141184285Y-100789819D01*
X141184285Y-100789819D02*
X141279523Y-100742200D01*
X141279523Y-100742200D02*
X141327142Y-100646961D01*
X141327142Y-100646961D02*
X141327142Y-100551723D01*
X141327142Y-100551723D02*
X141279523Y-100456485D01*
X141279523Y-100456485D02*
X141184285Y-100408866D01*
X141184285Y-100408866D02*
X140946190Y-100408866D01*
X140946190Y-100408866D02*
X140850952Y-100361247D01*
X139946190Y-100123152D02*
X139946190Y-100932676D01*
X139946190Y-100932676D02*
X139993809Y-101027914D01*
X139993809Y-101027914D02*
X140041428Y-101075533D01*
X140041428Y-101075533D02*
X140136666Y-101123152D01*
X140136666Y-101123152D02*
X140279523Y-101123152D01*
X140279523Y-101123152D02*
X140374761Y-101075533D01*
X139946190Y-100742200D02*
X140041428Y-100789819D01*
X140041428Y-100789819D02*
X140231904Y-100789819D01*
X140231904Y-100789819D02*
X140327142Y-100742200D01*
X140327142Y-100742200D02*
X140374761Y-100694580D01*
X140374761Y-100694580D02*
X140422380Y-100599342D01*
X140422380Y-100599342D02*
X140422380Y-100313628D01*
X140422380Y-100313628D02*
X140374761Y-100218390D01*
X140374761Y-100218390D02*
X140327142Y-100170771D01*
X140327142Y-100170771D02*
X140231904Y-100123152D01*
X140231904Y-100123152D02*
X140041428Y-100123152D01*
X140041428Y-100123152D02*
X139946190Y-100170771D01*
X139089047Y-100742200D02*
X139184285Y-100789819D01*
X139184285Y-100789819D02*
X139374761Y-100789819D01*
X139374761Y-100789819D02*
X139469999Y-100742200D01*
X139469999Y-100742200D02*
X139517618Y-100646961D01*
X139517618Y-100646961D02*
X139517618Y-100266009D01*
X139517618Y-100266009D02*
X139469999Y-100170771D01*
X139469999Y-100170771D02*
X139374761Y-100123152D01*
X139374761Y-100123152D02*
X139184285Y-100123152D01*
X139184285Y-100123152D02*
X139089047Y-100170771D01*
X139089047Y-100170771D02*
X139041428Y-100266009D01*
X139041428Y-100266009D02*
X139041428Y-100361247D01*
X139041428Y-100361247D02*
X139517618Y-100456485D01*
X137422380Y-100789819D02*
X137422380Y-100266009D01*
X137422380Y-100266009D02*
X137469999Y-100170771D01*
X137469999Y-100170771D02*
X137565237Y-100123152D01*
X137565237Y-100123152D02*
X137755713Y-100123152D01*
X137755713Y-100123152D02*
X137850951Y-100170771D01*
X137422380Y-100742200D02*
X137517618Y-100789819D01*
X137517618Y-100789819D02*
X137755713Y-100789819D01*
X137755713Y-100789819D02*
X137850951Y-100742200D01*
X137850951Y-100742200D02*
X137898570Y-100646961D01*
X137898570Y-100646961D02*
X137898570Y-100551723D01*
X137898570Y-100551723D02*
X137850951Y-100456485D01*
X137850951Y-100456485D02*
X137755713Y-100408866D01*
X137755713Y-100408866D02*
X137517618Y-100408866D01*
X137517618Y-100408866D02*
X137422380Y-100361247D01*
X136946189Y-100789819D02*
X136946189Y-100123152D01*
X136946189Y-100313628D02*
X136898570Y-100218390D01*
X136898570Y-100218390D02*
X136850951Y-100170771D01*
X136850951Y-100170771D02*
X136755713Y-100123152D01*
X136755713Y-100123152D02*
X136660475Y-100123152D01*
X135946189Y-100742200D02*
X136041427Y-100789819D01*
X136041427Y-100789819D02*
X136231903Y-100789819D01*
X136231903Y-100789819D02*
X136327141Y-100742200D01*
X136327141Y-100742200D02*
X136374760Y-100646961D01*
X136374760Y-100646961D02*
X136374760Y-100266009D01*
X136374760Y-100266009D02*
X136327141Y-100170771D01*
X136327141Y-100170771D02*
X136231903Y-100123152D01*
X136231903Y-100123152D02*
X136041427Y-100123152D01*
X136041427Y-100123152D02*
X135946189Y-100170771D01*
X135946189Y-100170771D02*
X135898570Y-100266009D01*
X135898570Y-100266009D02*
X135898570Y-100361247D01*
X135898570Y-100361247D02*
X136374760Y-100456485D01*
X135041427Y-100789819D02*
X135041427Y-100266009D01*
X135041427Y-100266009D02*
X135089046Y-100170771D01*
X135089046Y-100170771D02*
X135184284Y-100123152D01*
X135184284Y-100123152D02*
X135374760Y-100123152D01*
X135374760Y-100123152D02*
X135469998Y-100170771D01*
X135041427Y-100742200D02*
X135136665Y-100789819D01*
X135136665Y-100789819D02*
X135374760Y-100789819D01*
X135374760Y-100789819D02*
X135469998Y-100742200D01*
X135469998Y-100742200D02*
X135517617Y-100646961D01*
X135517617Y-100646961D02*
X135517617Y-100551723D01*
X135517617Y-100551723D02*
X135469998Y-100456485D01*
X135469998Y-100456485D02*
X135374760Y-100408866D01*
X135374760Y-100408866D02*
X135136665Y-100408866D01*
X135136665Y-100408866D02*
X135041427Y-100361247D01*
X134517617Y-100742200D02*
X134517617Y-100789819D01*
X134517617Y-100789819D02*
X134565236Y-100885057D01*
X134565236Y-100885057D02*
X134612855Y-100932676D01*
X147850953Y-102399819D02*
X147850953Y-101399819D01*
X147850953Y-102352200D02*
X147946191Y-102399819D01*
X147946191Y-102399819D02*
X148136667Y-102399819D01*
X148136667Y-102399819D02*
X148231905Y-102352200D01*
X148231905Y-102352200D02*
X148279524Y-102304580D01*
X148279524Y-102304580D02*
X148327143Y-102209342D01*
X148327143Y-102209342D02*
X148327143Y-101923628D01*
X148327143Y-101923628D02*
X148279524Y-101828390D01*
X148279524Y-101828390D02*
X148231905Y-101780771D01*
X148231905Y-101780771D02*
X148136667Y-101733152D01*
X148136667Y-101733152D02*
X147946191Y-101733152D01*
X147946191Y-101733152D02*
X147850953Y-101780771D01*
X147231905Y-102399819D02*
X147327143Y-102352200D01*
X147327143Y-102352200D02*
X147374762Y-102304580D01*
X147374762Y-102304580D02*
X147422381Y-102209342D01*
X147422381Y-102209342D02*
X147422381Y-101923628D01*
X147422381Y-101923628D02*
X147374762Y-101828390D01*
X147374762Y-101828390D02*
X147327143Y-101780771D01*
X147327143Y-101780771D02*
X147231905Y-101733152D01*
X147231905Y-101733152D02*
X147089048Y-101733152D01*
X147089048Y-101733152D02*
X146993810Y-101780771D01*
X146993810Y-101780771D02*
X146946191Y-101828390D01*
X146946191Y-101828390D02*
X146898572Y-101923628D01*
X146898572Y-101923628D02*
X146898572Y-102209342D01*
X146898572Y-102209342D02*
X146946191Y-102304580D01*
X146946191Y-102304580D02*
X146993810Y-102352200D01*
X146993810Y-102352200D02*
X147089048Y-102399819D01*
X147089048Y-102399819D02*
X147231905Y-102399819D01*
X145708095Y-101733152D02*
X145708095Y-102399819D01*
X145708095Y-101828390D02*
X145660476Y-101780771D01*
X145660476Y-101780771D02*
X145565238Y-101733152D01*
X145565238Y-101733152D02*
X145422381Y-101733152D01*
X145422381Y-101733152D02*
X145327143Y-101780771D01*
X145327143Y-101780771D02*
X145279524Y-101876009D01*
X145279524Y-101876009D02*
X145279524Y-102399819D01*
X144660476Y-102399819D02*
X144755714Y-102352200D01*
X144755714Y-102352200D02*
X144803333Y-102304580D01*
X144803333Y-102304580D02*
X144850952Y-102209342D01*
X144850952Y-102209342D02*
X144850952Y-101923628D01*
X144850952Y-101923628D02*
X144803333Y-101828390D01*
X144803333Y-101828390D02*
X144755714Y-101780771D01*
X144755714Y-101780771D02*
X144660476Y-101733152D01*
X144660476Y-101733152D02*
X144517619Y-101733152D01*
X144517619Y-101733152D02*
X144422381Y-101780771D01*
X144422381Y-101780771D02*
X144374762Y-101828390D01*
X144374762Y-101828390D02*
X144327143Y-101923628D01*
X144327143Y-101923628D02*
X144327143Y-102209342D01*
X144327143Y-102209342D02*
X144374762Y-102304580D01*
X144374762Y-102304580D02*
X144422381Y-102352200D01*
X144422381Y-102352200D02*
X144517619Y-102399819D01*
X144517619Y-102399819D02*
X144660476Y-102399819D01*
X144041428Y-101733152D02*
X143660476Y-101733152D01*
X143898571Y-101399819D02*
X143898571Y-102256961D01*
X143898571Y-102256961D02*
X143850952Y-102352200D01*
X143850952Y-102352200D02*
X143755714Y-102399819D01*
X143755714Y-102399819D02*
X143660476Y-102399819D01*
X142708094Y-101733152D02*
X142327142Y-101733152D01*
X142565237Y-101399819D02*
X142565237Y-102256961D01*
X142565237Y-102256961D02*
X142517618Y-102352200D01*
X142517618Y-102352200D02*
X142422380Y-102399819D01*
X142422380Y-102399819D02*
X142327142Y-102399819D01*
X141850951Y-102399819D02*
X141946189Y-102352200D01*
X141946189Y-102352200D02*
X141993808Y-102304580D01*
X141993808Y-102304580D02*
X142041427Y-102209342D01*
X142041427Y-102209342D02*
X142041427Y-101923628D01*
X142041427Y-101923628D02*
X141993808Y-101828390D01*
X141993808Y-101828390D02*
X141946189Y-101780771D01*
X141946189Y-101780771D02*
X141850951Y-101733152D01*
X141850951Y-101733152D02*
X141708094Y-101733152D01*
X141708094Y-101733152D02*
X141612856Y-101780771D01*
X141612856Y-101780771D02*
X141565237Y-101828390D01*
X141565237Y-101828390D02*
X141517618Y-101923628D01*
X141517618Y-101923628D02*
X141517618Y-102209342D01*
X141517618Y-102209342D02*
X141565237Y-102304580D01*
X141565237Y-102304580D02*
X141612856Y-102352200D01*
X141612856Y-102352200D02*
X141708094Y-102399819D01*
X141708094Y-102399819D02*
X141850951Y-102399819D01*
X140660475Y-101733152D02*
X140660475Y-102399819D01*
X141089046Y-101733152D02*
X141089046Y-102256961D01*
X141089046Y-102256961D02*
X141041427Y-102352200D01*
X141041427Y-102352200D02*
X140946189Y-102399819D01*
X140946189Y-102399819D02*
X140803332Y-102399819D01*
X140803332Y-102399819D02*
X140708094Y-102352200D01*
X140708094Y-102352200D02*
X140660475Y-102304580D01*
X139755713Y-102352200D02*
X139850951Y-102399819D01*
X139850951Y-102399819D02*
X140041427Y-102399819D01*
X140041427Y-102399819D02*
X140136665Y-102352200D01*
X140136665Y-102352200D02*
X140184284Y-102304580D01*
X140184284Y-102304580D02*
X140231903Y-102209342D01*
X140231903Y-102209342D02*
X140231903Y-101923628D01*
X140231903Y-101923628D02*
X140184284Y-101828390D01*
X140184284Y-101828390D02*
X140136665Y-101780771D01*
X140136665Y-101780771D02*
X140041427Y-101733152D01*
X140041427Y-101733152D02*
X139850951Y-101733152D01*
X139850951Y-101733152D02*
X139755713Y-101780771D01*
X139327141Y-102399819D02*
X139327141Y-101399819D01*
X138898570Y-102399819D02*
X138898570Y-101876009D01*
X138898570Y-101876009D02*
X138946189Y-101780771D01*
X138946189Y-101780771D02*
X139041427Y-101733152D01*
X139041427Y-101733152D02*
X139184284Y-101733152D01*
X139184284Y-101733152D02*
X139279522Y-101780771D01*
X139279522Y-101780771D02*
X139327141Y-101828390D01*
X137755712Y-101733152D02*
X137565236Y-102399819D01*
X137565236Y-102399819D02*
X137374760Y-101923628D01*
X137374760Y-101923628D02*
X137184284Y-102399819D01*
X137184284Y-102399819D02*
X136993808Y-101733152D01*
X136612855Y-102399819D02*
X136612855Y-101399819D01*
X136184284Y-102399819D02*
X136184284Y-101876009D01*
X136184284Y-101876009D02*
X136231903Y-101780771D01*
X136231903Y-101780771D02*
X136327141Y-101733152D01*
X136327141Y-101733152D02*
X136469998Y-101733152D01*
X136469998Y-101733152D02*
X136565236Y-101780771D01*
X136565236Y-101780771D02*
X136612855Y-101828390D01*
X135327141Y-102352200D02*
X135422379Y-102399819D01*
X135422379Y-102399819D02*
X135612855Y-102399819D01*
X135612855Y-102399819D02*
X135708093Y-102352200D01*
X135708093Y-102352200D02*
X135755712Y-102256961D01*
X135755712Y-102256961D02*
X135755712Y-101876009D01*
X135755712Y-101876009D02*
X135708093Y-101780771D01*
X135708093Y-101780771D02*
X135612855Y-101733152D01*
X135612855Y-101733152D02*
X135422379Y-101733152D01*
X135422379Y-101733152D02*
X135327141Y-101780771D01*
X135327141Y-101780771D02*
X135279522Y-101876009D01*
X135279522Y-101876009D02*
X135279522Y-101971247D01*
X135279522Y-101971247D02*
X135755712Y-102066485D01*
X134850950Y-101733152D02*
X134850950Y-102399819D01*
X134850950Y-101828390D02*
X134803331Y-101780771D01*
X134803331Y-101780771D02*
X134708093Y-101733152D01*
X134708093Y-101733152D02*
X134565236Y-101733152D01*
X134565236Y-101733152D02*
X134469998Y-101780771D01*
X134469998Y-101780771D02*
X134422379Y-101876009D01*
X134422379Y-101876009D02*
X134422379Y-102399819D01*
X145827142Y-103343152D02*
X145827142Y-104343152D01*
X145827142Y-103390771D02*
X145731904Y-103343152D01*
X145731904Y-103343152D02*
X145541428Y-103343152D01*
X145541428Y-103343152D02*
X145446190Y-103390771D01*
X145446190Y-103390771D02*
X145398571Y-103438390D01*
X145398571Y-103438390D02*
X145350952Y-103533628D01*
X145350952Y-103533628D02*
X145350952Y-103819342D01*
X145350952Y-103819342D02*
X145398571Y-103914580D01*
X145398571Y-103914580D02*
X145446190Y-103962200D01*
X145446190Y-103962200D02*
X145541428Y-104009819D01*
X145541428Y-104009819D02*
X145731904Y-104009819D01*
X145731904Y-104009819D02*
X145827142Y-103962200D01*
X144779523Y-104009819D02*
X144874761Y-103962200D01*
X144874761Y-103962200D02*
X144922380Y-103914580D01*
X144922380Y-103914580D02*
X144969999Y-103819342D01*
X144969999Y-103819342D02*
X144969999Y-103533628D01*
X144969999Y-103533628D02*
X144922380Y-103438390D01*
X144922380Y-103438390D02*
X144874761Y-103390771D01*
X144874761Y-103390771D02*
X144779523Y-103343152D01*
X144779523Y-103343152D02*
X144636666Y-103343152D01*
X144636666Y-103343152D02*
X144541428Y-103390771D01*
X144541428Y-103390771D02*
X144493809Y-103438390D01*
X144493809Y-103438390D02*
X144446190Y-103533628D01*
X144446190Y-103533628D02*
X144446190Y-103819342D01*
X144446190Y-103819342D02*
X144493809Y-103914580D01*
X144493809Y-103914580D02*
X144541428Y-103962200D01*
X144541428Y-103962200D02*
X144636666Y-104009819D01*
X144636666Y-104009819D02*
X144779523Y-104009819D01*
X144112856Y-103343152D02*
X143922380Y-104009819D01*
X143922380Y-104009819D02*
X143731904Y-103533628D01*
X143731904Y-103533628D02*
X143541428Y-104009819D01*
X143541428Y-104009819D02*
X143350952Y-103343152D01*
X142589047Y-103962200D02*
X142684285Y-104009819D01*
X142684285Y-104009819D02*
X142874761Y-104009819D01*
X142874761Y-104009819D02*
X142969999Y-103962200D01*
X142969999Y-103962200D02*
X143017618Y-103866961D01*
X143017618Y-103866961D02*
X143017618Y-103486009D01*
X143017618Y-103486009D02*
X142969999Y-103390771D01*
X142969999Y-103390771D02*
X142874761Y-103343152D01*
X142874761Y-103343152D02*
X142684285Y-103343152D01*
X142684285Y-103343152D02*
X142589047Y-103390771D01*
X142589047Y-103390771D02*
X142541428Y-103486009D01*
X142541428Y-103486009D02*
X142541428Y-103581247D01*
X142541428Y-103581247D02*
X143017618Y-103676485D01*
X142112856Y-104009819D02*
X142112856Y-103343152D01*
X142112856Y-103533628D02*
X142065237Y-103438390D01*
X142065237Y-103438390D02*
X142017618Y-103390771D01*
X142017618Y-103390771D02*
X141922380Y-103343152D01*
X141922380Y-103343152D02*
X141827142Y-103343152D01*
X140731903Y-104009819D02*
X140731903Y-103343152D01*
X140731903Y-103009819D02*
X140779522Y-103057438D01*
X140779522Y-103057438D02*
X140731903Y-103105057D01*
X140731903Y-103105057D02*
X140684284Y-103057438D01*
X140684284Y-103057438D02*
X140731903Y-103009819D01*
X140731903Y-103009819D02*
X140731903Y-103105057D01*
X140303332Y-103962200D02*
X140208094Y-104009819D01*
X140208094Y-104009819D02*
X140017618Y-104009819D01*
X140017618Y-104009819D02*
X139922380Y-103962200D01*
X139922380Y-103962200D02*
X139874761Y-103866961D01*
X139874761Y-103866961D02*
X139874761Y-103819342D01*
X139874761Y-103819342D02*
X139922380Y-103724104D01*
X139922380Y-103724104D02*
X140017618Y-103676485D01*
X140017618Y-103676485D02*
X140160475Y-103676485D01*
X140160475Y-103676485D02*
X140255713Y-103628866D01*
X140255713Y-103628866D02*
X140303332Y-103533628D01*
X140303332Y-103533628D02*
X140303332Y-103486009D01*
X140303332Y-103486009D02*
X140255713Y-103390771D01*
X140255713Y-103390771D02*
X140160475Y-103343152D01*
X140160475Y-103343152D02*
X140017618Y-103343152D01*
X140017618Y-103343152D02*
X139922380Y-103390771D01*
X138541427Y-104009819D02*
X138636665Y-103962200D01*
X138636665Y-103962200D02*
X138684284Y-103914580D01*
X138684284Y-103914580D02*
X138731903Y-103819342D01*
X138731903Y-103819342D02*
X138731903Y-103533628D01*
X138731903Y-103533628D02*
X138684284Y-103438390D01*
X138684284Y-103438390D02*
X138636665Y-103390771D01*
X138636665Y-103390771D02*
X138541427Y-103343152D01*
X138541427Y-103343152D02*
X138398570Y-103343152D01*
X138398570Y-103343152D02*
X138303332Y-103390771D01*
X138303332Y-103390771D02*
X138255713Y-103438390D01*
X138255713Y-103438390D02*
X138208094Y-103533628D01*
X138208094Y-103533628D02*
X138208094Y-103819342D01*
X138208094Y-103819342D02*
X138255713Y-103914580D01*
X138255713Y-103914580D02*
X138303332Y-103962200D01*
X138303332Y-103962200D02*
X138398570Y-104009819D01*
X138398570Y-104009819D02*
X138541427Y-104009819D01*
X137779522Y-103343152D02*
X137779522Y-104009819D01*
X137779522Y-103438390D02*
X137731903Y-103390771D01*
X137731903Y-103390771D02*
X137636665Y-103343152D01*
X137636665Y-103343152D02*
X137493808Y-103343152D01*
X137493808Y-103343152D02*
X137398570Y-103390771D01*
X137398570Y-103390771D02*
X137350951Y-103486009D01*
X137350951Y-103486009D02*
X137350951Y-104009819D01*
X136112855Y-103914580D02*
X136065236Y-103962200D01*
X136065236Y-103962200D02*
X136112855Y-104009819D01*
X136112855Y-104009819D02*
X136160474Y-103962200D01*
X136160474Y-103962200D02*
X136112855Y-103914580D01*
X136112855Y-103914580D02*
X136112855Y-104009819D01*
X136112855Y-103628866D02*
X136160474Y-103057438D01*
X136160474Y-103057438D02*
X136112855Y-103009819D01*
X136112855Y-103009819D02*
X136065236Y-103057438D01*
X136065236Y-103057438D02*
X136112855Y-103628866D01*
X136112855Y-103628866D02*
X136112855Y-103009819D01*
X112610508Y-127885819D02*
X113086698Y-127885819D01*
X113086698Y-127885819D02*
X113086698Y-126885819D01*
X112277174Y-127885819D02*
X112277174Y-127219152D01*
X112277174Y-126885819D02*
X112324793Y-126933438D01*
X112324793Y-126933438D02*
X112277174Y-126981057D01*
X112277174Y-126981057D02*
X112229555Y-126933438D01*
X112229555Y-126933438D02*
X112277174Y-126885819D01*
X112277174Y-126885819D02*
X112277174Y-126981057D01*
X111372413Y-127838200D02*
X111467651Y-127885819D01*
X111467651Y-127885819D02*
X111658127Y-127885819D01*
X111658127Y-127885819D02*
X111753365Y-127838200D01*
X111753365Y-127838200D02*
X111800984Y-127790580D01*
X111800984Y-127790580D02*
X111848603Y-127695342D01*
X111848603Y-127695342D02*
X111848603Y-127409628D01*
X111848603Y-127409628D02*
X111800984Y-127314390D01*
X111800984Y-127314390D02*
X111753365Y-127266771D01*
X111753365Y-127266771D02*
X111658127Y-127219152D01*
X111658127Y-127219152D02*
X111467651Y-127219152D01*
X111467651Y-127219152D02*
X111372413Y-127266771D01*
X110562889Y-127838200D02*
X110658127Y-127885819D01*
X110658127Y-127885819D02*
X110848603Y-127885819D01*
X110848603Y-127885819D02*
X110943841Y-127838200D01*
X110943841Y-127838200D02*
X110991460Y-127742961D01*
X110991460Y-127742961D02*
X110991460Y-127362009D01*
X110991460Y-127362009D02*
X110943841Y-127266771D01*
X110943841Y-127266771D02*
X110848603Y-127219152D01*
X110848603Y-127219152D02*
X110658127Y-127219152D01*
X110658127Y-127219152D02*
X110562889Y-127266771D01*
X110562889Y-127266771D02*
X110515270Y-127362009D01*
X110515270Y-127362009D02*
X110515270Y-127457247D01*
X110515270Y-127457247D02*
X110991460Y-127552485D01*
X110086698Y-127219152D02*
X110086698Y-127885819D01*
X110086698Y-127314390D02*
X110039079Y-127266771D01*
X110039079Y-127266771D02*
X109943841Y-127219152D01*
X109943841Y-127219152D02*
X109800984Y-127219152D01*
X109800984Y-127219152D02*
X109705746Y-127266771D01*
X109705746Y-127266771D02*
X109658127Y-127362009D01*
X109658127Y-127362009D02*
X109658127Y-127885819D01*
X109229555Y-127838200D02*
X109134317Y-127885819D01*
X109134317Y-127885819D02*
X108943841Y-127885819D01*
X108943841Y-127885819D02*
X108848603Y-127838200D01*
X108848603Y-127838200D02*
X108800984Y-127742961D01*
X108800984Y-127742961D02*
X108800984Y-127695342D01*
X108800984Y-127695342D02*
X108848603Y-127600104D01*
X108848603Y-127600104D02*
X108943841Y-127552485D01*
X108943841Y-127552485D02*
X109086698Y-127552485D01*
X109086698Y-127552485D02*
X109181936Y-127504866D01*
X109181936Y-127504866D02*
X109229555Y-127409628D01*
X109229555Y-127409628D02*
X109229555Y-127362009D01*
X109229555Y-127362009D02*
X109181936Y-127266771D01*
X109181936Y-127266771D02*
X109086698Y-127219152D01*
X109086698Y-127219152D02*
X108943841Y-127219152D01*
X108943841Y-127219152D02*
X108848603Y-127266771D01*
X107991460Y-127838200D02*
X108086698Y-127885819D01*
X108086698Y-127885819D02*
X108277174Y-127885819D01*
X108277174Y-127885819D02*
X108372412Y-127838200D01*
X108372412Y-127838200D02*
X108420031Y-127742961D01*
X108420031Y-127742961D02*
X108420031Y-127362009D01*
X108420031Y-127362009D02*
X108372412Y-127266771D01*
X108372412Y-127266771D02*
X108277174Y-127219152D01*
X108277174Y-127219152D02*
X108086698Y-127219152D01*
X108086698Y-127219152D02*
X107991460Y-127266771D01*
X107991460Y-127266771D02*
X107943841Y-127362009D01*
X107943841Y-127362009D02*
X107943841Y-127457247D01*
X107943841Y-127457247D02*
X108420031Y-127552485D01*
X107086698Y-127885819D02*
X107086698Y-126885819D01*
X107086698Y-127838200D02*
X107181936Y-127885819D01*
X107181936Y-127885819D02*
X107372412Y-127885819D01*
X107372412Y-127885819D02*
X107467650Y-127838200D01*
X107467650Y-127838200D02*
X107515269Y-127790580D01*
X107515269Y-127790580D02*
X107562888Y-127695342D01*
X107562888Y-127695342D02*
X107562888Y-127409628D01*
X107562888Y-127409628D02*
X107515269Y-127314390D01*
X107515269Y-127314390D02*
X107467650Y-127266771D01*
X107467650Y-127266771D02*
X107372412Y-127219152D01*
X107372412Y-127219152D02*
X107181936Y-127219152D01*
X107181936Y-127219152D02*
X107086698Y-127266771D01*
X105420031Y-127219152D02*
X105420031Y-127885819D01*
X105848602Y-127219152D02*
X105848602Y-127742961D01*
X105848602Y-127742961D02*
X105800983Y-127838200D01*
X105800983Y-127838200D02*
X105705745Y-127885819D01*
X105705745Y-127885819D02*
X105562888Y-127885819D01*
X105562888Y-127885819D02*
X105467650Y-127838200D01*
X105467650Y-127838200D02*
X105420031Y-127790580D01*
X104943840Y-127219152D02*
X104943840Y-127885819D01*
X104943840Y-127314390D02*
X104896221Y-127266771D01*
X104896221Y-127266771D02*
X104800983Y-127219152D01*
X104800983Y-127219152D02*
X104658126Y-127219152D01*
X104658126Y-127219152D02*
X104562888Y-127266771D01*
X104562888Y-127266771D02*
X104515269Y-127362009D01*
X104515269Y-127362009D02*
X104515269Y-127885819D01*
X103610507Y-127885819D02*
X103610507Y-126885819D01*
X103610507Y-127838200D02*
X103705745Y-127885819D01*
X103705745Y-127885819D02*
X103896221Y-127885819D01*
X103896221Y-127885819D02*
X103991459Y-127838200D01*
X103991459Y-127838200D02*
X104039078Y-127790580D01*
X104039078Y-127790580D02*
X104086697Y-127695342D01*
X104086697Y-127695342D02*
X104086697Y-127409628D01*
X104086697Y-127409628D02*
X104039078Y-127314390D01*
X104039078Y-127314390D02*
X103991459Y-127266771D01*
X103991459Y-127266771D02*
X103896221Y-127219152D01*
X103896221Y-127219152D02*
X103705745Y-127219152D01*
X103705745Y-127219152D02*
X103610507Y-127266771D01*
X102753364Y-127838200D02*
X102848602Y-127885819D01*
X102848602Y-127885819D02*
X103039078Y-127885819D01*
X103039078Y-127885819D02*
X103134316Y-127838200D01*
X103134316Y-127838200D02*
X103181935Y-127742961D01*
X103181935Y-127742961D02*
X103181935Y-127362009D01*
X103181935Y-127362009D02*
X103134316Y-127266771D01*
X103134316Y-127266771D02*
X103039078Y-127219152D01*
X103039078Y-127219152D02*
X102848602Y-127219152D01*
X102848602Y-127219152D02*
X102753364Y-127266771D01*
X102753364Y-127266771D02*
X102705745Y-127362009D01*
X102705745Y-127362009D02*
X102705745Y-127457247D01*
X102705745Y-127457247D02*
X103181935Y-127552485D01*
X102277173Y-127885819D02*
X102277173Y-127219152D01*
X102277173Y-127409628D02*
X102229554Y-127314390D01*
X102229554Y-127314390D02*
X102181935Y-127266771D01*
X102181935Y-127266771D02*
X102086697Y-127219152D01*
X102086697Y-127219152D02*
X101991459Y-127219152D01*
X100324792Y-127790580D02*
X100372411Y-127838200D01*
X100372411Y-127838200D02*
X100515268Y-127885819D01*
X100515268Y-127885819D02*
X100610506Y-127885819D01*
X100610506Y-127885819D02*
X100753363Y-127838200D01*
X100753363Y-127838200D02*
X100848601Y-127742961D01*
X100848601Y-127742961D02*
X100896220Y-127647723D01*
X100896220Y-127647723D02*
X100943839Y-127457247D01*
X100943839Y-127457247D02*
X100943839Y-127314390D01*
X100943839Y-127314390D02*
X100896220Y-127123914D01*
X100896220Y-127123914D02*
X100848601Y-127028676D01*
X100848601Y-127028676D02*
X100753363Y-126933438D01*
X100753363Y-126933438D02*
X100610506Y-126885819D01*
X100610506Y-126885819D02*
X100515268Y-126885819D01*
X100515268Y-126885819D02*
X100372411Y-126933438D01*
X100372411Y-126933438D02*
X100324792Y-126981057D01*
X99896220Y-127362009D02*
X99562887Y-127362009D01*
X99420030Y-127885819D02*
X99896220Y-127885819D01*
X99896220Y-127885819D02*
X99896220Y-126885819D01*
X99896220Y-126885819D02*
X99420030Y-126885819D01*
X98420030Y-127885819D02*
X98753363Y-127409628D01*
X98991458Y-127885819D02*
X98991458Y-126885819D01*
X98991458Y-126885819D02*
X98610506Y-126885819D01*
X98610506Y-126885819D02*
X98515268Y-126933438D01*
X98515268Y-126933438D02*
X98467649Y-126981057D01*
X98467649Y-126981057D02*
X98420030Y-127076295D01*
X98420030Y-127076295D02*
X98420030Y-127219152D01*
X98420030Y-127219152D02*
X98467649Y-127314390D01*
X98467649Y-127314390D02*
X98515268Y-127362009D01*
X98515268Y-127362009D02*
X98610506Y-127409628D01*
X98610506Y-127409628D02*
X98991458Y-127409628D01*
X97991458Y-127885819D02*
X97991458Y-126885819D01*
X97991458Y-126885819D02*
X97420030Y-127885819D01*
X97420030Y-127885819D02*
X97420030Y-126885819D01*
X95991458Y-126885819D02*
X95800982Y-126885819D01*
X95800982Y-126885819D02*
X95705744Y-126933438D01*
X95705744Y-126933438D02*
X95610506Y-127028676D01*
X95610506Y-127028676D02*
X95562887Y-127219152D01*
X95562887Y-127219152D02*
X95562887Y-127552485D01*
X95562887Y-127552485D02*
X95610506Y-127742961D01*
X95610506Y-127742961D02*
X95705744Y-127838200D01*
X95705744Y-127838200D02*
X95800982Y-127885819D01*
X95800982Y-127885819D02*
X95991458Y-127885819D01*
X95991458Y-127885819D02*
X96086696Y-127838200D01*
X96086696Y-127838200D02*
X96181934Y-127742961D01*
X96181934Y-127742961D02*
X96229553Y-127552485D01*
X96229553Y-127552485D02*
X96229553Y-127219152D01*
X96229553Y-127219152D02*
X96181934Y-127028676D01*
X96181934Y-127028676D02*
X96086696Y-126933438D01*
X96086696Y-126933438D02*
X95991458Y-126885819D01*
X95134315Y-127885819D02*
X95134315Y-126885819D01*
X95134315Y-127362009D02*
X94562887Y-127362009D01*
X94562887Y-127885819D02*
X94562887Y-126885819D01*
X93610506Y-127885819D02*
X94086696Y-127885819D01*
X94086696Y-127885819D02*
X94086696Y-126885819D01*
X92658124Y-126885819D02*
X92324791Y-127885819D01*
X92324791Y-127885819D02*
X91991458Y-126885819D01*
X91705743Y-126981057D02*
X91658124Y-126933438D01*
X91658124Y-126933438D02*
X91562886Y-126885819D01*
X91562886Y-126885819D02*
X91324791Y-126885819D01*
X91324791Y-126885819D02*
X91229553Y-126933438D01*
X91229553Y-126933438D02*
X91181934Y-126981057D01*
X91181934Y-126981057D02*
X91134315Y-127076295D01*
X91134315Y-127076295D02*
X91134315Y-127171533D01*
X91134315Y-127171533D02*
X91181934Y-127314390D01*
X91181934Y-127314390D02*
X91753362Y-127885819D01*
X91753362Y-127885819D02*
X91134315Y-127885819D01*
D11*
X118350384Y-119437428D02*
X118350384Y-117937428D01*
X118350384Y-117937428D02*
X117493241Y-119437428D01*
X117493241Y-119437428D02*
X117493241Y-117937428D01*
X116136098Y-119437428D02*
X116136098Y-118651714D01*
X116136098Y-118651714D02*
X116207526Y-118508857D01*
X116207526Y-118508857D02*
X116350383Y-118437428D01*
X116350383Y-118437428D02*
X116636098Y-118437428D01*
X116636098Y-118437428D02*
X116778955Y-118508857D01*
X116136098Y-119366000D02*
X116278955Y-119437428D01*
X116278955Y-119437428D02*
X116636098Y-119437428D01*
X116636098Y-119437428D02*
X116778955Y-119366000D01*
X116778955Y-119366000D02*
X116850383Y-119223142D01*
X116850383Y-119223142D02*
X116850383Y-119080285D01*
X116850383Y-119080285D02*
X116778955Y-118937428D01*
X116778955Y-118937428D02*
X116636098Y-118866000D01*
X116636098Y-118866000D02*
X116278955Y-118866000D01*
X116278955Y-118866000D02*
X116136098Y-118794571D01*
X115421812Y-118437428D02*
X115421812Y-119437428D01*
X115421812Y-118580285D02*
X115350383Y-118508857D01*
X115350383Y-118508857D02*
X115207526Y-118437428D01*
X115207526Y-118437428D02*
X114993240Y-118437428D01*
X114993240Y-118437428D02*
X114850383Y-118508857D01*
X114850383Y-118508857D02*
X114778955Y-118651714D01*
X114778955Y-118651714D02*
X114778955Y-119437428D01*
X113850383Y-119437428D02*
X113993240Y-119366000D01*
X113993240Y-119366000D02*
X114064669Y-119294571D01*
X114064669Y-119294571D02*
X114136097Y-119151714D01*
X114136097Y-119151714D02*
X114136097Y-118723142D01*
X114136097Y-118723142D02*
X114064669Y-118580285D01*
X114064669Y-118580285D02*
X113993240Y-118508857D01*
X113993240Y-118508857D02*
X113850383Y-118437428D01*
X113850383Y-118437428D02*
X113636097Y-118437428D01*
X113636097Y-118437428D02*
X113493240Y-118508857D01*
X113493240Y-118508857D02*
X113421812Y-118580285D01*
X113421812Y-118580285D02*
X113350383Y-118723142D01*
X113350383Y-118723142D02*
X113350383Y-119151714D01*
X113350383Y-119151714D02*
X113421812Y-119294571D01*
X113421812Y-119294571D02*
X113493240Y-119366000D01*
X113493240Y-119366000D02*
X113636097Y-119437428D01*
X113636097Y-119437428D02*
X113850383Y-119437428D01*
X111064669Y-118651714D02*
X111564669Y-118651714D01*
X111564669Y-119437428D02*
X111564669Y-117937428D01*
X111564669Y-117937428D02*
X110850383Y-117937428D01*
X110278955Y-119437428D02*
X110278955Y-118437428D01*
X110278955Y-118723142D02*
X110207526Y-118580285D01*
X110207526Y-118580285D02*
X110136098Y-118508857D01*
X110136098Y-118508857D02*
X109993240Y-118437428D01*
X109993240Y-118437428D02*
X109850383Y-118437428D01*
X109350384Y-119437428D02*
X109350384Y-118437428D01*
X109350384Y-117937428D02*
X109421812Y-118008857D01*
X109421812Y-118008857D02*
X109350384Y-118080285D01*
X109350384Y-118080285D02*
X109278955Y-118008857D01*
X109278955Y-118008857D02*
X109350384Y-117937428D01*
X109350384Y-117937428D02*
X109350384Y-118080285D01*
X107993241Y-119437428D02*
X107993241Y-117937428D01*
X107993241Y-119366000D02*
X108136098Y-119437428D01*
X108136098Y-119437428D02*
X108421812Y-119437428D01*
X108421812Y-119437428D02*
X108564669Y-119366000D01*
X108564669Y-119366000D02*
X108636098Y-119294571D01*
X108636098Y-119294571D02*
X108707526Y-119151714D01*
X108707526Y-119151714D02*
X108707526Y-118723142D01*
X108707526Y-118723142D02*
X108636098Y-118580285D01*
X108636098Y-118580285D02*
X108564669Y-118508857D01*
X108564669Y-118508857D02*
X108421812Y-118437428D01*
X108421812Y-118437428D02*
X108136098Y-118437428D01*
X108136098Y-118437428D02*
X107993241Y-118508857D01*
X106636098Y-118437428D02*
X106636098Y-119651714D01*
X106636098Y-119651714D02*
X106707526Y-119794571D01*
X106707526Y-119794571D02*
X106778955Y-119866000D01*
X106778955Y-119866000D02*
X106921812Y-119937428D01*
X106921812Y-119937428D02*
X107136098Y-119937428D01*
X107136098Y-119937428D02*
X107278955Y-119866000D01*
X106636098Y-119366000D02*
X106778955Y-119437428D01*
X106778955Y-119437428D02*
X107064669Y-119437428D01*
X107064669Y-119437428D02*
X107207526Y-119366000D01*
X107207526Y-119366000D02*
X107278955Y-119294571D01*
X107278955Y-119294571D02*
X107350383Y-119151714D01*
X107350383Y-119151714D02*
X107350383Y-118723142D01*
X107350383Y-118723142D02*
X107278955Y-118580285D01*
X107278955Y-118580285D02*
X107207526Y-118508857D01*
X107207526Y-118508857D02*
X107064669Y-118437428D01*
X107064669Y-118437428D02*
X106778955Y-118437428D01*
X106778955Y-118437428D02*
X106636098Y-118508857D01*
X105350383Y-119366000D02*
X105493240Y-119437428D01*
X105493240Y-119437428D02*
X105778955Y-119437428D01*
X105778955Y-119437428D02*
X105921812Y-119366000D01*
X105921812Y-119366000D02*
X105993240Y-119223142D01*
X105993240Y-119223142D02*
X105993240Y-118651714D01*
X105993240Y-118651714D02*
X105921812Y-118508857D01*
X105921812Y-118508857D02*
X105778955Y-118437428D01*
X105778955Y-118437428D02*
X105493240Y-118437428D01*
X105493240Y-118437428D02*
X105350383Y-118508857D01*
X105350383Y-118508857D02*
X105278955Y-118651714D01*
X105278955Y-118651714D02*
X105278955Y-118794571D01*
X105278955Y-118794571D02*
X105993240Y-118937428D01*
X103707526Y-117937428D02*
X102850384Y-117937428D01*
X103278955Y-119437428D02*
X103278955Y-117937428D01*
X102350384Y-119437428D02*
X102350384Y-117937428D01*
X101707527Y-119437428D02*
X101707527Y-118651714D01*
X101707527Y-118651714D02*
X101778955Y-118508857D01*
X101778955Y-118508857D02*
X101921812Y-118437428D01*
X101921812Y-118437428D02*
X102136098Y-118437428D01*
X102136098Y-118437428D02*
X102278955Y-118508857D01*
X102278955Y-118508857D02*
X102350384Y-118580285D01*
X100421812Y-119366000D02*
X100564669Y-119437428D01*
X100564669Y-119437428D02*
X100850384Y-119437428D01*
X100850384Y-119437428D02*
X100993241Y-119366000D01*
X100993241Y-119366000D02*
X101064669Y-119223142D01*
X101064669Y-119223142D02*
X101064669Y-118651714D01*
X101064669Y-118651714D02*
X100993241Y-118508857D01*
X100993241Y-118508857D02*
X100850384Y-118437428D01*
X100850384Y-118437428D02*
X100564669Y-118437428D01*
X100564669Y-118437428D02*
X100421812Y-118508857D01*
X100421812Y-118508857D02*
X100350384Y-118651714D01*
X100350384Y-118651714D02*
X100350384Y-118794571D01*
X100350384Y-118794571D02*
X101064669Y-118937428D01*
X99707527Y-119437428D02*
X99707527Y-118437428D01*
X99707527Y-118723142D02*
X99636098Y-118580285D01*
X99636098Y-118580285D02*
X99564670Y-118508857D01*
X99564670Y-118508857D02*
X99421812Y-118437428D01*
X99421812Y-118437428D02*
X99278955Y-118437428D01*
X98778956Y-119437428D02*
X98778956Y-118437428D01*
X98778956Y-118580285D02*
X98707527Y-118508857D01*
X98707527Y-118508857D02*
X98564670Y-118437428D01*
X98564670Y-118437428D02*
X98350384Y-118437428D01*
X98350384Y-118437428D02*
X98207527Y-118508857D01*
X98207527Y-118508857D02*
X98136099Y-118651714D01*
X98136099Y-118651714D02*
X98136099Y-119437428D01*
X98136099Y-118651714D02*
X98064670Y-118508857D01*
X98064670Y-118508857D02*
X97921813Y-118437428D01*
X97921813Y-118437428D02*
X97707527Y-118437428D01*
X97707527Y-118437428D02*
X97564670Y-118508857D01*
X97564670Y-118508857D02*
X97493241Y-118651714D01*
X97493241Y-118651714D02*
X97493241Y-119437428D01*
X96564670Y-119437428D02*
X96707527Y-119366000D01*
X96707527Y-119366000D02*
X96778956Y-119294571D01*
X96778956Y-119294571D02*
X96850384Y-119151714D01*
X96850384Y-119151714D02*
X96850384Y-118723142D01*
X96850384Y-118723142D02*
X96778956Y-118580285D01*
X96778956Y-118580285D02*
X96707527Y-118508857D01*
X96707527Y-118508857D02*
X96564670Y-118437428D01*
X96564670Y-118437428D02*
X96350384Y-118437428D01*
X96350384Y-118437428D02*
X96207527Y-118508857D01*
X96207527Y-118508857D02*
X96136099Y-118580285D01*
X96136099Y-118580285D02*
X96064670Y-118723142D01*
X96064670Y-118723142D02*
X96064670Y-119151714D01*
X96064670Y-119151714D02*
X96136099Y-119294571D01*
X96136099Y-119294571D02*
X96207527Y-119366000D01*
X96207527Y-119366000D02*
X96350384Y-119437428D01*
X96350384Y-119437428D02*
X96564670Y-119437428D01*
X95493241Y-119366000D02*
X95350384Y-119437428D01*
X95350384Y-119437428D02*
X95064670Y-119437428D01*
X95064670Y-119437428D02*
X94921813Y-119366000D01*
X94921813Y-119366000D02*
X94850384Y-119223142D01*
X94850384Y-119223142D02*
X94850384Y-119151714D01*
X94850384Y-119151714D02*
X94921813Y-119008857D01*
X94921813Y-119008857D02*
X95064670Y-118937428D01*
X95064670Y-118937428D02*
X95278956Y-118937428D01*
X95278956Y-118937428D02*
X95421813Y-118866000D01*
X95421813Y-118866000D02*
X95493241Y-118723142D01*
X95493241Y-118723142D02*
X95493241Y-118651714D01*
X95493241Y-118651714D02*
X95421813Y-118508857D01*
X95421813Y-118508857D02*
X95278956Y-118437428D01*
X95278956Y-118437428D02*
X95064670Y-118437428D01*
X95064670Y-118437428D02*
X94921813Y-118508857D01*
X94421812Y-118437428D02*
X93850384Y-118437428D01*
X94207527Y-117937428D02*
X94207527Y-119223142D01*
X94207527Y-119223142D02*
X94136098Y-119366000D01*
X94136098Y-119366000D02*
X93993241Y-119437428D01*
X93993241Y-119437428D02*
X93850384Y-119437428D01*
X92707527Y-119437428D02*
X92707527Y-118651714D01*
X92707527Y-118651714D02*
X92778955Y-118508857D01*
X92778955Y-118508857D02*
X92921812Y-118437428D01*
X92921812Y-118437428D02*
X93207527Y-118437428D01*
X93207527Y-118437428D02*
X93350384Y-118508857D01*
X92707527Y-119366000D02*
X92850384Y-119437428D01*
X92850384Y-119437428D02*
X93207527Y-119437428D01*
X93207527Y-119437428D02*
X93350384Y-119366000D01*
X93350384Y-119366000D02*
X93421812Y-119223142D01*
X93421812Y-119223142D02*
X93421812Y-119080285D01*
X93421812Y-119080285D02*
X93350384Y-118937428D01*
X93350384Y-118937428D02*
X93207527Y-118866000D01*
X93207527Y-118866000D02*
X92850384Y-118866000D01*
X92850384Y-118866000D02*
X92707527Y-118794571D01*
X92207526Y-118437428D02*
X91636098Y-118437428D01*
X91993241Y-117937428D02*
X91993241Y-119223142D01*
X91993241Y-119223142D02*
X91921812Y-119366000D01*
X91921812Y-119366000D02*
X91778955Y-119437428D01*
X91778955Y-119437428D02*
X91636098Y-119437428D01*
X89564669Y-120008857D02*
X89636098Y-119937428D01*
X89636098Y-119937428D02*
X89778955Y-119723142D01*
X89778955Y-119723142D02*
X89850384Y-119580285D01*
X89850384Y-119580285D02*
X89921812Y-119366000D01*
X89921812Y-119366000D02*
X89993241Y-119008857D01*
X89993241Y-119008857D02*
X89993241Y-118723142D01*
X89993241Y-118723142D02*
X89921812Y-118366000D01*
X89921812Y-118366000D02*
X89850384Y-118151714D01*
X89850384Y-118151714D02*
X89778955Y-118008857D01*
X89778955Y-118008857D02*
X89636098Y-117794571D01*
X89636098Y-117794571D02*
X89564669Y-117723142D01*
X89207526Y-117937428D02*
X88707526Y-119437428D01*
X88707526Y-119437428D02*
X88207526Y-117937428D01*
X87778955Y-118080285D02*
X87707527Y-118008857D01*
X87707527Y-118008857D02*
X87564670Y-117937428D01*
X87564670Y-117937428D02*
X87207527Y-117937428D01*
X87207527Y-117937428D02*
X87064670Y-118008857D01*
X87064670Y-118008857D02*
X86993241Y-118080285D01*
X86993241Y-118080285D02*
X86921812Y-118223142D01*
X86921812Y-118223142D02*
X86921812Y-118366000D01*
X86921812Y-118366000D02*
X86993241Y-118580285D01*
X86993241Y-118580285D02*
X87850384Y-119437428D01*
X87850384Y-119437428D02*
X86921812Y-119437428D01*
X86421813Y-120008857D02*
X86350384Y-119937428D01*
X86350384Y-119937428D02*
X86207527Y-119723142D01*
X86207527Y-119723142D02*
X86136099Y-119580285D01*
X86136099Y-119580285D02*
X86064670Y-119366000D01*
X86064670Y-119366000D02*
X85993241Y-119008857D01*
X85993241Y-119008857D02*
X85993241Y-118723142D01*
X85993241Y-118723142D02*
X86064670Y-118366000D01*
X86064670Y-118366000D02*
X86136099Y-118151714D01*
X86136099Y-118151714D02*
X86207527Y-118008857D01*
X86207527Y-118008857D02*
X86350384Y-117794571D01*
X86350384Y-117794571D02*
X86421813Y-117723142D01*
D10*
X153533715Y-128561819D02*
X153533715Y-127561819D01*
X153533715Y-127561819D02*
X152962287Y-128561819D01*
X152962287Y-128561819D02*
X152962287Y-127561819D01*
X152057525Y-128561819D02*
X152057525Y-128038009D01*
X152057525Y-128038009D02*
X152105144Y-127942771D01*
X152105144Y-127942771D02*
X152200382Y-127895152D01*
X152200382Y-127895152D02*
X152390858Y-127895152D01*
X152390858Y-127895152D02*
X152486096Y-127942771D01*
X152057525Y-128514200D02*
X152152763Y-128561819D01*
X152152763Y-128561819D02*
X152390858Y-128561819D01*
X152390858Y-128561819D02*
X152486096Y-128514200D01*
X152486096Y-128514200D02*
X152533715Y-128418961D01*
X152533715Y-128418961D02*
X152533715Y-128323723D01*
X152533715Y-128323723D02*
X152486096Y-128228485D01*
X152486096Y-128228485D02*
X152390858Y-128180866D01*
X152390858Y-128180866D02*
X152152763Y-128180866D01*
X152152763Y-128180866D02*
X152057525Y-128133247D01*
X151581334Y-127895152D02*
X151581334Y-128561819D01*
X151581334Y-127990390D02*
X151533715Y-127942771D01*
X151533715Y-127942771D02*
X151438477Y-127895152D01*
X151438477Y-127895152D02*
X151295620Y-127895152D01*
X151295620Y-127895152D02*
X151200382Y-127942771D01*
X151200382Y-127942771D02*
X151152763Y-128038009D01*
X151152763Y-128038009D02*
X151152763Y-128561819D01*
X150533715Y-128561819D02*
X150628953Y-128514200D01*
X150628953Y-128514200D02*
X150676572Y-128466580D01*
X150676572Y-128466580D02*
X150724191Y-128371342D01*
X150724191Y-128371342D02*
X150724191Y-128085628D01*
X150724191Y-128085628D02*
X150676572Y-127990390D01*
X150676572Y-127990390D02*
X150628953Y-127942771D01*
X150628953Y-127942771D02*
X150533715Y-127895152D01*
X150533715Y-127895152D02*
X150390858Y-127895152D01*
X150390858Y-127895152D02*
X150295620Y-127942771D01*
X150295620Y-127942771D02*
X150248001Y-127990390D01*
X150248001Y-127990390D02*
X150200382Y-128085628D01*
X150200382Y-128085628D02*
X150200382Y-128371342D01*
X150200382Y-128371342D02*
X150248001Y-128466580D01*
X150248001Y-128466580D02*
X150295620Y-128514200D01*
X150295620Y-128514200D02*
X150390858Y-128561819D01*
X150390858Y-128561819D02*
X150533715Y-128561819D01*
X148676572Y-128038009D02*
X149009905Y-128038009D01*
X149009905Y-128561819D02*
X149009905Y-127561819D01*
X149009905Y-127561819D02*
X148533715Y-127561819D01*
X148152762Y-128561819D02*
X148152762Y-127895152D01*
X148152762Y-128085628D02*
X148105143Y-127990390D01*
X148105143Y-127990390D02*
X148057524Y-127942771D01*
X148057524Y-127942771D02*
X147962286Y-127895152D01*
X147962286Y-127895152D02*
X147867048Y-127895152D01*
X147533714Y-128561819D02*
X147533714Y-127895152D01*
X147533714Y-127561819D02*
X147581333Y-127609438D01*
X147581333Y-127609438D02*
X147533714Y-127657057D01*
X147533714Y-127657057D02*
X147486095Y-127609438D01*
X147486095Y-127609438D02*
X147533714Y-127561819D01*
X147533714Y-127561819D02*
X147533714Y-127657057D01*
X146628953Y-128561819D02*
X146628953Y-127561819D01*
X146628953Y-128514200D02*
X146724191Y-128561819D01*
X146724191Y-128561819D02*
X146914667Y-128561819D01*
X146914667Y-128561819D02*
X147009905Y-128514200D01*
X147009905Y-128514200D02*
X147057524Y-128466580D01*
X147057524Y-128466580D02*
X147105143Y-128371342D01*
X147105143Y-128371342D02*
X147105143Y-128085628D01*
X147105143Y-128085628D02*
X147057524Y-127990390D01*
X147057524Y-127990390D02*
X147009905Y-127942771D01*
X147009905Y-127942771D02*
X146914667Y-127895152D01*
X146914667Y-127895152D02*
X146724191Y-127895152D01*
X146724191Y-127895152D02*
X146628953Y-127942771D01*
X145724191Y-127895152D02*
X145724191Y-128704676D01*
X145724191Y-128704676D02*
X145771810Y-128799914D01*
X145771810Y-128799914D02*
X145819429Y-128847533D01*
X145819429Y-128847533D02*
X145914667Y-128895152D01*
X145914667Y-128895152D02*
X146057524Y-128895152D01*
X146057524Y-128895152D02*
X146152762Y-128847533D01*
X145724191Y-128514200D02*
X145819429Y-128561819D01*
X145819429Y-128561819D02*
X146009905Y-128561819D01*
X146009905Y-128561819D02*
X146105143Y-128514200D01*
X146105143Y-128514200D02*
X146152762Y-128466580D01*
X146152762Y-128466580D02*
X146200381Y-128371342D01*
X146200381Y-128371342D02*
X146200381Y-128085628D01*
X146200381Y-128085628D02*
X146152762Y-127990390D01*
X146152762Y-127990390D02*
X146105143Y-127942771D01*
X146105143Y-127942771D02*
X146009905Y-127895152D01*
X146009905Y-127895152D02*
X145819429Y-127895152D01*
X145819429Y-127895152D02*
X145724191Y-127942771D01*
X144867048Y-128514200D02*
X144962286Y-128561819D01*
X144962286Y-128561819D02*
X145152762Y-128561819D01*
X145152762Y-128561819D02*
X145248000Y-128514200D01*
X145248000Y-128514200D02*
X145295619Y-128418961D01*
X145295619Y-128418961D02*
X145295619Y-128038009D01*
X145295619Y-128038009D02*
X145248000Y-127942771D01*
X145248000Y-127942771D02*
X145152762Y-127895152D01*
X145152762Y-127895152D02*
X144962286Y-127895152D01*
X144962286Y-127895152D02*
X144867048Y-127942771D01*
X144867048Y-127942771D02*
X144819429Y-128038009D01*
X144819429Y-128038009D02*
X144819429Y-128133247D01*
X144819429Y-128133247D02*
X145295619Y-128228485D01*
X143771809Y-127561819D02*
X143200381Y-127561819D01*
X143486095Y-128561819D02*
X143486095Y-127561819D01*
X142867047Y-128561819D02*
X142867047Y-127561819D01*
X142438476Y-128561819D02*
X142438476Y-128038009D01*
X142438476Y-128038009D02*
X142486095Y-127942771D01*
X142486095Y-127942771D02*
X142581333Y-127895152D01*
X142581333Y-127895152D02*
X142724190Y-127895152D01*
X142724190Y-127895152D02*
X142819428Y-127942771D01*
X142819428Y-127942771D02*
X142867047Y-127990390D01*
X141581333Y-128514200D02*
X141676571Y-128561819D01*
X141676571Y-128561819D02*
X141867047Y-128561819D01*
X141867047Y-128561819D02*
X141962285Y-128514200D01*
X141962285Y-128514200D02*
X142009904Y-128418961D01*
X142009904Y-128418961D02*
X142009904Y-128038009D01*
X142009904Y-128038009D02*
X141962285Y-127942771D01*
X141962285Y-127942771D02*
X141867047Y-127895152D01*
X141867047Y-127895152D02*
X141676571Y-127895152D01*
X141676571Y-127895152D02*
X141581333Y-127942771D01*
X141581333Y-127942771D02*
X141533714Y-128038009D01*
X141533714Y-128038009D02*
X141533714Y-128133247D01*
X141533714Y-128133247D02*
X142009904Y-128228485D01*
X141105142Y-128561819D02*
X141105142Y-127895152D01*
X141105142Y-128085628D02*
X141057523Y-127990390D01*
X141057523Y-127990390D02*
X141009904Y-127942771D01*
X141009904Y-127942771D02*
X140914666Y-127895152D01*
X140914666Y-127895152D02*
X140819428Y-127895152D01*
X140486094Y-128561819D02*
X140486094Y-127895152D01*
X140486094Y-127990390D02*
X140438475Y-127942771D01*
X140438475Y-127942771D02*
X140343237Y-127895152D01*
X140343237Y-127895152D02*
X140200380Y-127895152D01*
X140200380Y-127895152D02*
X140105142Y-127942771D01*
X140105142Y-127942771D02*
X140057523Y-128038009D01*
X140057523Y-128038009D02*
X140057523Y-128561819D01*
X140057523Y-128038009D02*
X140009904Y-127942771D01*
X140009904Y-127942771D02*
X139914666Y-127895152D01*
X139914666Y-127895152D02*
X139771809Y-127895152D01*
X139771809Y-127895152D02*
X139676570Y-127942771D01*
X139676570Y-127942771D02*
X139628951Y-128038009D01*
X139628951Y-128038009D02*
X139628951Y-128561819D01*
X139009904Y-128561819D02*
X139105142Y-128514200D01*
X139105142Y-128514200D02*
X139152761Y-128466580D01*
X139152761Y-128466580D02*
X139200380Y-128371342D01*
X139200380Y-128371342D02*
X139200380Y-128085628D01*
X139200380Y-128085628D02*
X139152761Y-127990390D01*
X139152761Y-127990390D02*
X139105142Y-127942771D01*
X139105142Y-127942771D02*
X139009904Y-127895152D01*
X139009904Y-127895152D02*
X138867047Y-127895152D01*
X138867047Y-127895152D02*
X138771809Y-127942771D01*
X138771809Y-127942771D02*
X138724190Y-127990390D01*
X138724190Y-127990390D02*
X138676571Y-128085628D01*
X138676571Y-128085628D02*
X138676571Y-128371342D01*
X138676571Y-128371342D02*
X138724190Y-128466580D01*
X138724190Y-128466580D02*
X138771809Y-128514200D01*
X138771809Y-128514200D02*
X138867047Y-128561819D01*
X138867047Y-128561819D02*
X139009904Y-128561819D01*
X138295618Y-128514200D02*
X138200380Y-128561819D01*
X138200380Y-128561819D02*
X138009904Y-128561819D01*
X138009904Y-128561819D02*
X137914666Y-128514200D01*
X137914666Y-128514200D02*
X137867047Y-128418961D01*
X137867047Y-128418961D02*
X137867047Y-128371342D01*
X137867047Y-128371342D02*
X137914666Y-128276104D01*
X137914666Y-128276104D02*
X138009904Y-128228485D01*
X138009904Y-128228485D02*
X138152761Y-128228485D01*
X138152761Y-128228485D02*
X138247999Y-128180866D01*
X138247999Y-128180866D02*
X138295618Y-128085628D01*
X138295618Y-128085628D02*
X138295618Y-128038009D01*
X138295618Y-128038009D02*
X138247999Y-127942771D01*
X138247999Y-127942771D02*
X138152761Y-127895152D01*
X138152761Y-127895152D02*
X138009904Y-127895152D01*
X138009904Y-127895152D02*
X137914666Y-127942771D01*
X137581332Y-127895152D02*
X137200380Y-127895152D01*
X137438475Y-127561819D02*
X137438475Y-128418961D01*
X137438475Y-128418961D02*
X137390856Y-128514200D01*
X137390856Y-128514200D02*
X137295618Y-128561819D01*
X137295618Y-128561819D02*
X137200380Y-128561819D01*
X136438475Y-128561819D02*
X136438475Y-128038009D01*
X136438475Y-128038009D02*
X136486094Y-127942771D01*
X136486094Y-127942771D02*
X136581332Y-127895152D01*
X136581332Y-127895152D02*
X136771808Y-127895152D01*
X136771808Y-127895152D02*
X136867046Y-127942771D01*
X136438475Y-128514200D02*
X136533713Y-128561819D01*
X136533713Y-128561819D02*
X136771808Y-128561819D01*
X136771808Y-128561819D02*
X136867046Y-128514200D01*
X136867046Y-128514200D02*
X136914665Y-128418961D01*
X136914665Y-128418961D02*
X136914665Y-128323723D01*
X136914665Y-128323723D02*
X136867046Y-128228485D01*
X136867046Y-128228485D02*
X136771808Y-128180866D01*
X136771808Y-128180866D02*
X136533713Y-128180866D01*
X136533713Y-128180866D02*
X136438475Y-128133247D01*
X136105141Y-127895152D02*
X135724189Y-127895152D01*
X135962284Y-127561819D02*
X135962284Y-128418961D01*
X135962284Y-128418961D02*
X135914665Y-128514200D01*
X135914665Y-128514200D02*
X135819427Y-128561819D01*
X135819427Y-128561819D02*
X135724189Y-128561819D01*
X134343236Y-128942771D02*
X134390855Y-128895152D01*
X134390855Y-128895152D02*
X134486093Y-128752295D01*
X134486093Y-128752295D02*
X134533712Y-128657057D01*
X134533712Y-128657057D02*
X134581331Y-128514200D01*
X134581331Y-128514200D02*
X134628950Y-128276104D01*
X134628950Y-128276104D02*
X134628950Y-128085628D01*
X134628950Y-128085628D02*
X134581331Y-127847533D01*
X134581331Y-127847533D02*
X134533712Y-127704676D01*
X134533712Y-127704676D02*
X134486093Y-127609438D01*
X134486093Y-127609438D02*
X134390855Y-127466580D01*
X134390855Y-127466580D02*
X134343236Y-127418961D01*
X134105140Y-127561819D02*
X133771807Y-128561819D01*
X133771807Y-128561819D02*
X133438474Y-127561819D01*
X133152759Y-127657057D02*
X133105140Y-127609438D01*
X133105140Y-127609438D02*
X133009902Y-127561819D01*
X133009902Y-127561819D02*
X132771807Y-127561819D01*
X132771807Y-127561819D02*
X132676569Y-127609438D01*
X132676569Y-127609438D02*
X132628950Y-127657057D01*
X132628950Y-127657057D02*
X132581331Y-127752295D01*
X132581331Y-127752295D02*
X132581331Y-127847533D01*
X132581331Y-127847533D02*
X132628950Y-127990390D01*
X132628950Y-127990390D02*
X133200378Y-128561819D01*
X133200378Y-128561819D02*
X132581331Y-128561819D01*
X132247997Y-128942771D02*
X132200378Y-128895152D01*
X132200378Y-128895152D02*
X132105140Y-128752295D01*
X132105140Y-128752295D02*
X132057521Y-128657057D01*
X132057521Y-128657057D02*
X132009902Y-128514200D01*
X132009902Y-128514200D02*
X131962283Y-128276104D01*
X131962283Y-128276104D02*
X131962283Y-128085628D01*
X131962283Y-128085628D02*
X132009902Y-127847533D01*
X132009902Y-127847533D02*
X132057521Y-127704676D01*
X132057521Y-127704676D02*
X132105140Y-127609438D01*
X132105140Y-127609438D02*
X132200378Y-127466580D01*
X132200378Y-127466580D02*
X132247997Y-127418961D01*
X148343238Y-130171819D02*
X148343238Y-129171819D01*
X148343238Y-129171819D02*
X148105143Y-129171819D01*
X148105143Y-129171819D02*
X147962286Y-129219438D01*
X147962286Y-129219438D02*
X147867048Y-129314676D01*
X147867048Y-129314676D02*
X147819429Y-129409914D01*
X147819429Y-129409914D02*
X147771810Y-129600390D01*
X147771810Y-129600390D02*
X147771810Y-129743247D01*
X147771810Y-129743247D02*
X147819429Y-129933723D01*
X147819429Y-129933723D02*
X147867048Y-130028961D01*
X147867048Y-130028961D02*
X147962286Y-130124200D01*
X147962286Y-130124200D02*
X148105143Y-130171819D01*
X148105143Y-130171819D02*
X148343238Y-130171819D01*
X146914667Y-130171819D02*
X146914667Y-129648009D01*
X146914667Y-129648009D02*
X146962286Y-129552771D01*
X146962286Y-129552771D02*
X147057524Y-129505152D01*
X147057524Y-129505152D02*
X147248000Y-129505152D01*
X147248000Y-129505152D02*
X147343238Y-129552771D01*
X146914667Y-130124200D02*
X147009905Y-130171819D01*
X147009905Y-130171819D02*
X147248000Y-130171819D01*
X147248000Y-130171819D02*
X147343238Y-130124200D01*
X147343238Y-130124200D02*
X147390857Y-130028961D01*
X147390857Y-130028961D02*
X147390857Y-129933723D01*
X147390857Y-129933723D02*
X147343238Y-129838485D01*
X147343238Y-129838485D02*
X147248000Y-129790866D01*
X147248000Y-129790866D02*
X147009905Y-129790866D01*
X147009905Y-129790866D02*
X146914667Y-129743247D01*
X146009905Y-129505152D02*
X146009905Y-130171819D01*
X146438476Y-129505152D02*
X146438476Y-130028961D01*
X146438476Y-130028961D02*
X146390857Y-130124200D01*
X146390857Y-130124200D02*
X146295619Y-130171819D01*
X146295619Y-130171819D02*
X146152762Y-130171819D01*
X146152762Y-130171819D02*
X146057524Y-130124200D01*
X146057524Y-130124200D02*
X146009905Y-130076580D01*
X145105143Y-129505152D02*
X145105143Y-130314676D01*
X145105143Y-130314676D02*
X145152762Y-130409914D01*
X145152762Y-130409914D02*
X145200381Y-130457533D01*
X145200381Y-130457533D02*
X145295619Y-130505152D01*
X145295619Y-130505152D02*
X145438476Y-130505152D01*
X145438476Y-130505152D02*
X145533714Y-130457533D01*
X145105143Y-130124200D02*
X145200381Y-130171819D01*
X145200381Y-130171819D02*
X145390857Y-130171819D01*
X145390857Y-130171819D02*
X145486095Y-130124200D01*
X145486095Y-130124200D02*
X145533714Y-130076580D01*
X145533714Y-130076580D02*
X145581333Y-129981342D01*
X145581333Y-129981342D02*
X145581333Y-129695628D01*
X145581333Y-129695628D02*
X145533714Y-129600390D01*
X145533714Y-129600390D02*
X145486095Y-129552771D01*
X145486095Y-129552771D02*
X145390857Y-129505152D01*
X145390857Y-129505152D02*
X145200381Y-129505152D01*
X145200381Y-129505152D02*
X145105143Y-129552771D01*
X144628952Y-130171819D02*
X144628952Y-129171819D01*
X144200381Y-130171819D02*
X144200381Y-129648009D01*
X144200381Y-129648009D02*
X144248000Y-129552771D01*
X144248000Y-129552771D02*
X144343238Y-129505152D01*
X144343238Y-129505152D02*
X144486095Y-129505152D01*
X144486095Y-129505152D02*
X144581333Y-129552771D01*
X144581333Y-129552771D02*
X144628952Y-129600390D01*
X143867047Y-129505152D02*
X143486095Y-129505152D01*
X143724190Y-129171819D02*
X143724190Y-130028961D01*
X143724190Y-130028961D02*
X143676571Y-130124200D01*
X143676571Y-130124200D02*
X143581333Y-130171819D01*
X143581333Y-130171819D02*
X143486095Y-130171819D01*
X142771809Y-130124200D02*
X142867047Y-130171819D01*
X142867047Y-130171819D02*
X143057523Y-130171819D01*
X143057523Y-130171819D02*
X143152761Y-130124200D01*
X143152761Y-130124200D02*
X143200380Y-130028961D01*
X143200380Y-130028961D02*
X143200380Y-129648009D01*
X143200380Y-129648009D02*
X143152761Y-129552771D01*
X143152761Y-129552771D02*
X143057523Y-129505152D01*
X143057523Y-129505152D02*
X142867047Y-129505152D01*
X142867047Y-129505152D02*
X142771809Y-129552771D01*
X142771809Y-129552771D02*
X142724190Y-129648009D01*
X142724190Y-129648009D02*
X142724190Y-129743247D01*
X142724190Y-129743247D02*
X143200380Y-129838485D01*
X142295618Y-130171819D02*
X142295618Y-129505152D01*
X142295618Y-129695628D02*
X142247999Y-129600390D01*
X142247999Y-129600390D02*
X142200380Y-129552771D01*
X142200380Y-129552771D02*
X142105142Y-129505152D01*
X142105142Y-129505152D02*
X142009904Y-129505152D01*
X140914665Y-130171819D02*
X140914665Y-129171819D01*
X140914665Y-129552771D02*
X140819427Y-129505152D01*
X140819427Y-129505152D02*
X140628951Y-129505152D01*
X140628951Y-129505152D02*
X140533713Y-129552771D01*
X140533713Y-129552771D02*
X140486094Y-129600390D01*
X140486094Y-129600390D02*
X140438475Y-129695628D01*
X140438475Y-129695628D02*
X140438475Y-129981342D01*
X140438475Y-129981342D02*
X140486094Y-130076580D01*
X140486094Y-130076580D02*
X140533713Y-130124200D01*
X140533713Y-130124200D02*
X140628951Y-130171819D01*
X140628951Y-130171819D02*
X140819427Y-130171819D01*
X140819427Y-130171819D02*
X140914665Y-130124200D01*
X139867046Y-130171819D02*
X139962284Y-130124200D01*
X139962284Y-130124200D02*
X140009903Y-130076580D01*
X140009903Y-130076580D02*
X140057522Y-129981342D01*
X140057522Y-129981342D02*
X140057522Y-129695628D01*
X140057522Y-129695628D02*
X140009903Y-129600390D01*
X140009903Y-129600390D02*
X139962284Y-129552771D01*
X139962284Y-129552771D02*
X139867046Y-129505152D01*
X139867046Y-129505152D02*
X139724189Y-129505152D01*
X139724189Y-129505152D02*
X139628951Y-129552771D01*
X139628951Y-129552771D02*
X139581332Y-129600390D01*
X139581332Y-129600390D02*
X139533713Y-129695628D01*
X139533713Y-129695628D02*
X139533713Y-129981342D01*
X139533713Y-129981342D02*
X139581332Y-130076580D01*
X139581332Y-130076580D02*
X139628951Y-130124200D01*
X139628951Y-130124200D02*
X139724189Y-130171819D01*
X139724189Y-130171819D02*
X139867046Y-130171819D01*
X138676570Y-130171819D02*
X138676570Y-129648009D01*
X138676570Y-129648009D02*
X138724189Y-129552771D01*
X138724189Y-129552771D02*
X138819427Y-129505152D01*
X138819427Y-129505152D02*
X139009903Y-129505152D01*
X139009903Y-129505152D02*
X139105141Y-129552771D01*
X138676570Y-130124200D02*
X138771808Y-130171819D01*
X138771808Y-130171819D02*
X139009903Y-130171819D01*
X139009903Y-130171819D02*
X139105141Y-130124200D01*
X139105141Y-130124200D02*
X139152760Y-130028961D01*
X139152760Y-130028961D02*
X139152760Y-129933723D01*
X139152760Y-129933723D02*
X139105141Y-129838485D01*
X139105141Y-129838485D02*
X139009903Y-129790866D01*
X139009903Y-129790866D02*
X138771808Y-129790866D01*
X138771808Y-129790866D02*
X138676570Y-129743247D01*
X138200379Y-130171819D02*
X138200379Y-129505152D01*
X138200379Y-129695628D02*
X138152760Y-129600390D01*
X138152760Y-129600390D02*
X138105141Y-129552771D01*
X138105141Y-129552771D02*
X138009903Y-129505152D01*
X138009903Y-129505152D02*
X137914665Y-129505152D01*
X137152760Y-130171819D02*
X137152760Y-129171819D01*
X137152760Y-130124200D02*
X137247998Y-130171819D01*
X137247998Y-130171819D02*
X137438474Y-130171819D01*
X137438474Y-130171819D02*
X137533712Y-130124200D01*
X137533712Y-130124200D02*
X137581331Y-130076580D01*
X137581331Y-130076580D02*
X137628950Y-129981342D01*
X137628950Y-129981342D02*
X137628950Y-129695628D01*
X137628950Y-129695628D02*
X137581331Y-129600390D01*
X137581331Y-129600390D02*
X137533712Y-129552771D01*
X137533712Y-129552771D02*
X137438474Y-129505152D01*
X137438474Y-129505152D02*
X137247998Y-129505152D01*
X137247998Y-129505152D02*
X137152760Y-129552771D01*
X88933819Y-78431713D02*
X87933819Y-78431713D01*
X87933819Y-78431713D02*
X87933819Y-78669808D01*
X87933819Y-78669808D02*
X87981438Y-78812665D01*
X87981438Y-78812665D02*
X88076676Y-78907903D01*
X88076676Y-78907903D02*
X88171914Y-78955522D01*
X88171914Y-78955522D02*
X88362390Y-79003141D01*
X88362390Y-79003141D02*
X88505247Y-79003141D01*
X88505247Y-79003141D02*
X88695723Y-78955522D01*
X88695723Y-78955522D02*
X88790961Y-78907903D01*
X88790961Y-78907903D02*
X88886200Y-78812665D01*
X88886200Y-78812665D02*
X88933819Y-78669808D01*
X88933819Y-78669808D02*
X88933819Y-78431713D01*
X88886200Y-79812665D02*
X88933819Y-79717427D01*
X88933819Y-79717427D02*
X88933819Y-79526951D01*
X88933819Y-79526951D02*
X88886200Y-79431713D01*
X88886200Y-79431713D02*
X88790961Y-79384094D01*
X88790961Y-79384094D02*
X88410009Y-79384094D01*
X88410009Y-79384094D02*
X88314771Y-79431713D01*
X88314771Y-79431713D02*
X88267152Y-79526951D01*
X88267152Y-79526951D02*
X88267152Y-79717427D01*
X88267152Y-79717427D02*
X88314771Y-79812665D01*
X88314771Y-79812665D02*
X88410009Y-79860284D01*
X88410009Y-79860284D02*
X88505247Y-79860284D01*
X88505247Y-79860284D02*
X88600485Y-79384094D01*
X88886200Y-80241237D02*
X88933819Y-80336475D01*
X88933819Y-80336475D02*
X88933819Y-80526951D01*
X88933819Y-80526951D02*
X88886200Y-80622189D01*
X88886200Y-80622189D02*
X88790961Y-80669808D01*
X88790961Y-80669808D02*
X88743342Y-80669808D01*
X88743342Y-80669808D02*
X88648104Y-80622189D01*
X88648104Y-80622189D02*
X88600485Y-80526951D01*
X88600485Y-80526951D02*
X88600485Y-80384094D01*
X88600485Y-80384094D02*
X88552866Y-80288856D01*
X88552866Y-80288856D02*
X88457628Y-80241237D01*
X88457628Y-80241237D02*
X88410009Y-80241237D01*
X88410009Y-80241237D02*
X88314771Y-80288856D01*
X88314771Y-80288856D02*
X88267152Y-80384094D01*
X88267152Y-80384094D02*
X88267152Y-80526951D01*
X88267152Y-80526951D02*
X88314771Y-80622189D01*
X88933819Y-81098380D02*
X88267152Y-81098380D01*
X87933819Y-81098380D02*
X87981438Y-81050761D01*
X87981438Y-81050761D02*
X88029057Y-81098380D01*
X88029057Y-81098380D02*
X87981438Y-81145999D01*
X87981438Y-81145999D02*
X87933819Y-81098380D01*
X87933819Y-81098380D02*
X88029057Y-81098380D01*
X88267152Y-82003141D02*
X89076676Y-82003141D01*
X89076676Y-82003141D02*
X89171914Y-81955522D01*
X89171914Y-81955522D02*
X89219533Y-81907903D01*
X89219533Y-81907903D02*
X89267152Y-81812665D01*
X89267152Y-81812665D02*
X89267152Y-81669808D01*
X89267152Y-81669808D02*
X89219533Y-81574570D01*
X88886200Y-82003141D02*
X88933819Y-81907903D01*
X88933819Y-81907903D02*
X88933819Y-81717427D01*
X88933819Y-81717427D02*
X88886200Y-81622189D01*
X88886200Y-81622189D02*
X88838580Y-81574570D01*
X88838580Y-81574570D02*
X88743342Y-81526951D01*
X88743342Y-81526951D02*
X88457628Y-81526951D01*
X88457628Y-81526951D02*
X88362390Y-81574570D01*
X88362390Y-81574570D02*
X88314771Y-81622189D01*
X88314771Y-81622189D02*
X88267152Y-81717427D01*
X88267152Y-81717427D02*
X88267152Y-81907903D01*
X88267152Y-81907903D02*
X88314771Y-82003141D01*
X88267152Y-82479332D02*
X88933819Y-82479332D01*
X88362390Y-82479332D02*
X88314771Y-82526951D01*
X88314771Y-82526951D02*
X88267152Y-82622189D01*
X88267152Y-82622189D02*
X88267152Y-82765046D01*
X88267152Y-82765046D02*
X88314771Y-82860284D01*
X88314771Y-82860284D02*
X88410009Y-82907903D01*
X88410009Y-82907903D02*
X88933819Y-82907903D01*
X88886200Y-83765046D02*
X88933819Y-83669808D01*
X88933819Y-83669808D02*
X88933819Y-83479332D01*
X88933819Y-83479332D02*
X88886200Y-83384094D01*
X88886200Y-83384094D02*
X88790961Y-83336475D01*
X88790961Y-83336475D02*
X88410009Y-83336475D01*
X88410009Y-83336475D02*
X88314771Y-83384094D01*
X88314771Y-83384094D02*
X88267152Y-83479332D01*
X88267152Y-83479332D02*
X88267152Y-83669808D01*
X88267152Y-83669808D02*
X88314771Y-83765046D01*
X88314771Y-83765046D02*
X88410009Y-83812665D01*
X88410009Y-83812665D02*
X88505247Y-83812665D01*
X88505247Y-83812665D02*
X88600485Y-83336475D01*
X88933819Y-84669808D02*
X87933819Y-84669808D01*
X88886200Y-84669808D02*
X88933819Y-84574570D01*
X88933819Y-84574570D02*
X88933819Y-84384094D01*
X88933819Y-84384094D02*
X88886200Y-84288856D01*
X88886200Y-84288856D02*
X88838580Y-84241237D01*
X88838580Y-84241237D02*
X88743342Y-84193618D01*
X88743342Y-84193618D02*
X88457628Y-84193618D01*
X88457628Y-84193618D02*
X88362390Y-84241237D01*
X88362390Y-84241237D02*
X88314771Y-84288856D01*
X88314771Y-84288856D02*
X88267152Y-84384094D01*
X88267152Y-84384094D02*
X88267152Y-84574570D01*
X88267152Y-84574570D02*
X88314771Y-84669808D01*
X88933819Y-85907904D02*
X87933819Y-85907904D01*
X88314771Y-85907904D02*
X88267152Y-86003142D01*
X88267152Y-86003142D02*
X88267152Y-86193618D01*
X88267152Y-86193618D02*
X88314771Y-86288856D01*
X88314771Y-86288856D02*
X88362390Y-86336475D01*
X88362390Y-86336475D02*
X88457628Y-86384094D01*
X88457628Y-86384094D02*
X88743342Y-86384094D01*
X88743342Y-86384094D02*
X88838580Y-86336475D01*
X88838580Y-86336475D02*
X88886200Y-86288856D01*
X88886200Y-86288856D02*
X88933819Y-86193618D01*
X88933819Y-86193618D02*
X88933819Y-86003142D01*
X88933819Y-86003142D02*
X88886200Y-85907904D01*
X88267152Y-86717428D02*
X88933819Y-86955523D01*
X88267152Y-87193618D02*
X88933819Y-86955523D01*
X88933819Y-86955523D02*
X89171914Y-86860285D01*
X89171914Y-86860285D02*
X89219533Y-86812666D01*
X89219533Y-86812666D02*
X89267152Y-86717428D01*
X88933819Y-88336476D02*
X87933819Y-88336476D01*
X88314771Y-88336476D02*
X88267152Y-88431714D01*
X88267152Y-88431714D02*
X88267152Y-88622190D01*
X88267152Y-88622190D02*
X88314771Y-88717428D01*
X88314771Y-88717428D02*
X88362390Y-88765047D01*
X88362390Y-88765047D02*
X88457628Y-88812666D01*
X88457628Y-88812666D02*
X88743342Y-88812666D01*
X88743342Y-88812666D02*
X88838580Y-88765047D01*
X88838580Y-88765047D02*
X88886200Y-88717428D01*
X88886200Y-88717428D02*
X88933819Y-88622190D01*
X88933819Y-88622190D02*
X88933819Y-88431714D01*
X88933819Y-88431714D02*
X88886200Y-88336476D01*
X88886200Y-89622190D02*
X88933819Y-89526952D01*
X88933819Y-89526952D02*
X88933819Y-89336476D01*
X88933819Y-89336476D02*
X88886200Y-89241238D01*
X88886200Y-89241238D02*
X88790961Y-89193619D01*
X88790961Y-89193619D02*
X88410009Y-89193619D01*
X88410009Y-89193619D02*
X88314771Y-89241238D01*
X88314771Y-89241238D02*
X88267152Y-89336476D01*
X88267152Y-89336476D02*
X88267152Y-89526952D01*
X88267152Y-89526952D02*
X88314771Y-89622190D01*
X88314771Y-89622190D02*
X88410009Y-89669809D01*
X88410009Y-89669809D02*
X88505247Y-89669809D01*
X88505247Y-89669809D02*
X88600485Y-89193619D01*
X88933819Y-90098381D02*
X87933819Y-90098381D01*
X88314771Y-90098381D02*
X88267152Y-90193619D01*
X88267152Y-90193619D02*
X88267152Y-90384095D01*
X88267152Y-90384095D02*
X88314771Y-90479333D01*
X88314771Y-90479333D02*
X88362390Y-90526952D01*
X88362390Y-90526952D02*
X88457628Y-90574571D01*
X88457628Y-90574571D02*
X88743342Y-90574571D01*
X88743342Y-90574571D02*
X88838580Y-90526952D01*
X88838580Y-90526952D02*
X88886200Y-90479333D01*
X88886200Y-90479333D02*
X88933819Y-90384095D01*
X88933819Y-90384095D02*
X88933819Y-90193619D01*
X88933819Y-90193619D02*
X88886200Y-90098381D01*
X88886200Y-91384095D02*
X88933819Y-91288857D01*
X88933819Y-91288857D02*
X88933819Y-91098381D01*
X88933819Y-91098381D02*
X88886200Y-91003143D01*
X88886200Y-91003143D02*
X88790961Y-90955524D01*
X88790961Y-90955524D02*
X88410009Y-90955524D01*
X88410009Y-90955524D02*
X88314771Y-91003143D01*
X88314771Y-91003143D02*
X88267152Y-91098381D01*
X88267152Y-91098381D02*
X88267152Y-91288857D01*
X88267152Y-91288857D02*
X88314771Y-91384095D01*
X88314771Y-91384095D02*
X88410009Y-91431714D01*
X88410009Y-91431714D02*
X88505247Y-91431714D01*
X88505247Y-91431714D02*
X88600485Y-90955524D01*
X88267152Y-91860286D02*
X88933819Y-91860286D01*
X88362390Y-91860286D02*
X88314771Y-91907905D01*
X88314771Y-91907905D02*
X88267152Y-92003143D01*
X88267152Y-92003143D02*
X88267152Y-92146000D01*
X88267152Y-92146000D02*
X88314771Y-92241238D01*
X88314771Y-92241238D02*
X88410009Y-92288857D01*
X88410009Y-92288857D02*
X88933819Y-92288857D01*
X88933819Y-92907905D02*
X88886200Y-92812667D01*
X88886200Y-92812667D02*
X88790961Y-92765048D01*
X88790961Y-92765048D02*
X87933819Y-92765048D01*
X88886200Y-93669810D02*
X88933819Y-93574572D01*
X88933819Y-93574572D02*
X88933819Y-93384096D01*
X88933819Y-93384096D02*
X88886200Y-93288858D01*
X88886200Y-93288858D02*
X88790961Y-93241239D01*
X88790961Y-93241239D02*
X88410009Y-93241239D01*
X88410009Y-93241239D02*
X88314771Y-93288858D01*
X88314771Y-93288858D02*
X88267152Y-93384096D01*
X88267152Y-93384096D02*
X88267152Y-93574572D01*
X88267152Y-93574572D02*
X88314771Y-93669810D01*
X88314771Y-93669810D02*
X88410009Y-93717429D01*
X88410009Y-93717429D02*
X88505247Y-93717429D01*
X88505247Y-93717429D02*
X88600485Y-93241239D01*
X88933819Y-94146001D02*
X87933819Y-94146001D01*
X88314771Y-94146001D02*
X88267152Y-94241239D01*
X88267152Y-94241239D02*
X88267152Y-94431715D01*
X88267152Y-94431715D02*
X88314771Y-94526953D01*
X88314771Y-94526953D02*
X88362390Y-94574572D01*
X88362390Y-94574572D02*
X88457628Y-94622191D01*
X88457628Y-94622191D02*
X88743342Y-94622191D01*
X88743342Y-94622191D02*
X88838580Y-94574572D01*
X88838580Y-94574572D02*
X88886200Y-94526953D01*
X88886200Y-94526953D02*
X88933819Y-94431715D01*
X88933819Y-94431715D02*
X88933819Y-94241239D01*
X88933819Y-94241239D02*
X88886200Y-94146001D01*
X88933819Y-95050763D02*
X88267152Y-95050763D01*
X88457628Y-95050763D02*
X88362390Y-95098382D01*
X88362390Y-95098382D02*
X88314771Y-95146001D01*
X88314771Y-95146001D02*
X88267152Y-95241239D01*
X88267152Y-95241239D02*
X88267152Y-95336477D01*
X88933819Y-95669811D02*
X88267152Y-95669811D01*
X87933819Y-95669811D02*
X87981438Y-95622192D01*
X87981438Y-95622192D02*
X88029057Y-95669811D01*
X88029057Y-95669811D02*
X87981438Y-95717430D01*
X87981438Y-95717430D02*
X87933819Y-95669811D01*
X87933819Y-95669811D02*
X88029057Y-95669811D01*
X88886200Y-96574572D02*
X88933819Y-96479334D01*
X88933819Y-96479334D02*
X88933819Y-96288858D01*
X88933819Y-96288858D02*
X88886200Y-96193620D01*
X88886200Y-96193620D02*
X88838580Y-96146001D01*
X88838580Y-96146001D02*
X88743342Y-96098382D01*
X88743342Y-96098382D02*
X88457628Y-96098382D01*
X88457628Y-96098382D02*
X88362390Y-96146001D01*
X88362390Y-96146001D02*
X88314771Y-96193620D01*
X88314771Y-96193620D02*
X88267152Y-96288858D01*
X88267152Y-96288858D02*
X88267152Y-96479334D01*
X88267152Y-96479334D02*
X88314771Y-96574572D01*
X88933819Y-97146001D02*
X88886200Y-97050763D01*
X88886200Y-97050763D02*
X88838580Y-97003144D01*
X88838580Y-97003144D02*
X88743342Y-96955525D01*
X88743342Y-96955525D02*
X88457628Y-96955525D01*
X88457628Y-96955525D02*
X88362390Y-97003144D01*
X88362390Y-97003144D02*
X88314771Y-97050763D01*
X88314771Y-97050763D02*
X88267152Y-97146001D01*
X88267152Y-97146001D02*
X88267152Y-97288858D01*
X88267152Y-97288858D02*
X88314771Y-97384096D01*
X88314771Y-97384096D02*
X88362390Y-97431715D01*
X88362390Y-97431715D02*
X88457628Y-97479334D01*
X88457628Y-97479334D02*
X88743342Y-97479334D01*
X88743342Y-97479334D02*
X88838580Y-97431715D01*
X88838580Y-97431715D02*
X88886200Y-97384096D01*
X88886200Y-97384096D02*
X88933819Y-97288858D01*
X88933819Y-97288858D02*
X88933819Y-97146001D01*
X88933819Y-98050763D02*
X88886200Y-97955525D01*
X88886200Y-97955525D02*
X88790961Y-97907906D01*
X88790961Y-97907906D02*
X87933819Y-97907906D01*
X88933819Y-98574573D02*
X88886200Y-98479335D01*
X88886200Y-98479335D02*
X88838580Y-98431716D01*
X88838580Y-98431716D02*
X88743342Y-98384097D01*
X88743342Y-98384097D02*
X88457628Y-98384097D01*
X88457628Y-98384097D02*
X88362390Y-98431716D01*
X88362390Y-98431716D02*
X88314771Y-98479335D01*
X88314771Y-98479335D02*
X88267152Y-98574573D01*
X88267152Y-98574573D02*
X88267152Y-98717430D01*
X88267152Y-98717430D02*
X88314771Y-98812668D01*
X88314771Y-98812668D02*
X88362390Y-98860287D01*
X88362390Y-98860287D02*
X88457628Y-98907906D01*
X88457628Y-98907906D02*
X88743342Y-98907906D01*
X88743342Y-98907906D02*
X88838580Y-98860287D01*
X88838580Y-98860287D02*
X88886200Y-98812668D01*
X88886200Y-98812668D02*
X88933819Y-98717430D01*
X88933819Y-98717430D02*
X88933819Y-98574573D01*
X90924771Y-82931712D02*
X90877152Y-82884093D01*
X90877152Y-82884093D02*
X90734295Y-82788855D01*
X90734295Y-82788855D02*
X90639057Y-82741236D01*
X90639057Y-82741236D02*
X90496200Y-82693617D01*
X90496200Y-82693617D02*
X90258104Y-82645998D01*
X90258104Y-82645998D02*
X90067628Y-82645998D01*
X90067628Y-82645998D02*
X89829533Y-82693617D01*
X89829533Y-82693617D02*
X89686676Y-82741236D01*
X89686676Y-82741236D02*
X89591438Y-82788855D01*
X89591438Y-82788855D02*
X89448580Y-82884093D01*
X89448580Y-82884093D02*
X89400961Y-82931712D01*
X90020009Y-83645998D02*
X90067628Y-83788855D01*
X90067628Y-83788855D02*
X90115247Y-83836474D01*
X90115247Y-83836474D02*
X90210485Y-83884093D01*
X90210485Y-83884093D02*
X90353342Y-83884093D01*
X90353342Y-83884093D02*
X90448580Y-83836474D01*
X90448580Y-83836474D02*
X90496200Y-83788855D01*
X90496200Y-83788855D02*
X90543819Y-83693617D01*
X90543819Y-83693617D02*
X90543819Y-83312665D01*
X90543819Y-83312665D02*
X89543819Y-83312665D01*
X89543819Y-83312665D02*
X89543819Y-83645998D01*
X89543819Y-83645998D02*
X89591438Y-83741236D01*
X89591438Y-83741236D02*
X89639057Y-83788855D01*
X89639057Y-83788855D02*
X89734295Y-83836474D01*
X89734295Y-83836474D02*
X89829533Y-83836474D01*
X89829533Y-83836474D02*
X89924771Y-83788855D01*
X89924771Y-83788855D02*
X89972390Y-83741236D01*
X89972390Y-83741236D02*
X90020009Y-83645998D01*
X90020009Y-83645998D02*
X90020009Y-83312665D01*
X90496200Y-84693617D02*
X90543819Y-84598379D01*
X90543819Y-84598379D02*
X90543819Y-84407903D01*
X90543819Y-84407903D02*
X90496200Y-84312665D01*
X90496200Y-84312665D02*
X90400961Y-84265046D01*
X90400961Y-84265046D02*
X90020009Y-84265046D01*
X90020009Y-84265046D02*
X89924771Y-84312665D01*
X89924771Y-84312665D02*
X89877152Y-84407903D01*
X89877152Y-84407903D02*
X89877152Y-84598379D01*
X89877152Y-84598379D02*
X89924771Y-84693617D01*
X89924771Y-84693617D02*
X90020009Y-84741236D01*
X90020009Y-84741236D02*
X90115247Y-84741236D01*
X90115247Y-84741236D02*
X90210485Y-84265046D01*
X89877152Y-85169808D02*
X90543819Y-85169808D01*
X89972390Y-85169808D02*
X89924771Y-85217427D01*
X89924771Y-85217427D02*
X89877152Y-85312665D01*
X89877152Y-85312665D02*
X89877152Y-85455522D01*
X89877152Y-85455522D02*
X89924771Y-85550760D01*
X89924771Y-85550760D02*
X90020009Y-85598379D01*
X90020009Y-85598379D02*
X90543819Y-85598379D01*
X90543819Y-86217427D02*
X90496200Y-86122189D01*
X90496200Y-86122189D02*
X90448580Y-86074570D01*
X90448580Y-86074570D02*
X90353342Y-86026951D01*
X90353342Y-86026951D02*
X90067628Y-86026951D01*
X90067628Y-86026951D02*
X89972390Y-86074570D01*
X89972390Y-86074570D02*
X89924771Y-86122189D01*
X89924771Y-86122189D02*
X89877152Y-86217427D01*
X89877152Y-86217427D02*
X89877152Y-86360284D01*
X89877152Y-86360284D02*
X89924771Y-86455522D01*
X89924771Y-86455522D02*
X89972390Y-86503141D01*
X89972390Y-86503141D02*
X90067628Y-86550760D01*
X90067628Y-86550760D02*
X90353342Y-86550760D01*
X90353342Y-86550760D02*
X90448580Y-86503141D01*
X90448580Y-86503141D02*
X90496200Y-86455522D01*
X90496200Y-86455522D02*
X90543819Y-86360284D01*
X90543819Y-86360284D02*
X90543819Y-86217427D01*
X89639057Y-86836475D02*
X89496200Y-87026951D01*
X89496200Y-87026951D02*
X89639057Y-87217427D01*
X90543819Y-87026951D02*
X89877152Y-87026951D01*
X89877152Y-87407904D02*
X89877152Y-87788856D01*
X89543819Y-87550761D02*
X90400961Y-87550761D01*
X90400961Y-87550761D02*
X90496200Y-87598380D01*
X90496200Y-87598380D02*
X90543819Y-87693618D01*
X90543819Y-87693618D02*
X90543819Y-87788856D01*
X89543819Y-88741238D02*
X89543819Y-89312666D01*
X90543819Y-89026952D02*
X89543819Y-89026952D01*
X90543819Y-90074571D02*
X90020009Y-90074571D01*
X90020009Y-90074571D02*
X89924771Y-90026952D01*
X89924771Y-90026952D02*
X89877152Y-89931714D01*
X89877152Y-89931714D02*
X89877152Y-89741238D01*
X89877152Y-89741238D02*
X89924771Y-89646000D01*
X90496200Y-90074571D02*
X90543819Y-89979333D01*
X90543819Y-89979333D02*
X90543819Y-89741238D01*
X90543819Y-89741238D02*
X90496200Y-89646000D01*
X90496200Y-89646000D02*
X90400961Y-89598381D01*
X90400961Y-89598381D02*
X90305723Y-89598381D01*
X90305723Y-89598381D02*
X90210485Y-89646000D01*
X90210485Y-89646000D02*
X90162866Y-89741238D01*
X90162866Y-89741238D02*
X90162866Y-89979333D01*
X90162866Y-89979333D02*
X90115247Y-90074571D01*
X90543819Y-90550762D02*
X89877152Y-90550762D01*
X90067628Y-90550762D02*
X89972390Y-90598381D01*
X89972390Y-90598381D02*
X89924771Y-90646000D01*
X89924771Y-90646000D02*
X89877152Y-90741238D01*
X89877152Y-90741238D02*
X89877152Y-90836476D01*
X90543819Y-91169810D02*
X89877152Y-91169810D01*
X90067628Y-91169810D02*
X89972390Y-91217429D01*
X89972390Y-91217429D02*
X89924771Y-91265048D01*
X89924771Y-91265048D02*
X89877152Y-91360286D01*
X89877152Y-91360286D02*
X89877152Y-91455524D01*
X90543819Y-92217429D02*
X90020009Y-92217429D01*
X90020009Y-92217429D02*
X89924771Y-92169810D01*
X89924771Y-92169810D02*
X89877152Y-92074572D01*
X89877152Y-92074572D02*
X89877152Y-91884096D01*
X89877152Y-91884096D02*
X89924771Y-91788858D01*
X90496200Y-92217429D02*
X90543819Y-92122191D01*
X90543819Y-92122191D02*
X90543819Y-91884096D01*
X90543819Y-91884096D02*
X90496200Y-91788858D01*
X90496200Y-91788858D02*
X90400961Y-91741239D01*
X90400961Y-91741239D02*
X90305723Y-91741239D01*
X90305723Y-91741239D02*
X90210485Y-91788858D01*
X90210485Y-91788858D02*
X90162866Y-91884096D01*
X90162866Y-91884096D02*
X90162866Y-92122191D01*
X90162866Y-92122191D02*
X90115247Y-92217429D01*
X90543819Y-93122191D02*
X89543819Y-93122191D01*
X90496200Y-93122191D02*
X90543819Y-93026953D01*
X90543819Y-93026953D02*
X90543819Y-92836477D01*
X90543819Y-92836477D02*
X90496200Y-92741239D01*
X90496200Y-92741239D02*
X90448580Y-92693620D01*
X90448580Y-92693620D02*
X90353342Y-92646001D01*
X90353342Y-92646001D02*
X90067628Y-92646001D01*
X90067628Y-92646001D02*
X89972390Y-92693620D01*
X89972390Y-92693620D02*
X89924771Y-92741239D01*
X89924771Y-92741239D02*
X89877152Y-92836477D01*
X89877152Y-92836477D02*
X89877152Y-93026953D01*
X89877152Y-93026953D02*
X89924771Y-93122191D01*
X90496200Y-93979334D02*
X90543819Y-93884096D01*
X90543819Y-93884096D02*
X90543819Y-93693620D01*
X90543819Y-93693620D02*
X90496200Y-93598382D01*
X90496200Y-93598382D02*
X90400961Y-93550763D01*
X90400961Y-93550763D02*
X90020009Y-93550763D01*
X90020009Y-93550763D02*
X89924771Y-93598382D01*
X89924771Y-93598382D02*
X89877152Y-93693620D01*
X89877152Y-93693620D02*
X89877152Y-93884096D01*
X89877152Y-93884096D02*
X89924771Y-93979334D01*
X89924771Y-93979334D02*
X90020009Y-94026953D01*
X90020009Y-94026953D02*
X90115247Y-94026953D01*
X90115247Y-94026953D02*
X90210485Y-93550763D01*
X90924771Y-94360287D02*
X90877152Y-94407906D01*
X90877152Y-94407906D02*
X90734295Y-94503144D01*
X90734295Y-94503144D02*
X90639057Y-94550763D01*
X90639057Y-94550763D02*
X90496200Y-94598382D01*
X90496200Y-94598382D02*
X90258104Y-94646001D01*
X90258104Y-94646001D02*
X90067628Y-94646001D01*
X90067628Y-94646001D02*
X89829533Y-94598382D01*
X89829533Y-94598382D02*
X89686676Y-94550763D01*
X89686676Y-94550763D02*
X89591438Y-94503144D01*
X89591438Y-94503144D02*
X89448580Y-94407906D01*
X89448580Y-94407906D02*
X89400961Y-94360287D01*
X91153819Y-78360285D02*
X91153819Y-78455523D01*
X91153819Y-78455523D02*
X91201438Y-78550761D01*
X91201438Y-78550761D02*
X91249057Y-78598380D01*
X91249057Y-78598380D02*
X91344295Y-78645999D01*
X91344295Y-78645999D02*
X91534771Y-78693618D01*
X91534771Y-78693618D02*
X91772866Y-78693618D01*
X91772866Y-78693618D02*
X91963342Y-78645999D01*
X91963342Y-78645999D02*
X92058580Y-78598380D01*
X92058580Y-78598380D02*
X92106200Y-78550761D01*
X92106200Y-78550761D02*
X92153819Y-78455523D01*
X92153819Y-78455523D02*
X92153819Y-78360285D01*
X92153819Y-78360285D02*
X92106200Y-78265047D01*
X92106200Y-78265047D02*
X92058580Y-78217428D01*
X92058580Y-78217428D02*
X91963342Y-78169809D01*
X91963342Y-78169809D02*
X91772866Y-78122190D01*
X91772866Y-78122190D02*
X91534771Y-78122190D01*
X91534771Y-78122190D02*
X91344295Y-78169809D01*
X91344295Y-78169809D02*
X91249057Y-78217428D01*
X91249057Y-78217428D02*
X91201438Y-78265047D01*
X91201438Y-78265047D02*
X91153819Y-78360285D01*
X91153819Y-79598380D02*
X91153819Y-79122190D01*
X91153819Y-79122190D02*
X91630009Y-79074571D01*
X91630009Y-79074571D02*
X91582390Y-79122190D01*
X91582390Y-79122190D02*
X91534771Y-79217428D01*
X91534771Y-79217428D02*
X91534771Y-79455523D01*
X91534771Y-79455523D02*
X91582390Y-79550761D01*
X91582390Y-79550761D02*
X91630009Y-79598380D01*
X91630009Y-79598380D02*
X91725247Y-79645999D01*
X91725247Y-79645999D02*
X91963342Y-79645999D01*
X91963342Y-79645999D02*
X92058580Y-79598380D01*
X92058580Y-79598380D02*
X92106200Y-79550761D01*
X92106200Y-79550761D02*
X92153819Y-79455523D01*
X92153819Y-79455523D02*
X92153819Y-79217428D01*
X92153819Y-79217428D02*
X92106200Y-79122190D01*
X92106200Y-79122190D02*
X92058580Y-79074571D01*
X91106200Y-80788856D02*
X92391914Y-79931714D01*
X91153819Y-81312666D02*
X91153819Y-81407904D01*
X91153819Y-81407904D02*
X91201438Y-81503142D01*
X91201438Y-81503142D02*
X91249057Y-81550761D01*
X91249057Y-81550761D02*
X91344295Y-81598380D01*
X91344295Y-81598380D02*
X91534771Y-81645999D01*
X91534771Y-81645999D02*
X91772866Y-81645999D01*
X91772866Y-81645999D02*
X91963342Y-81598380D01*
X91963342Y-81598380D02*
X92058580Y-81550761D01*
X92058580Y-81550761D02*
X92106200Y-81503142D01*
X92106200Y-81503142D02*
X92153819Y-81407904D01*
X92153819Y-81407904D02*
X92153819Y-81312666D01*
X92153819Y-81312666D02*
X92106200Y-81217428D01*
X92106200Y-81217428D02*
X92058580Y-81169809D01*
X92058580Y-81169809D02*
X91963342Y-81122190D01*
X91963342Y-81122190D02*
X91772866Y-81074571D01*
X91772866Y-81074571D02*
X91534771Y-81074571D01*
X91534771Y-81074571D02*
X91344295Y-81122190D01*
X91344295Y-81122190D02*
X91249057Y-81169809D01*
X91249057Y-81169809D02*
X91201438Y-81217428D01*
X91201438Y-81217428D02*
X91153819Y-81312666D01*
X91249057Y-82026952D02*
X91201438Y-82074571D01*
X91201438Y-82074571D02*
X91153819Y-82169809D01*
X91153819Y-82169809D02*
X91153819Y-82407904D01*
X91153819Y-82407904D02*
X91201438Y-82503142D01*
X91201438Y-82503142D02*
X91249057Y-82550761D01*
X91249057Y-82550761D02*
X91344295Y-82598380D01*
X91344295Y-82598380D02*
X91439533Y-82598380D01*
X91439533Y-82598380D02*
X91582390Y-82550761D01*
X91582390Y-82550761D02*
X92153819Y-81979333D01*
X92153819Y-81979333D02*
X92153819Y-82598380D01*
X91106200Y-83741237D02*
X92391914Y-82884095D01*
X91249057Y-84026952D02*
X91201438Y-84074571D01*
X91201438Y-84074571D02*
X91153819Y-84169809D01*
X91153819Y-84169809D02*
X91153819Y-84407904D01*
X91153819Y-84407904D02*
X91201438Y-84503142D01*
X91201438Y-84503142D02*
X91249057Y-84550761D01*
X91249057Y-84550761D02*
X91344295Y-84598380D01*
X91344295Y-84598380D02*
X91439533Y-84598380D01*
X91439533Y-84598380D02*
X91582390Y-84550761D01*
X91582390Y-84550761D02*
X92153819Y-83979333D01*
X92153819Y-83979333D02*
X92153819Y-84598380D01*
X91153819Y-85217428D02*
X91153819Y-85312666D01*
X91153819Y-85312666D02*
X91201438Y-85407904D01*
X91201438Y-85407904D02*
X91249057Y-85455523D01*
X91249057Y-85455523D02*
X91344295Y-85503142D01*
X91344295Y-85503142D02*
X91534771Y-85550761D01*
X91534771Y-85550761D02*
X91772866Y-85550761D01*
X91772866Y-85550761D02*
X91963342Y-85503142D01*
X91963342Y-85503142D02*
X92058580Y-85455523D01*
X92058580Y-85455523D02*
X92106200Y-85407904D01*
X92106200Y-85407904D02*
X92153819Y-85312666D01*
X92153819Y-85312666D02*
X92153819Y-85217428D01*
X92153819Y-85217428D02*
X92106200Y-85122190D01*
X92106200Y-85122190D02*
X92058580Y-85074571D01*
X92058580Y-85074571D02*
X91963342Y-85026952D01*
X91963342Y-85026952D02*
X91772866Y-84979333D01*
X91772866Y-84979333D02*
X91534771Y-84979333D01*
X91534771Y-84979333D02*
X91344295Y-85026952D01*
X91344295Y-85026952D02*
X91249057Y-85074571D01*
X91249057Y-85074571D02*
X91201438Y-85122190D01*
X91201438Y-85122190D02*
X91153819Y-85217428D01*
X91249057Y-85931714D02*
X91201438Y-85979333D01*
X91201438Y-85979333D02*
X91153819Y-86074571D01*
X91153819Y-86074571D02*
X91153819Y-86312666D01*
X91153819Y-86312666D02*
X91201438Y-86407904D01*
X91201438Y-86407904D02*
X91249057Y-86455523D01*
X91249057Y-86455523D02*
X91344295Y-86503142D01*
X91344295Y-86503142D02*
X91439533Y-86503142D01*
X91439533Y-86503142D02*
X91582390Y-86455523D01*
X91582390Y-86455523D02*
X92153819Y-85884095D01*
X92153819Y-85884095D02*
X92153819Y-86503142D01*
X91487152Y-87360285D02*
X92153819Y-87360285D01*
X91106200Y-87122190D02*
X91820485Y-86884095D01*
X91820485Y-86884095D02*
X91820485Y-87503142D01*
X92534771Y-88931714D02*
X92487152Y-88884095D01*
X92487152Y-88884095D02*
X92344295Y-88788857D01*
X92344295Y-88788857D02*
X92249057Y-88741238D01*
X92249057Y-88741238D02*
X92106200Y-88693619D01*
X92106200Y-88693619D02*
X91868104Y-88646000D01*
X91868104Y-88646000D02*
X91677628Y-88646000D01*
X91677628Y-88646000D02*
X91439533Y-88693619D01*
X91439533Y-88693619D02*
X91296676Y-88741238D01*
X91296676Y-88741238D02*
X91201438Y-88788857D01*
X91201438Y-88788857D02*
X91058580Y-88884095D01*
X91058580Y-88884095D02*
X91010961Y-88931714D01*
X92153819Y-89741238D02*
X91153819Y-89741238D01*
X92106200Y-89741238D02*
X92153819Y-89646000D01*
X92153819Y-89646000D02*
X92153819Y-89455524D01*
X92153819Y-89455524D02*
X92106200Y-89360286D01*
X92106200Y-89360286D02*
X92058580Y-89312667D01*
X92058580Y-89312667D02*
X91963342Y-89265048D01*
X91963342Y-89265048D02*
X91677628Y-89265048D01*
X91677628Y-89265048D02*
X91582390Y-89312667D01*
X91582390Y-89312667D02*
X91534771Y-89360286D01*
X91534771Y-89360286D02*
X91487152Y-89455524D01*
X91487152Y-89455524D02*
X91487152Y-89646000D01*
X91487152Y-89646000D02*
X91534771Y-89741238D01*
X92153819Y-90646000D02*
X91153819Y-90646000D01*
X92106200Y-90646000D02*
X92153819Y-90550762D01*
X92153819Y-90550762D02*
X92153819Y-90360286D01*
X92153819Y-90360286D02*
X92106200Y-90265048D01*
X92106200Y-90265048D02*
X92058580Y-90217429D01*
X92058580Y-90217429D02*
X91963342Y-90169810D01*
X91963342Y-90169810D02*
X91677628Y-90169810D01*
X91677628Y-90169810D02*
X91582390Y-90217429D01*
X91582390Y-90217429D02*
X91534771Y-90265048D01*
X91534771Y-90265048D02*
X91487152Y-90360286D01*
X91487152Y-90360286D02*
X91487152Y-90550762D01*
X91487152Y-90550762D02*
X91534771Y-90646000D01*
X91106200Y-91836476D02*
X92391914Y-90979334D01*
X92153819Y-92169810D02*
X91487152Y-92169810D01*
X91582390Y-92169810D02*
X91534771Y-92217429D01*
X91534771Y-92217429D02*
X91487152Y-92312667D01*
X91487152Y-92312667D02*
X91487152Y-92455524D01*
X91487152Y-92455524D02*
X91534771Y-92550762D01*
X91534771Y-92550762D02*
X91630009Y-92598381D01*
X91630009Y-92598381D02*
X92153819Y-92598381D01*
X91630009Y-92598381D02*
X91534771Y-92646000D01*
X91534771Y-92646000D02*
X91487152Y-92741238D01*
X91487152Y-92741238D02*
X91487152Y-92884095D01*
X91487152Y-92884095D02*
X91534771Y-92979334D01*
X91534771Y-92979334D02*
X91630009Y-93026953D01*
X91630009Y-93026953D02*
X92153819Y-93026953D01*
X92153819Y-93503143D02*
X91487152Y-93503143D01*
X91582390Y-93503143D02*
X91534771Y-93550762D01*
X91534771Y-93550762D02*
X91487152Y-93646000D01*
X91487152Y-93646000D02*
X91487152Y-93788857D01*
X91487152Y-93788857D02*
X91534771Y-93884095D01*
X91534771Y-93884095D02*
X91630009Y-93931714D01*
X91630009Y-93931714D02*
X92153819Y-93931714D01*
X91630009Y-93931714D02*
X91534771Y-93979333D01*
X91534771Y-93979333D02*
X91487152Y-94074571D01*
X91487152Y-94074571D02*
X91487152Y-94217428D01*
X91487152Y-94217428D02*
X91534771Y-94312667D01*
X91534771Y-94312667D02*
X91630009Y-94360286D01*
X91630009Y-94360286D02*
X92153819Y-94360286D01*
X91106200Y-95550761D02*
X92391914Y-94693619D01*
X91487152Y-95788857D02*
X92153819Y-96026952D01*
X91487152Y-96265047D02*
X92153819Y-96026952D01*
X92153819Y-96026952D02*
X92391914Y-95931714D01*
X92391914Y-95931714D02*
X92439533Y-95884095D01*
X92439533Y-95884095D02*
X92487152Y-95788857D01*
X91487152Y-96550762D02*
X92153819Y-96788857D01*
X91487152Y-97026952D02*
X92153819Y-96788857D01*
X92153819Y-96788857D02*
X92391914Y-96693619D01*
X92391914Y-96693619D02*
X92439533Y-96646000D01*
X92439533Y-96646000D02*
X92487152Y-96550762D01*
X91487152Y-97312667D02*
X92153819Y-97550762D01*
X91487152Y-97788857D02*
X92153819Y-97550762D01*
X92153819Y-97550762D02*
X92391914Y-97455524D01*
X92391914Y-97455524D02*
X92439533Y-97407905D01*
X92439533Y-97407905D02*
X92487152Y-97312667D01*
X91487152Y-98074572D02*
X92153819Y-98312667D01*
X91487152Y-98550762D02*
X92153819Y-98312667D01*
X92153819Y-98312667D02*
X92391914Y-98217429D01*
X92391914Y-98217429D02*
X92439533Y-98169810D01*
X92439533Y-98169810D02*
X92487152Y-98074572D01*
X92534771Y-98836477D02*
X92487152Y-98884096D01*
X92487152Y-98884096D02*
X92344295Y-98979334D01*
X92344295Y-98979334D02*
X92249057Y-99026953D01*
X92249057Y-99026953D02*
X92106200Y-99074572D01*
X92106200Y-99074572D02*
X91868104Y-99122191D01*
X91868104Y-99122191D02*
X91677628Y-99122191D01*
X91677628Y-99122191D02*
X91439533Y-99074572D01*
X91439533Y-99074572D02*
X91296676Y-99026953D01*
X91296676Y-99026953D02*
X91201438Y-98979334D01*
X91201438Y-98979334D02*
X91058580Y-98884096D01*
X91058580Y-98884096D02*
X91010961Y-98836477D01*
X95373819Y-66741236D02*
X94373819Y-66741236D01*
X95373819Y-67169807D02*
X94850009Y-67169807D01*
X94850009Y-67169807D02*
X94754771Y-67122188D01*
X94754771Y-67122188D02*
X94707152Y-67026950D01*
X94707152Y-67026950D02*
X94707152Y-66884093D01*
X94707152Y-66884093D02*
X94754771Y-66788855D01*
X94754771Y-66788855D02*
X94802390Y-66741236D01*
X94707152Y-67503141D02*
X94707152Y-67884093D01*
X94373819Y-67645998D02*
X95230961Y-67645998D01*
X95230961Y-67645998D02*
X95326200Y-67693617D01*
X95326200Y-67693617D02*
X95373819Y-67788855D01*
X95373819Y-67788855D02*
X95373819Y-67884093D01*
X94707152Y-68074570D02*
X94707152Y-68455522D01*
X94373819Y-68217427D02*
X95230961Y-68217427D01*
X95230961Y-68217427D02*
X95326200Y-68265046D01*
X95326200Y-68265046D02*
X95373819Y-68360284D01*
X95373819Y-68360284D02*
X95373819Y-68455522D01*
X94707152Y-68788856D02*
X95707152Y-68788856D01*
X94754771Y-68788856D02*
X94707152Y-68884094D01*
X94707152Y-68884094D02*
X94707152Y-69074570D01*
X94707152Y-69074570D02*
X94754771Y-69169808D01*
X94754771Y-69169808D02*
X94802390Y-69217427D01*
X94802390Y-69217427D02*
X94897628Y-69265046D01*
X94897628Y-69265046D02*
X95183342Y-69265046D01*
X95183342Y-69265046D02*
X95278580Y-69217427D01*
X95278580Y-69217427D02*
X95326200Y-69169808D01*
X95326200Y-69169808D02*
X95373819Y-69074570D01*
X95373819Y-69074570D02*
X95373819Y-68884094D01*
X95373819Y-68884094D02*
X95326200Y-68788856D01*
X95326200Y-69645999D02*
X95373819Y-69741237D01*
X95373819Y-69741237D02*
X95373819Y-69931713D01*
X95373819Y-69931713D02*
X95326200Y-70026951D01*
X95326200Y-70026951D02*
X95230961Y-70074570D01*
X95230961Y-70074570D02*
X95183342Y-70074570D01*
X95183342Y-70074570D02*
X95088104Y-70026951D01*
X95088104Y-70026951D02*
X95040485Y-69931713D01*
X95040485Y-69931713D02*
X95040485Y-69788856D01*
X95040485Y-69788856D02*
X94992866Y-69693618D01*
X94992866Y-69693618D02*
X94897628Y-69645999D01*
X94897628Y-69645999D02*
X94850009Y-69645999D01*
X94850009Y-69645999D02*
X94754771Y-69693618D01*
X94754771Y-69693618D02*
X94707152Y-69788856D01*
X94707152Y-69788856D02*
X94707152Y-69931713D01*
X94707152Y-69931713D02*
X94754771Y-70026951D01*
X95278580Y-70503142D02*
X95326200Y-70550761D01*
X95326200Y-70550761D02*
X95373819Y-70503142D01*
X95373819Y-70503142D02*
X95326200Y-70455523D01*
X95326200Y-70455523D02*
X95278580Y-70503142D01*
X95278580Y-70503142D02*
X95373819Y-70503142D01*
X94754771Y-70503142D02*
X94802390Y-70550761D01*
X94802390Y-70550761D02*
X94850009Y-70503142D01*
X94850009Y-70503142D02*
X94802390Y-70455523D01*
X94802390Y-70455523D02*
X94754771Y-70503142D01*
X94754771Y-70503142D02*
X94850009Y-70503142D01*
X94326200Y-71693617D02*
X95611914Y-70836475D01*
X94326200Y-72741236D02*
X95611914Y-71884094D01*
X94707152Y-73503141D02*
X95516676Y-73503141D01*
X95516676Y-73503141D02*
X95611914Y-73455522D01*
X95611914Y-73455522D02*
X95659533Y-73407903D01*
X95659533Y-73407903D02*
X95707152Y-73312665D01*
X95707152Y-73312665D02*
X95707152Y-73169808D01*
X95707152Y-73169808D02*
X95659533Y-73074570D01*
X95326200Y-73503141D02*
X95373819Y-73407903D01*
X95373819Y-73407903D02*
X95373819Y-73217427D01*
X95373819Y-73217427D02*
X95326200Y-73122189D01*
X95326200Y-73122189D02*
X95278580Y-73074570D01*
X95278580Y-73074570D02*
X95183342Y-73026951D01*
X95183342Y-73026951D02*
X94897628Y-73026951D01*
X94897628Y-73026951D02*
X94802390Y-73074570D01*
X94802390Y-73074570D02*
X94754771Y-73122189D01*
X94754771Y-73122189D02*
X94707152Y-73217427D01*
X94707152Y-73217427D02*
X94707152Y-73407903D01*
X94707152Y-73407903D02*
X94754771Y-73503141D01*
X95373819Y-73979332D02*
X94707152Y-73979332D01*
X94373819Y-73979332D02*
X94421438Y-73931713D01*
X94421438Y-73931713D02*
X94469057Y-73979332D01*
X94469057Y-73979332D02*
X94421438Y-74026951D01*
X94421438Y-74026951D02*
X94373819Y-73979332D01*
X94373819Y-73979332D02*
X94469057Y-73979332D01*
X94707152Y-74312665D02*
X94707152Y-74693617D01*
X94373819Y-74455522D02*
X95230961Y-74455522D01*
X95230961Y-74455522D02*
X95326200Y-74503141D01*
X95326200Y-74503141D02*
X95373819Y-74598379D01*
X95373819Y-74598379D02*
X95373819Y-74693617D01*
X95373819Y-75026951D02*
X94373819Y-75026951D01*
X95373819Y-75455522D02*
X94850009Y-75455522D01*
X94850009Y-75455522D02*
X94754771Y-75407903D01*
X94754771Y-75407903D02*
X94707152Y-75312665D01*
X94707152Y-75312665D02*
X94707152Y-75169808D01*
X94707152Y-75169808D02*
X94754771Y-75074570D01*
X94754771Y-75074570D02*
X94802390Y-75026951D01*
X94707152Y-76360284D02*
X95373819Y-76360284D01*
X94707152Y-75931713D02*
X95230961Y-75931713D01*
X95230961Y-75931713D02*
X95326200Y-75979332D01*
X95326200Y-75979332D02*
X95373819Y-76074570D01*
X95373819Y-76074570D02*
X95373819Y-76217427D01*
X95373819Y-76217427D02*
X95326200Y-76312665D01*
X95326200Y-76312665D02*
X95278580Y-76360284D01*
X95373819Y-76836475D02*
X94373819Y-76836475D01*
X94754771Y-76836475D02*
X94707152Y-76931713D01*
X94707152Y-76931713D02*
X94707152Y-77122189D01*
X94707152Y-77122189D02*
X94754771Y-77217427D01*
X94754771Y-77217427D02*
X94802390Y-77265046D01*
X94802390Y-77265046D02*
X94897628Y-77312665D01*
X94897628Y-77312665D02*
X95183342Y-77312665D01*
X95183342Y-77312665D02*
X95278580Y-77265046D01*
X95278580Y-77265046D02*
X95326200Y-77217427D01*
X95326200Y-77217427D02*
X95373819Y-77122189D01*
X95373819Y-77122189D02*
X95373819Y-76931713D01*
X95373819Y-76931713D02*
X95326200Y-76836475D01*
X95278580Y-77741237D02*
X95326200Y-77788856D01*
X95326200Y-77788856D02*
X95373819Y-77741237D01*
X95373819Y-77741237D02*
X95326200Y-77693618D01*
X95326200Y-77693618D02*
X95278580Y-77741237D01*
X95278580Y-77741237D02*
X95373819Y-77741237D01*
X95326200Y-78645998D02*
X95373819Y-78550760D01*
X95373819Y-78550760D02*
X95373819Y-78360284D01*
X95373819Y-78360284D02*
X95326200Y-78265046D01*
X95326200Y-78265046D02*
X95278580Y-78217427D01*
X95278580Y-78217427D02*
X95183342Y-78169808D01*
X95183342Y-78169808D02*
X94897628Y-78169808D01*
X94897628Y-78169808D02*
X94802390Y-78217427D01*
X94802390Y-78217427D02*
X94754771Y-78265046D01*
X94754771Y-78265046D02*
X94707152Y-78360284D01*
X94707152Y-78360284D02*
X94707152Y-78550760D01*
X94707152Y-78550760D02*
X94754771Y-78645998D01*
X95373819Y-79217427D02*
X95326200Y-79122189D01*
X95326200Y-79122189D02*
X95278580Y-79074570D01*
X95278580Y-79074570D02*
X95183342Y-79026951D01*
X95183342Y-79026951D02*
X94897628Y-79026951D01*
X94897628Y-79026951D02*
X94802390Y-79074570D01*
X94802390Y-79074570D02*
X94754771Y-79122189D01*
X94754771Y-79122189D02*
X94707152Y-79217427D01*
X94707152Y-79217427D02*
X94707152Y-79360284D01*
X94707152Y-79360284D02*
X94754771Y-79455522D01*
X94754771Y-79455522D02*
X94802390Y-79503141D01*
X94802390Y-79503141D02*
X94897628Y-79550760D01*
X94897628Y-79550760D02*
X95183342Y-79550760D01*
X95183342Y-79550760D02*
X95278580Y-79503141D01*
X95278580Y-79503141D02*
X95326200Y-79455522D01*
X95326200Y-79455522D02*
X95373819Y-79360284D01*
X95373819Y-79360284D02*
X95373819Y-79217427D01*
X95373819Y-79979332D02*
X94707152Y-79979332D01*
X94802390Y-79979332D02*
X94754771Y-80026951D01*
X94754771Y-80026951D02*
X94707152Y-80122189D01*
X94707152Y-80122189D02*
X94707152Y-80265046D01*
X94707152Y-80265046D02*
X94754771Y-80360284D01*
X94754771Y-80360284D02*
X94850009Y-80407903D01*
X94850009Y-80407903D02*
X95373819Y-80407903D01*
X94850009Y-80407903D02*
X94754771Y-80455522D01*
X94754771Y-80455522D02*
X94707152Y-80550760D01*
X94707152Y-80550760D02*
X94707152Y-80693617D01*
X94707152Y-80693617D02*
X94754771Y-80788856D01*
X94754771Y-80788856D02*
X94850009Y-80836475D01*
X94850009Y-80836475D02*
X95373819Y-80836475D01*
X94326200Y-82026950D02*
X95611914Y-81169808D01*
X95373819Y-82360284D02*
X94373819Y-82360284D01*
X94754771Y-82360284D02*
X94707152Y-82455522D01*
X94707152Y-82455522D02*
X94707152Y-82645998D01*
X94707152Y-82645998D02*
X94754771Y-82741236D01*
X94754771Y-82741236D02*
X94802390Y-82788855D01*
X94802390Y-82788855D02*
X94897628Y-82836474D01*
X94897628Y-82836474D02*
X95183342Y-82836474D01*
X95183342Y-82836474D02*
X95278580Y-82788855D01*
X95278580Y-82788855D02*
X95326200Y-82741236D01*
X95326200Y-82741236D02*
X95373819Y-82645998D01*
X95373819Y-82645998D02*
X95373819Y-82455522D01*
X95373819Y-82455522D02*
X95326200Y-82360284D01*
X95326200Y-83645998D02*
X95373819Y-83550760D01*
X95373819Y-83550760D02*
X95373819Y-83360284D01*
X95373819Y-83360284D02*
X95326200Y-83265046D01*
X95326200Y-83265046D02*
X95230961Y-83217427D01*
X95230961Y-83217427D02*
X94850009Y-83217427D01*
X94850009Y-83217427D02*
X94754771Y-83265046D01*
X94754771Y-83265046D02*
X94707152Y-83360284D01*
X94707152Y-83360284D02*
X94707152Y-83550760D01*
X94707152Y-83550760D02*
X94754771Y-83645998D01*
X94754771Y-83645998D02*
X94850009Y-83693617D01*
X94850009Y-83693617D02*
X94945247Y-83693617D01*
X94945247Y-83693617D02*
X95040485Y-83217427D01*
X95373819Y-84122189D02*
X94373819Y-84122189D01*
X94754771Y-84122189D02*
X94707152Y-84217427D01*
X94707152Y-84217427D02*
X94707152Y-84407903D01*
X94707152Y-84407903D02*
X94754771Y-84503141D01*
X94754771Y-84503141D02*
X94802390Y-84550760D01*
X94802390Y-84550760D02*
X94897628Y-84598379D01*
X94897628Y-84598379D02*
X95183342Y-84598379D01*
X95183342Y-84598379D02*
X95278580Y-84550760D01*
X95278580Y-84550760D02*
X95326200Y-84503141D01*
X95326200Y-84503141D02*
X95373819Y-84407903D01*
X95373819Y-84407903D02*
X95373819Y-84217427D01*
X95373819Y-84217427D02*
X95326200Y-84122189D01*
X95326200Y-85407903D02*
X95373819Y-85312665D01*
X95373819Y-85312665D02*
X95373819Y-85122189D01*
X95373819Y-85122189D02*
X95326200Y-85026951D01*
X95326200Y-85026951D02*
X95230961Y-84979332D01*
X95230961Y-84979332D02*
X94850009Y-84979332D01*
X94850009Y-84979332D02*
X94754771Y-85026951D01*
X94754771Y-85026951D02*
X94707152Y-85122189D01*
X94707152Y-85122189D02*
X94707152Y-85312665D01*
X94707152Y-85312665D02*
X94754771Y-85407903D01*
X94754771Y-85407903D02*
X94850009Y-85455522D01*
X94850009Y-85455522D02*
X94945247Y-85455522D01*
X94945247Y-85455522D02*
X95040485Y-84979332D01*
X94707152Y-85884094D02*
X95373819Y-85884094D01*
X94802390Y-85884094D02*
X94754771Y-85931713D01*
X94754771Y-85931713D02*
X94707152Y-86026951D01*
X94707152Y-86026951D02*
X94707152Y-86169808D01*
X94707152Y-86169808D02*
X94754771Y-86265046D01*
X94754771Y-86265046D02*
X94850009Y-86312665D01*
X94850009Y-86312665D02*
X95373819Y-86312665D01*
X95373819Y-86931713D02*
X95326200Y-86836475D01*
X95326200Y-86836475D02*
X95230961Y-86788856D01*
X95230961Y-86788856D02*
X94373819Y-86788856D01*
X95326200Y-87693618D02*
X95373819Y-87598380D01*
X95373819Y-87598380D02*
X95373819Y-87407904D01*
X95373819Y-87407904D02*
X95326200Y-87312666D01*
X95326200Y-87312666D02*
X95230961Y-87265047D01*
X95230961Y-87265047D02*
X94850009Y-87265047D01*
X94850009Y-87265047D02*
X94754771Y-87312666D01*
X94754771Y-87312666D02*
X94707152Y-87407904D01*
X94707152Y-87407904D02*
X94707152Y-87598380D01*
X94707152Y-87598380D02*
X94754771Y-87693618D01*
X94754771Y-87693618D02*
X94850009Y-87741237D01*
X94850009Y-87741237D02*
X94945247Y-87741237D01*
X94945247Y-87741237D02*
X95040485Y-87265047D01*
X95373819Y-88169809D02*
X94373819Y-88169809D01*
X94754771Y-88169809D02*
X94707152Y-88265047D01*
X94707152Y-88265047D02*
X94707152Y-88455523D01*
X94707152Y-88455523D02*
X94754771Y-88550761D01*
X94754771Y-88550761D02*
X94802390Y-88598380D01*
X94802390Y-88598380D02*
X94897628Y-88645999D01*
X94897628Y-88645999D02*
X95183342Y-88645999D01*
X95183342Y-88645999D02*
X95278580Y-88598380D01*
X95278580Y-88598380D02*
X95326200Y-88550761D01*
X95326200Y-88550761D02*
X95373819Y-88455523D01*
X95373819Y-88455523D02*
X95373819Y-88265047D01*
X95373819Y-88265047D02*
X95326200Y-88169809D01*
X95373819Y-89074571D02*
X94707152Y-89074571D01*
X94897628Y-89074571D02*
X94802390Y-89122190D01*
X94802390Y-89122190D02*
X94754771Y-89169809D01*
X94754771Y-89169809D02*
X94707152Y-89265047D01*
X94707152Y-89265047D02*
X94707152Y-89360285D01*
X95373819Y-89693619D02*
X94707152Y-89693619D01*
X94373819Y-89693619D02*
X94421438Y-89646000D01*
X94421438Y-89646000D02*
X94469057Y-89693619D01*
X94469057Y-89693619D02*
X94421438Y-89741238D01*
X94421438Y-89741238D02*
X94373819Y-89693619D01*
X94373819Y-89693619D02*
X94469057Y-89693619D01*
X95326200Y-90598380D02*
X95373819Y-90503142D01*
X95373819Y-90503142D02*
X95373819Y-90312666D01*
X95373819Y-90312666D02*
X95326200Y-90217428D01*
X95326200Y-90217428D02*
X95278580Y-90169809D01*
X95278580Y-90169809D02*
X95183342Y-90122190D01*
X95183342Y-90122190D02*
X94897628Y-90122190D01*
X94897628Y-90122190D02*
X94802390Y-90169809D01*
X94802390Y-90169809D02*
X94754771Y-90217428D01*
X94754771Y-90217428D02*
X94707152Y-90312666D01*
X94707152Y-90312666D02*
X94707152Y-90503142D01*
X94707152Y-90503142D02*
X94754771Y-90598380D01*
X95373819Y-91169809D02*
X95326200Y-91074571D01*
X95326200Y-91074571D02*
X95278580Y-91026952D01*
X95278580Y-91026952D02*
X95183342Y-90979333D01*
X95183342Y-90979333D02*
X94897628Y-90979333D01*
X94897628Y-90979333D02*
X94802390Y-91026952D01*
X94802390Y-91026952D02*
X94754771Y-91074571D01*
X94754771Y-91074571D02*
X94707152Y-91169809D01*
X94707152Y-91169809D02*
X94707152Y-91312666D01*
X94707152Y-91312666D02*
X94754771Y-91407904D01*
X94754771Y-91407904D02*
X94802390Y-91455523D01*
X94802390Y-91455523D02*
X94897628Y-91503142D01*
X94897628Y-91503142D02*
X95183342Y-91503142D01*
X95183342Y-91503142D02*
X95278580Y-91455523D01*
X95278580Y-91455523D02*
X95326200Y-91407904D01*
X95326200Y-91407904D02*
X95373819Y-91312666D01*
X95373819Y-91312666D02*
X95373819Y-91169809D01*
X95373819Y-92074571D02*
X95326200Y-91979333D01*
X95326200Y-91979333D02*
X95230961Y-91931714D01*
X95230961Y-91931714D02*
X94373819Y-91931714D01*
X95373819Y-92598381D02*
X95326200Y-92503143D01*
X95326200Y-92503143D02*
X95278580Y-92455524D01*
X95278580Y-92455524D02*
X95183342Y-92407905D01*
X95183342Y-92407905D02*
X94897628Y-92407905D01*
X94897628Y-92407905D02*
X94802390Y-92455524D01*
X94802390Y-92455524D02*
X94754771Y-92503143D01*
X94754771Y-92503143D02*
X94707152Y-92598381D01*
X94707152Y-92598381D02*
X94707152Y-92741238D01*
X94707152Y-92741238D02*
X94754771Y-92836476D01*
X94754771Y-92836476D02*
X94802390Y-92884095D01*
X94802390Y-92884095D02*
X94897628Y-92931714D01*
X94897628Y-92931714D02*
X95183342Y-92931714D01*
X95183342Y-92931714D02*
X95278580Y-92884095D01*
X95278580Y-92884095D02*
X95326200Y-92836476D01*
X95326200Y-92836476D02*
X95373819Y-92741238D01*
X95373819Y-92741238D02*
X95373819Y-92598381D01*
X94326200Y-94074571D02*
X95611914Y-93217429D01*
X95373819Y-94407905D02*
X94373819Y-94407905D01*
X94373819Y-94407905D02*
X95373819Y-94979333D01*
X95373819Y-94979333D02*
X94373819Y-94979333D01*
X95373819Y-95884095D02*
X94850009Y-95884095D01*
X94850009Y-95884095D02*
X94754771Y-95836476D01*
X94754771Y-95836476D02*
X94707152Y-95741238D01*
X94707152Y-95741238D02*
X94707152Y-95550762D01*
X94707152Y-95550762D02*
X94754771Y-95455524D01*
X95326200Y-95884095D02*
X95373819Y-95788857D01*
X95373819Y-95788857D02*
X95373819Y-95550762D01*
X95373819Y-95550762D02*
X95326200Y-95455524D01*
X95326200Y-95455524D02*
X95230961Y-95407905D01*
X95230961Y-95407905D02*
X95135723Y-95407905D01*
X95135723Y-95407905D02*
X95040485Y-95455524D01*
X95040485Y-95455524D02*
X94992866Y-95550762D01*
X94992866Y-95550762D02*
X94992866Y-95788857D01*
X94992866Y-95788857D02*
X94945247Y-95884095D01*
X94707152Y-96360286D02*
X95373819Y-96360286D01*
X94802390Y-96360286D02*
X94754771Y-96407905D01*
X94754771Y-96407905D02*
X94707152Y-96503143D01*
X94707152Y-96503143D02*
X94707152Y-96646000D01*
X94707152Y-96646000D02*
X94754771Y-96741238D01*
X94754771Y-96741238D02*
X94850009Y-96788857D01*
X94850009Y-96788857D02*
X95373819Y-96788857D01*
X95373819Y-97407905D02*
X95326200Y-97312667D01*
X95326200Y-97312667D02*
X95278580Y-97265048D01*
X95278580Y-97265048D02*
X95183342Y-97217429D01*
X95183342Y-97217429D02*
X94897628Y-97217429D01*
X94897628Y-97217429D02*
X94802390Y-97265048D01*
X94802390Y-97265048D02*
X94754771Y-97312667D01*
X94754771Y-97312667D02*
X94707152Y-97407905D01*
X94707152Y-97407905D02*
X94707152Y-97550762D01*
X94707152Y-97550762D02*
X94754771Y-97646000D01*
X94754771Y-97646000D02*
X94802390Y-97693619D01*
X94802390Y-97693619D02*
X94897628Y-97741238D01*
X94897628Y-97741238D02*
X95183342Y-97741238D01*
X95183342Y-97741238D02*
X95278580Y-97693619D01*
X95278580Y-97693619D02*
X95326200Y-97646000D01*
X95326200Y-97646000D02*
X95373819Y-97550762D01*
X95373819Y-97550762D02*
X95373819Y-97407905D01*
X94850009Y-98503143D02*
X94850009Y-98169810D01*
X95373819Y-98169810D02*
X94373819Y-98169810D01*
X94373819Y-98169810D02*
X94373819Y-98646000D01*
X95373819Y-99026953D02*
X94707152Y-99026953D01*
X94897628Y-99026953D02*
X94802390Y-99074572D01*
X94802390Y-99074572D02*
X94754771Y-99122191D01*
X94754771Y-99122191D02*
X94707152Y-99217429D01*
X94707152Y-99217429D02*
X94707152Y-99312667D01*
X95373819Y-99646001D02*
X94707152Y-99646001D01*
X94373819Y-99646001D02*
X94421438Y-99598382D01*
X94421438Y-99598382D02*
X94469057Y-99646001D01*
X94469057Y-99646001D02*
X94421438Y-99693620D01*
X94421438Y-99693620D02*
X94373819Y-99646001D01*
X94373819Y-99646001D02*
X94469057Y-99646001D01*
X95373819Y-100550762D02*
X94373819Y-100550762D01*
X95326200Y-100550762D02*
X95373819Y-100455524D01*
X95373819Y-100455524D02*
X95373819Y-100265048D01*
X95373819Y-100265048D02*
X95326200Y-100169810D01*
X95326200Y-100169810D02*
X95278580Y-100122191D01*
X95278580Y-100122191D02*
X95183342Y-100074572D01*
X95183342Y-100074572D02*
X94897628Y-100074572D01*
X94897628Y-100074572D02*
X94802390Y-100122191D01*
X94802390Y-100122191D02*
X94754771Y-100169810D01*
X94754771Y-100169810D02*
X94707152Y-100265048D01*
X94707152Y-100265048D02*
X94707152Y-100455524D01*
X94707152Y-100455524D02*
X94754771Y-100550762D01*
X94707152Y-101455524D02*
X95516676Y-101455524D01*
X95516676Y-101455524D02*
X95611914Y-101407905D01*
X95611914Y-101407905D02*
X95659533Y-101360286D01*
X95659533Y-101360286D02*
X95707152Y-101265048D01*
X95707152Y-101265048D02*
X95707152Y-101122191D01*
X95707152Y-101122191D02*
X95659533Y-101026953D01*
X95326200Y-101455524D02*
X95373819Y-101360286D01*
X95373819Y-101360286D02*
X95373819Y-101169810D01*
X95373819Y-101169810D02*
X95326200Y-101074572D01*
X95326200Y-101074572D02*
X95278580Y-101026953D01*
X95278580Y-101026953D02*
X95183342Y-100979334D01*
X95183342Y-100979334D02*
X94897628Y-100979334D01*
X94897628Y-100979334D02*
X94802390Y-101026953D01*
X94802390Y-101026953D02*
X94754771Y-101074572D01*
X94754771Y-101074572D02*
X94707152Y-101169810D01*
X94707152Y-101169810D02*
X94707152Y-101360286D01*
X94707152Y-101360286D02*
X94754771Y-101455524D01*
X95326200Y-102312667D02*
X95373819Y-102217429D01*
X95373819Y-102217429D02*
X95373819Y-102026953D01*
X95373819Y-102026953D02*
X95326200Y-101931715D01*
X95326200Y-101931715D02*
X95230961Y-101884096D01*
X95230961Y-101884096D02*
X94850009Y-101884096D01*
X94850009Y-101884096D02*
X94754771Y-101931715D01*
X94754771Y-101931715D02*
X94707152Y-102026953D01*
X94707152Y-102026953D02*
X94707152Y-102217429D01*
X94707152Y-102217429D02*
X94754771Y-102312667D01*
X94754771Y-102312667D02*
X94850009Y-102360286D01*
X94850009Y-102360286D02*
X94945247Y-102360286D01*
X94945247Y-102360286D02*
X95040485Y-101884096D01*
X94373819Y-102646001D02*
X94373819Y-103217429D01*
X95373819Y-102931715D02*
X94373819Y-102931715D01*
X95373819Y-103550763D02*
X94373819Y-103550763D01*
X95373819Y-103979334D02*
X94850009Y-103979334D01*
X94850009Y-103979334D02*
X94754771Y-103931715D01*
X94754771Y-103931715D02*
X94707152Y-103836477D01*
X94707152Y-103836477D02*
X94707152Y-103693620D01*
X94707152Y-103693620D02*
X94754771Y-103598382D01*
X94754771Y-103598382D02*
X94802390Y-103550763D01*
X95326200Y-104836477D02*
X95373819Y-104741239D01*
X95373819Y-104741239D02*
X95373819Y-104550763D01*
X95373819Y-104550763D02*
X95326200Y-104455525D01*
X95326200Y-104455525D02*
X95230961Y-104407906D01*
X95230961Y-104407906D02*
X94850009Y-104407906D01*
X94850009Y-104407906D02*
X94754771Y-104455525D01*
X94754771Y-104455525D02*
X94707152Y-104550763D01*
X94707152Y-104550763D02*
X94707152Y-104741239D01*
X94707152Y-104741239D02*
X94754771Y-104836477D01*
X94754771Y-104836477D02*
X94850009Y-104884096D01*
X94850009Y-104884096D02*
X94945247Y-104884096D01*
X94945247Y-104884096D02*
X95040485Y-104407906D01*
X95373819Y-105312668D02*
X94707152Y-105312668D01*
X94897628Y-105312668D02*
X94802390Y-105360287D01*
X94802390Y-105360287D02*
X94754771Y-105407906D01*
X94754771Y-105407906D02*
X94707152Y-105503144D01*
X94707152Y-105503144D02*
X94707152Y-105598382D01*
X95373819Y-105931716D02*
X94707152Y-105931716D01*
X94802390Y-105931716D02*
X94754771Y-105979335D01*
X94754771Y-105979335D02*
X94707152Y-106074573D01*
X94707152Y-106074573D02*
X94707152Y-106217430D01*
X94707152Y-106217430D02*
X94754771Y-106312668D01*
X94754771Y-106312668D02*
X94850009Y-106360287D01*
X94850009Y-106360287D02*
X95373819Y-106360287D01*
X94850009Y-106360287D02*
X94754771Y-106407906D01*
X94754771Y-106407906D02*
X94707152Y-106503144D01*
X94707152Y-106503144D02*
X94707152Y-106646001D01*
X94707152Y-106646001D02*
X94754771Y-106741240D01*
X94754771Y-106741240D02*
X94850009Y-106788859D01*
X94850009Y-106788859D02*
X95373819Y-106788859D01*
X95373819Y-107407906D02*
X95326200Y-107312668D01*
X95326200Y-107312668D02*
X95278580Y-107265049D01*
X95278580Y-107265049D02*
X95183342Y-107217430D01*
X95183342Y-107217430D02*
X94897628Y-107217430D01*
X94897628Y-107217430D02*
X94802390Y-107265049D01*
X94802390Y-107265049D02*
X94754771Y-107312668D01*
X94754771Y-107312668D02*
X94707152Y-107407906D01*
X94707152Y-107407906D02*
X94707152Y-107550763D01*
X94707152Y-107550763D02*
X94754771Y-107646001D01*
X94754771Y-107646001D02*
X94802390Y-107693620D01*
X94802390Y-107693620D02*
X94897628Y-107741239D01*
X94897628Y-107741239D02*
X95183342Y-107741239D01*
X95183342Y-107741239D02*
X95278580Y-107693620D01*
X95278580Y-107693620D02*
X95326200Y-107646001D01*
X95326200Y-107646001D02*
X95373819Y-107550763D01*
X95373819Y-107550763D02*
X95373819Y-107407906D01*
X95326200Y-108122192D02*
X95373819Y-108217430D01*
X95373819Y-108217430D02*
X95373819Y-108407906D01*
X95373819Y-108407906D02*
X95326200Y-108503144D01*
X95326200Y-108503144D02*
X95230961Y-108550763D01*
X95230961Y-108550763D02*
X95183342Y-108550763D01*
X95183342Y-108550763D02*
X95088104Y-108503144D01*
X95088104Y-108503144D02*
X95040485Y-108407906D01*
X95040485Y-108407906D02*
X95040485Y-108265049D01*
X95040485Y-108265049D02*
X94992866Y-108169811D01*
X94992866Y-108169811D02*
X94897628Y-108122192D01*
X94897628Y-108122192D02*
X94850009Y-108122192D01*
X94850009Y-108122192D02*
X94754771Y-108169811D01*
X94754771Y-108169811D02*
X94707152Y-108265049D01*
X94707152Y-108265049D02*
X94707152Y-108407906D01*
X94707152Y-108407906D02*
X94754771Y-108503144D01*
X94707152Y-108836478D02*
X94707152Y-109217430D01*
X94373819Y-108979335D02*
X95230961Y-108979335D01*
X95230961Y-108979335D02*
X95326200Y-109026954D01*
X95326200Y-109026954D02*
X95373819Y-109122192D01*
X95373819Y-109122192D02*
X95373819Y-109217430D01*
X95373819Y-109979335D02*
X94850009Y-109979335D01*
X94850009Y-109979335D02*
X94754771Y-109931716D01*
X94754771Y-109931716D02*
X94707152Y-109836478D01*
X94707152Y-109836478D02*
X94707152Y-109646002D01*
X94707152Y-109646002D02*
X94754771Y-109550764D01*
X95326200Y-109979335D02*
X95373819Y-109884097D01*
X95373819Y-109884097D02*
X95373819Y-109646002D01*
X95373819Y-109646002D02*
X95326200Y-109550764D01*
X95326200Y-109550764D02*
X95230961Y-109503145D01*
X95230961Y-109503145D02*
X95135723Y-109503145D01*
X95135723Y-109503145D02*
X95040485Y-109550764D01*
X95040485Y-109550764D02*
X94992866Y-109646002D01*
X94992866Y-109646002D02*
X94992866Y-109884097D01*
X94992866Y-109884097D02*
X94945247Y-109979335D01*
X94707152Y-110312669D02*
X94707152Y-110693621D01*
X94373819Y-110455526D02*
X95230961Y-110455526D01*
X95230961Y-110455526D02*
X95326200Y-110503145D01*
X95326200Y-110503145D02*
X95373819Y-110598383D01*
X95373819Y-110598383D02*
X95373819Y-110693621D01*
%TO.C,G\u002A\u002A\u002A*%
G36*
X130751984Y-106975151D02*
G01*
X130780503Y-106979145D01*
X130813458Y-106987338D01*
X130852855Y-107000230D01*
X130900698Y-107018321D01*
X130927768Y-107028663D01*
X130951864Y-107037194D01*
X130970186Y-107042959D01*
X130980118Y-107045077D01*
X130981770Y-107045171D01*
X130995589Y-107049014D01*
X131011664Y-107056745D01*
X131020232Y-107061074D01*
X131041433Y-107069113D01*
X131064090Y-107075288D01*
X131070480Y-107076755D01*
X131094082Y-107083221D01*
X131122289Y-107092003D01*
X131150314Y-107101639D01*
X131168866Y-107108314D01*
X131204774Y-107120878D01*
X131239450Y-107132596D01*
X131270901Y-107142826D01*
X131297135Y-107150927D01*
X131316160Y-107156258D01*
X131325983Y-107158177D01*
X131334021Y-107160120D01*
X131350807Y-107165741D01*
X131373681Y-107174154D01*
X131400128Y-107184467D01*
X131423229Y-107193343D01*
X131453670Y-107204093D01*
X131481089Y-107212804D01*
X131501521Y-107218157D01*
X131517729Y-107222248D01*
X131536926Y-107229051D01*
X131549142Y-107235803D01*
X131552769Y-107238363D01*
X131568702Y-107245287D01*
X131588028Y-107249905D01*
X131616441Y-107257342D01*
X131643120Y-107271666D01*
X131661761Y-107290542D01*
X131667196Y-107301882D01*
X131672995Y-107324140D01*
X131677404Y-107355502D01*
X131680491Y-107396653D01*
X131682320Y-107448282D01*
X131682959Y-107511076D01*
X131681892Y-107578359D01*
X131677331Y-107657302D01*
X131669299Y-107727878D01*
X131657922Y-107789044D01*
X131643325Y-107839757D01*
X131643175Y-107840175D01*
X131633593Y-107867646D01*
X131622824Y-107899544D01*
X131613172Y-107929047D01*
X131610948Y-107935860D01*
X131602982Y-107958272D01*
X131595735Y-107975966D01*
X131590547Y-107985597D01*
X131586102Y-107992757D01*
X131577168Y-108009037D01*
X131564891Y-108032380D01*
X131550257Y-108060908D01*
X131534250Y-108092745D01*
X131497633Y-108163632D01*
X131453129Y-108242784D01*
X131409732Y-108312293D01*
X131402211Y-108323811D01*
X131394373Y-108336197D01*
X131392784Y-108338692D01*
X131384090Y-108351353D01*
X131372995Y-108366661D01*
X131369144Y-108372107D01*
X131357446Y-108390139D01*
X131343297Y-108413321D01*
X131328949Y-108437999D01*
X131322285Y-108449586D01*
X131308175Y-108473021D01*
X131295523Y-108492708D01*
X131286446Y-108505293D01*
X131286441Y-108505299D01*
X131277963Y-108517901D01*
X131265605Y-108539457D01*
X131250320Y-108568043D01*
X131233062Y-108601735D01*
X131214785Y-108638608D01*
X131196442Y-108676738D01*
X131178987Y-108714202D01*
X131163375Y-108749076D01*
X131150558Y-108779435D01*
X131134051Y-108822705D01*
X131112336Y-108889598D01*
X131096080Y-108953615D01*
X131085821Y-109012523D01*
X131082095Y-109064086D01*
X131082159Y-109075537D01*
X131084617Y-109119173D01*
X131090162Y-109161181D01*
X131098247Y-109198164D01*
X131108322Y-109226727D01*
X131109163Y-109228539D01*
X131118588Y-109252981D01*
X131125328Y-109280706D01*
X131130448Y-109316017D01*
X131126282Y-109322498D01*
X131115140Y-109329871D01*
X131111673Y-109330972D01*
X131098162Y-109333013D01*
X131075438Y-109334967D01*
X131043277Y-109336840D01*
X131001453Y-109338637D01*
X130949744Y-109340363D01*
X130887924Y-109342023D01*
X130815769Y-109343623D01*
X130733055Y-109345168D01*
X130639557Y-109346662D01*
X130535051Y-109348112D01*
X130419313Y-109349523D01*
X130292119Y-109350899D01*
X130153243Y-109352246D01*
X130151683Y-109352261D01*
X130080171Y-109352956D01*
X130012180Y-109353684D01*
X129948642Y-109354432D01*
X129890487Y-109355185D01*
X129838649Y-109355929D01*
X129794057Y-109356650D01*
X129757644Y-109357334D01*
X129730342Y-109357966D01*
X129713081Y-109358532D01*
X129706794Y-109359019D01*
X129704873Y-109359308D01*
X129692777Y-109359759D01*
X129670675Y-109360072D01*
X129639817Y-109360245D01*
X129601452Y-109360275D01*
X129556829Y-109360160D01*
X129507197Y-109359899D01*
X129453806Y-109359488D01*
X129428779Y-109359259D01*
X129370355Y-109358642D01*
X129322297Y-109357971D01*
X129283485Y-109357198D01*
X129252802Y-109356272D01*
X129229131Y-109355146D01*
X129211352Y-109353772D01*
X129198349Y-109352099D01*
X129189004Y-109350081D01*
X129182198Y-109347668D01*
X129163622Y-109337476D01*
X129154914Y-109327196D01*
X129158043Y-109317718D01*
X129161166Y-109310946D01*
X129158076Y-109295915D01*
X129157341Y-109293496D01*
X129155363Y-109277369D01*
X129154449Y-109250083D01*
X129154611Y-109212185D01*
X129155858Y-109164224D01*
X129156905Y-109136073D01*
X129159812Y-109077969D01*
X129163338Y-109030941D01*
X129167462Y-108995194D01*
X129172164Y-108970932D01*
X129177420Y-108958359D01*
X129180217Y-108953752D01*
X129177296Y-108947130D01*
X129171781Y-108938657D01*
X129172558Y-108925658D01*
X129179983Y-108914212D01*
X129184686Y-108908975D01*
X129188912Y-108897965D01*
X129187658Y-108893482D01*
X129179983Y-108892554D01*
X129175587Y-108894066D01*
X129171054Y-108894640D01*
X129171071Y-108894476D01*
X129172798Y-108887579D01*
X129176498Y-108874319D01*
X129179036Y-108859754D01*
X129175409Y-108853161D01*
X129174246Y-108852105D01*
X129170964Y-108841824D01*
X129168188Y-108822529D01*
X129166265Y-108796380D01*
X129165491Y-108783170D01*
X129163571Y-108762504D01*
X129161310Y-108748838D01*
X129159049Y-108744623D01*
X129158078Y-108745069D01*
X129152662Y-108741529D01*
X129148749Y-108729136D01*
X129147244Y-108710503D01*
X129144935Y-108696025D01*
X129139028Y-108685691D01*
X129137846Y-108684634D01*
X129133271Y-108679080D01*
X129126777Y-108669130D01*
X129117657Y-108653547D01*
X129105204Y-108631094D01*
X129088709Y-108600534D01*
X129067464Y-108560630D01*
X129061769Y-108548876D01*
X129054745Y-108530430D01*
X129052001Y-108517122D01*
X129050520Y-108508522D01*
X129046140Y-108506398D01*
X129040879Y-108505642D01*
X129032800Y-108497287D01*
X129024927Y-108484117D01*
X129019345Y-108469750D01*
X129018139Y-108457801D01*
X129018014Y-108449511D01*
X129010908Y-108442305D01*
X129005757Y-108438492D01*
X128995805Y-108425912D01*
X128983982Y-108407501D01*
X128971930Y-108386204D01*
X128961289Y-108364968D01*
X128953700Y-108346737D01*
X128950806Y-108334456D01*
X128950541Y-108331645D01*
X128944859Y-108317210D01*
X128934100Y-108302321D01*
X128930945Y-108298661D01*
X128918411Y-108279394D01*
X128909232Y-108258535D01*
X128906963Y-108251778D01*
X128900053Y-108234742D01*
X128893877Y-108223703D01*
X128884520Y-108210026D01*
X128869476Y-108181902D01*
X128852730Y-108144896D01*
X128834788Y-108100613D01*
X128816154Y-108050658D01*
X128797336Y-107996636D01*
X128778838Y-107940153D01*
X128761166Y-107882813D01*
X128744826Y-107826222D01*
X128730323Y-107771985D01*
X128718162Y-107721708D01*
X128708851Y-107676995D01*
X128702893Y-107639452D01*
X128700794Y-107610683D01*
X128700388Y-107599867D01*
X128698232Y-107586171D01*
X128694842Y-107580816D01*
X128692378Y-107580186D01*
X128688762Y-107572745D01*
X128689639Y-107560071D01*
X128694362Y-107546152D01*
X128702282Y-107534976D01*
X128703161Y-107534182D01*
X128722746Y-107519378D01*
X128739097Y-107512469D01*
X128750284Y-107514285D01*
X128753079Y-107515901D01*
X128766279Y-107520060D01*
X128784132Y-107523227D01*
X128803436Y-107525902D01*
X128837940Y-107531720D01*
X128876195Y-107539062D01*
X128914316Y-107547132D01*
X128948418Y-107555134D01*
X128974617Y-107562271D01*
X128983360Y-107564799D01*
X129010456Y-107571588D01*
X129042005Y-107578459D01*
X129072836Y-107584256D01*
X129086368Y-107586622D01*
X129116600Y-107592337D01*
X129144400Y-107598104D01*
X129165102Y-107602978D01*
X129181660Y-107607106D01*
X129207768Y-107613308D01*
X129240444Y-107620890D01*
X129277111Y-107629267D01*
X129315191Y-107637856D01*
X129352107Y-107646071D01*
X129385281Y-107653327D01*
X129412137Y-107659039D01*
X129425655Y-107661876D01*
X129450302Y-107667103D01*
X129479801Y-107673399D01*
X129510356Y-107679955D01*
X129539681Y-107686094D01*
X129579653Y-107694135D01*
X129621277Y-107702233D01*
X129659173Y-107709327D01*
X129691912Y-107715465D01*
X129733365Y-107723587D01*
X129773851Y-107731835D01*
X129807989Y-107739131D01*
X129828411Y-107743529D01*
X129865550Y-107751068D01*
X129902273Y-107758050D01*
X129932995Y-107763391D01*
X129940684Y-107764686D01*
X129973602Y-107771191D01*
X130007071Y-107779026D01*
X130034912Y-107786776D01*
X130037860Y-107787690D01*
X130062758Y-107794463D01*
X130085691Y-107799250D01*
X130102028Y-107801065D01*
X130113164Y-107802007D01*
X130135029Y-107806328D01*
X130157650Y-107812970D01*
X130173037Y-107817973D01*
X130191692Y-107822949D01*
X130203904Y-107824875D01*
X130209768Y-107825498D01*
X130226354Y-107828627D01*
X130249315Y-107833794D01*
X130275542Y-107840328D01*
X130293184Y-107844868D01*
X130336646Y-107855557D01*
X130378146Y-107865109D01*
X130416090Y-107873209D01*
X130448888Y-107879543D01*
X130474947Y-107883796D01*
X130492676Y-107885653D01*
X130500482Y-107884799D01*
X130503082Y-107878310D01*
X130502221Y-107865492D01*
X130500004Y-107860680D01*
X130489989Y-107846659D01*
X130474040Y-107827984D01*
X130454141Y-107806736D01*
X130432275Y-107784996D01*
X130410427Y-107764846D01*
X130390580Y-107748367D01*
X130384869Y-107743660D01*
X130369706Y-107730336D01*
X130347898Y-107710646D01*
X130320646Y-107685708D01*
X130289150Y-107656642D01*
X130254610Y-107624565D01*
X130218226Y-107590598D01*
X130181199Y-107555857D01*
X130144728Y-107521462D01*
X130110013Y-107488531D01*
X130078256Y-107458184D01*
X130050655Y-107431538D01*
X130039049Y-107419870D01*
X130020206Y-107397670D01*
X130010942Y-107380083D01*
X130010827Y-107366050D01*
X130019432Y-107354513D01*
X130021144Y-107353341D01*
X130035735Y-107349376D01*
X130057982Y-107348418D01*
X130084747Y-107350157D01*
X130112893Y-107354283D01*
X130139283Y-107360487D01*
X130160777Y-107368460D01*
X130181111Y-107377375D01*
X130212066Y-107389280D01*
X130248306Y-107402052D01*
X130286522Y-107414572D01*
X130323401Y-107425719D01*
X130355634Y-107434375D01*
X130373839Y-107439365D01*
X130402460Y-107448714D01*
X130427066Y-107458314D01*
X130434101Y-107461231D01*
X130455838Y-107469285D01*
X130484694Y-107479179D01*
X130517745Y-107489927D01*
X130552072Y-107500542D01*
X130607915Y-107517999D01*
X130669819Y-107539114D01*
X130734204Y-107563053D01*
X130805060Y-107591245D01*
X130821792Y-107597921D01*
X130846852Y-107607489D01*
X130867563Y-107614938D01*
X130886340Y-107621774D01*
X130911120Y-107631425D01*
X130936018Y-107641619D01*
X130960671Y-107651887D01*
X131011807Y-107672263D01*
X131056303Y-107688661D01*
X131093348Y-107700829D01*
X131122135Y-107708510D01*
X131141854Y-107711452D01*
X131151696Y-107709400D01*
X131151799Y-107709287D01*
X131151001Y-107701288D01*
X131143222Y-107684359D01*
X131128766Y-107658961D01*
X131107935Y-107625557D01*
X131081034Y-107584609D01*
X131048365Y-107536578D01*
X131010232Y-107481928D01*
X130966939Y-107421120D01*
X130918787Y-107354615D01*
X130890752Y-107316045D01*
X130862666Y-107277112D01*
X130837268Y-107241611D01*
X130815432Y-107210773D01*
X130798030Y-107185830D01*
X130785934Y-107168015D01*
X130780016Y-107158561D01*
X130778734Y-107156145D01*
X130769435Y-107140250D01*
X130761410Y-107128798D01*
X130754180Y-107119217D01*
X130740900Y-107099783D01*
X130723294Y-107072811D01*
X130702321Y-107039744D01*
X130694176Y-107023006D01*
X130690416Y-106997456D01*
X130691959Y-106976621D01*
X130726352Y-106974831D01*
X130751984Y-106975151D01*
G37*
G36*
X133419273Y-103524825D02*
G01*
X133428794Y-103537039D01*
X133434962Y-103560182D01*
X133435417Y-103564095D01*
X133436351Y-103580971D01*
X133437121Y-103607704D01*
X133437712Y-103642867D01*
X133438107Y-103685037D01*
X133438293Y-103732788D01*
X133438252Y-103784693D01*
X133437971Y-103839329D01*
X133437504Y-103898233D01*
X133436985Y-103949869D01*
X133436391Y-103991801D01*
X133435668Y-104025158D01*
X133434767Y-104051069D01*
X133433636Y-104070666D01*
X133432224Y-104085076D01*
X133430479Y-104095431D01*
X133428352Y-104102860D01*
X133425790Y-104108493D01*
X133425581Y-104108858D01*
X133417320Y-104118840D01*
X133401448Y-104134598D01*
X133379608Y-104154623D01*
X133353442Y-104177408D01*
X133324595Y-104201442D01*
X133298668Y-104222712D01*
X133264885Y-104250779D01*
X133232193Y-104278285D01*
X133203321Y-104302931D01*
X133180999Y-104322418D01*
X133162512Y-104338645D01*
X133138008Y-104359580D01*
X133115912Y-104377867D01*
X133099423Y-104390822D01*
X133090998Y-104397238D01*
X133067561Y-104416018D01*
X133039142Y-104439759D01*
X133006817Y-104467478D01*
X132971661Y-104498195D01*
X132934749Y-104530928D01*
X132897158Y-104564697D01*
X132859961Y-104598519D01*
X132824235Y-104631414D01*
X132791055Y-104662401D01*
X132761496Y-104690498D01*
X132736634Y-104714724D01*
X132717544Y-104734099D01*
X132705302Y-104747640D01*
X132700982Y-104754367D01*
X132700733Y-104755387D01*
X132695377Y-104763565D01*
X132685233Y-104775319D01*
X132681785Y-104779062D01*
X132655394Y-104813580D01*
X132630707Y-104855331D01*
X132609525Y-104900532D01*
X132593649Y-104945400D01*
X132584879Y-104986151D01*
X132583852Y-105017687D01*
X132591053Y-105064365D01*
X132607512Y-105112135D01*
X132632363Y-105158656D01*
X132664738Y-105201588D01*
X132682872Y-105221159D01*
X132712568Y-105251299D01*
X132748449Y-105286184D01*
X132788853Y-105324231D01*
X132832119Y-105363857D01*
X132876585Y-105403477D01*
X132891651Y-105417013D01*
X132916814Y-105440472D01*
X132945951Y-105468379D01*
X132978020Y-105499669D01*
X133011979Y-105533280D01*
X133046786Y-105568148D01*
X133081399Y-105603212D01*
X133114777Y-105637408D01*
X133145878Y-105669673D01*
X133173661Y-105698945D01*
X133197083Y-105724160D01*
X133215103Y-105744256D01*
X133226678Y-105758170D01*
X133230769Y-105764839D01*
X133233529Y-105770285D01*
X133242126Y-105779640D01*
X133250041Y-105789580D01*
X133260701Y-105806929D01*
X133271470Y-105827574D01*
X133271718Y-105828094D01*
X133281554Y-105847371D01*
X133290179Y-105862097D01*
X133295752Y-105869120D01*
X133297149Y-105870906D01*
X133302381Y-105882158D01*
X133309923Y-105901749D01*
X133318989Y-105927575D01*
X133328794Y-105957532D01*
X133337139Y-105984320D01*
X133345566Y-106013627D01*
X133351298Y-106038291D01*
X133355040Y-106062111D01*
X133357497Y-106088886D01*
X133359374Y-106122415D01*
X133360178Y-106146063D01*
X133358034Y-106223275D01*
X133348534Y-106294532D01*
X133331898Y-106357969D01*
X133325474Y-106375538D01*
X133306233Y-106419984D01*
X133283073Y-106465185D01*
X133258197Y-106507023D01*
X133233807Y-106541381D01*
X133227558Y-106549340D01*
X133213972Y-106567863D01*
X133204538Y-106582518D01*
X133201005Y-106590678D01*
X133199392Y-106595713D01*
X133190588Y-106602879D01*
X133183981Y-106607006D01*
X133170014Y-106617948D01*
X133151504Y-106633709D01*
X133130668Y-106652453D01*
X133116642Y-106664861D01*
X133088568Y-106687507D01*
X133060026Y-106708278D01*
X133035425Y-106723868D01*
X133030099Y-106726897D01*
X133005448Y-106741660D01*
X132982588Y-106756392D01*
X132965875Y-106768310D01*
X132957775Y-106774122D01*
X132937439Y-106786867D01*
X132912129Y-106801272D01*
X132885514Y-106815196D01*
X132867876Y-106824009D01*
X132845727Y-106835166D01*
X132828887Y-106843756D01*
X132820035Y-106848419D01*
X132805589Y-106855489D01*
X132782346Y-106865368D01*
X132754424Y-106876317D01*
X132725263Y-106886991D01*
X132698301Y-106896045D01*
X132675407Y-106903709D01*
X132654574Y-106911463D01*
X132640616Y-106917529D01*
X132630036Y-106922266D01*
X132610335Y-106930192D01*
X132585006Y-106939865D01*
X132556983Y-106950142D01*
X132533908Y-106958130D01*
X132499673Y-106968255D01*
X132469148Y-106974479D01*
X132437987Y-106977813D01*
X132386312Y-106981307D01*
X132369532Y-106954211D01*
X132363877Y-106944982D01*
X132351910Y-106924930D01*
X132342611Y-106908712D01*
X132341442Y-106906667D01*
X132332789Y-106895049D01*
X132325556Y-106890308D01*
X132316129Y-106894854D01*
X132303459Y-106906870D01*
X132290233Y-106923227D01*
X132278976Y-106940795D01*
X132272214Y-106956443D01*
X132269385Y-106965310D01*
X132261907Y-106985324D01*
X132251732Y-107010430D01*
X132240217Y-107037200D01*
X132232487Y-107054940D01*
X132221399Y-107081447D01*
X132212398Y-107104210D01*
X132206915Y-107119686D01*
X132200851Y-107135978D01*
X132186942Y-107162504D01*
X132169895Y-107186675D01*
X132151944Y-107205490D01*
X132135322Y-107215946D01*
X132115731Y-107219698D01*
X132087406Y-107217283D01*
X132060837Y-107207413D01*
X132040520Y-107191259D01*
X132036834Y-107184871D01*
X132035340Y-107175554D01*
X132036712Y-107162286D01*
X132041300Y-107143661D01*
X132049455Y-107118276D01*
X132061526Y-107084726D01*
X132077865Y-107041607D01*
X132085114Y-107022675D01*
X132096791Y-106991581D01*
X132104636Y-106969327D01*
X132109053Y-106954432D01*
X132110446Y-106945413D01*
X132109217Y-106940790D01*
X132105770Y-106939079D01*
X132103039Y-106938765D01*
X132096763Y-106938955D01*
X132087542Y-106940425D01*
X132073967Y-106943537D01*
X132054631Y-106948654D01*
X132028124Y-106956138D01*
X131993040Y-106966350D01*
X131947970Y-106979652D01*
X131908937Y-106990971D01*
X131879146Y-106998751D01*
X131856830Y-107003053D01*
X131840061Y-107003983D01*
X131826914Y-107001648D01*
X131815464Y-106996152D01*
X131803784Y-106987603D01*
X131802351Y-106986440D01*
X131788672Y-106973406D01*
X131782040Y-106960264D01*
X131779463Y-106941321D01*
X131779251Y-106936888D01*
X131780560Y-106916598D01*
X131785415Y-106903705D01*
X131793961Y-106896542D01*
X131812844Y-106885625D01*
X131838243Y-106873659D01*
X131867398Y-106861830D01*
X131897553Y-106851322D01*
X131925950Y-106843321D01*
X131928561Y-106842694D01*
X131961471Y-106833893D01*
X131983348Y-106825956D01*
X131994951Y-106818541D01*
X131997037Y-106811305D01*
X131996928Y-106810997D01*
X131994592Y-106807619D01*
X131989149Y-106804550D01*
X131978872Y-106801337D01*
X131962033Y-106797525D01*
X131936905Y-106792662D01*
X131901761Y-106786294D01*
X131870062Y-106779745D01*
X131840759Y-106770608D01*
X131819965Y-106759189D01*
X131805815Y-106744404D01*
X131796446Y-106725173D01*
X131795597Y-106722713D01*
X131791175Y-106706517D01*
X131791822Y-106694197D01*
X131797709Y-106679503D01*
X131807405Y-106664305D01*
X131822841Y-106651667D01*
X131845511Y-106642077D01*
X131877748Y-106634216D01*
X131897622Y-106630687D01*
X131911665Y-106629971D01*
X131922635Y-106632801D01*
X131934925Y-106639591D01*
X131938075Y-106641442D01*
X131955275Y-106649096D01*
X131969749Y-106652201D01*
X131974921Y-106652742D01*
X131991417Y-106656271D01*
X132014078Y-106662363D01*
X132039595Y-106670167D01*
X132049561Y-106673293D01*
X132080283Y-106681936D01*
X132110394Y-106689192D01*
X132134596Y-106693745D01*
X132157835Y-106697384D01*
X132189202Y-106702927D01*
X132218243Y-106708630D01*
X132218645Y-106708715D01*
X132248937Y-106713888D01*
X132269279Y-106714393D01*
X132280712Y-106710107D01*
X132284277Y-106700910D01*
X132282751Y-106692216D01*
X132278298Y-106674491D01*
X132271625Y-106650587D01*
X132263443Y-106623159D01*
X132255779Y-106597266D01*
X132248953Y-106572180D01*
X132244329Y-106552795D01*
X132242627Y-106541926D01*
X132243109Y-106537976D01*
X132251015Y-106523208D01*
X132266192Y-106508315D01*
X132285487Y-106495953D01*
X132305744Y-106488781D01*
X132307544Y-106488436D01*
X132332708Y-106482408D01*
X132357624Y-106474592D01*
X132378475Y-106466320D01*
X132391443Y-106458921D01*
X132395226Y-106456599D01*
X132409864Y-106451466D01*
X132428650Y-106447750D01*
X132430952Y-106447414D01*
X132451549Y-106442713D01*
X132477254Y-106434862D01*
X132503058Y-106425369D01*
X132508511Y-106423176D01*
X132538387Y-106411561D01*
X132571895Y-106399025D01*
X132602763Y-106387924D01*
X132622815Y-106380513D01*
X132673183Y-106358426D01*
X132719102Y-106333438D01*
X132756862Y-106307484D01*
X132764939Y-106301351D01*
X132778413Y-106292444D01*
X132786626Y-106288831D01*
X132793714Y-106283959D01*
X132804150Y-106270938D01*
X132816073Y-106252593D01*
X132827782Y-106231747D01*
X132837580Y-106211223D01*
X132843769Y-106193846D01*
X132845283Y-106187953D01*
X132850928Y-106165990D01*
X132855695Y-106147466D01*
X132857746Y-106132131D01*
X132852330Y-106111750D01*
X132848713Y-106103453D01*
X132844506Y-106085150D01*
X132844989Y-106069104D01*
X132850325Y-106059586D01*
X132851625Y-106055228D01*
X132843268Y-106048818D01*
X132841349Y-106047645D01*
X132830525Y-106037593D01*
X132816514Y-106021119D01*
X132801846Y-106001136D01*
X132780256Y-105971037D01*
X132758068Y-105944358D01*
X132733672Y-105920039D01*
X132704334Y-105895365D01*
X132667321Y-105867625D01*
X132646510Y-105852058D01*
X132616667Y-105828313D01*
X132588568Y-105804530D01*
X132566272Y-105784065D01*
X132559019Y-105777028D01*
X132536578Y-105755963D01*
X132514805Y-105736406D01*
X132497547Y-105721840D01*
X132486875Y-105712533D01*
X132467723Y-105692532D01*
X132452902Y-105673134D01*
X132446227Y-105663367D01*
X132435071Y-105649957D01*
X132426662Y-105643319D01*
X132425143Y-105642678D01*
X132413121Y-105634195D01*
X132395799Y-105618583D01*
X132374886Y-105597739D01*
X132352091Y-105573562D01*
X132329125Y-105547950D01*
X132307696Y-105522801D01*
X132289516Y-105500013D01*
X132276293Y-105481483D01*
X132269737Y-105469110D01*
X132265423Y-105460714D01*
X132257798Y-105455717D01*
X132253703Y-105454581D01*
X132241586Y-105445125D01*
X132225857Y-105427443D01*
X132207704Y-105403175D01*
X132188311Y-105373964D01*
X132168864Y-105341449D01*
X132150549Y-105307273D01*
X132144684Y-105295038D01*
X132133222Y-105268476D01*
X132121647Y-105238885D01*
X132110938Y-105209048D01*
X132102076Y-105181754D01*
X132096040Y-105159788D01*
X132093810Y-105145937D01*
X132095511Y-105138940D01*
X132104228Y-105129024D01*
X132105651Y-105128204D01*
X132110450Y-105123642D01*
X132108270Y-105117342D01*
X132098276Y-105106082D01*
X132091609Y-105098197D01*
X132084725Y-105085424D01*
X132079877Y-105067753D01*
X132075846Y-105041683D01*
X132074536Y-105028905D01*
X132073293Y-104994323D01*
X132074415Y-104955284D01*
X132077595Y-104913831D01*
X132082526Y-104872011D01*
X132088902Y-104831868D01*
X132096417Y-104795449D01*
X132104762Y-104764799D01*
X132113633Y-104741962D01*
X132122721Y-104728986D01*
X132129671Y-104721110D01*
X132131504Y-104706649D01*
X132131184Y-104703282D01*
X132134573Y-104687725D01*
X132143694Y-104664838D01*
X132157699Y-104636392D01*
X132175738Y-104604161D01*
X132196965Y-104569916D01*
X132210821Y-104549438D01*
X132228254Y-104525205D01*
X132246506Y-104501042D01*
X132264042Y-104478883D01*
X132279329Y-104460662D01*
X132290835Y-104448311D01*
X132297024Y-104443764D01*
X132297293Y-104443714D01*
X132303904Y-104438808D01*
X132316749Y-104427049D01*
X132334097Y-104410078D01*
X132354216Y-104389537D01*
X132354886Y-104388841D01*
X132380455Y-104363350D01*
X132411373Y-104334100D01*
X132443801Y-104304648D01*
X132473903Y-104278553D01*
X132483275Y-104270606D01*
X132507357Y-104249473D01*
X132528058Y-104230318D01*
X132543425Y-104214983D01*
X132551505Y-104205312D01*
X132555225Y-104200519D01*
X132568615Y-104187681D01*
X132587812Y-104172120D01*
X132609993Y-104156204D01*
X132671707Y-104112985D01*
X132761708Y-104044610D01*
X132857392Y-103966070D01*
X132865198Y-103959628D01*
X132884201Y-103945410D01*
X132900014Y-103935535D01*
X132909829Y-103931836D01*
X132916484Y-103930669D01*
X132918474Y-103926240D01*
X132917765Y-103925053D01*
X132917061Y-103922113D01*
X132919330Y-103918205D01*
X132926167Y-103911729D01*
X132939166Y-103901085D01*
X132959923Y-103884674D01*
X132965582Y-103880129D01*
X132983811Y-103864983D01*
X133007432Y-103844900D01*
X133034011Y-103821959D01*
X133061118Y-103798237D01*
X133082271Y-103779697D01*
X133119103Y-103747858D01*
X133157826Y-103714848D01*
X133197229Y-103681664D01*
X133236100Y-103649300D01*
X133273228Y-103618749D01*
X133307402Y-103591006D01*
X133337409Y-103567065D01*
X133362040Y-103547922D01*
X133380081Y-103534570D01*
X133390323Y-103528004D01*
X133405359Y-103522789D01*
X133419273Y-103524825D01*
G37*
G36*
X130280479Y-103446294D02*
G01*
X130315715Y-103450997D01*
X130347138Y-103458775D01*
X130370772Y-103469003D01*
X130371604Y-103469514D01*
X130398930Y-103489047D01*
X130426269Y-103513099D01*
X130450112Y-103538303D01*
X130466950Y-103561291D01*
X130477464Y-103580201D01*
X130486790Y-103600302D01*
X130493836Y-103621100D01*
X130498903Y-103644463D01*
X130502289Y-103672255D01*
X130504294Y-103706344D01*
X130505217Y-103748596D01*
X130505357Y-103800877D01*
X130505355Y-103801541D01*
X130504924Y-103845489D01*
X130503915Y-103898085D01*
X130502420Y-103956143D01*
X130500529Y-104016479D01*
X130498333Y-104075910D01*
X130495924Y-104131250D01*
X130495693Y-104136157D01*
X130493757Y-104181791D01*
X130491713Y-104237022D01*
X130489623Y-104299800D01*
X130487545Y-104368072D01*
X130485541Y-104439788D01*
X130483670Y-104512896D01*
X130481993Y-104585345D01*
X130480569Y-104655084D01*
X130480077Y-104680600D01*
X130478711Y-104746520D01*
X130477240Y-104811433D01*
X130475705Y-104873784D01*
X130474148Y-104932014D01*
X130472614Y-104984569D01*
X130471145Y-105029890D01*
X130469782Y-105066421D01*
X130468570Y-105092604D01*
X130467699Y-105110301D01*
X130466269Y-105145356D01*
X130464724Y-105189306D01*
X130463116Y-105240352D01*
X130461499Y-105296695D01*
X130459925Y-105356538D01*
X130458449Y-105418081D01*
X130457122Y-105479527D01*
X130456689Y-105500502D01*
X130455179Y-105569240D01*
X130453464Y-105641827D01*
X130451613Y-105715639D01*
X130449694Y-105788050D01*
X130447778Y-105856435D01*
X130445932Y-105918167D01*
X130444226Y-105970622D01*
X130442591Y-106018947D01*
X130441056Y-106069659D01*
X130440236Y-106110597D01*
X130440285Y-106142942D01*
X130441359Y-106167875D01*
X130443611Y-106186577D01*
X130447198Y-106200228D01*
X130452273Y-106210009D01*
X130458992Y-106217100D01*
X130467510Y-106222682D01*
X130477981Y-106227936D01*
X130481489Y-106229594D01*
X130494215Y-106234383D01*
X130503414Y-106233175D01*
X130514916Y-106225601D01*
X130521967Y-106220064D01*
X130533269Y-106208863D01*
X130541669Y-106195602D01*
X130547763Y-106178313D01*
X130552145Y-106155025D01*
X130555412Y-106123771D01*
X130558159Y-106082581D01*
X130558377Y-106078558D01*
X130559449Y-106053525D01*
X130560644Y-106018192D01*
X130561930Y-105973869D01*
X130563276Y-105921868D01*
X130564651Y-105863503D01*
X130566024Y-105800084D01*
X130567364Y-105732924D01*
X130568639Y-105663334D01*
X130569817Y-105592628D01*
X130570212Y-105568310D01*
X130571421Y-105499979D01*
X130572727Y-105434447D01*
X130574097Y-105372852D01*
X130575501Y-105316332D01*
X130576907Y-105266025D01*
X130578285Y-105223070D01*
X130579602Y-105188605D01*
X130580829Y-105163768D01*
X130581933Y-105149696D01*
X130582054Y-105148715D01*
X130584952Y-105118115D01*
X130587023Y-105083250D01*
X130587824Y-105051477D01*
X130588554Y-105026308D01*
X130591397Y-105000683D01*
X130596114Y-104984520D01*
X130600669Y-104972493D01*
X130598274Y-104962608D01*
X130597904Y-104962049D01*
X130596056Y-104951935D01*
X130594664Y-104930241D01*
X130593728Y-104897236D01*
X130593245Y-104853189D01*
X130593216Y-104798368D01*
X130593639Y-104733042D01*
X130594515Y-104657482D01*
X130595841Y-104571955D01*
X130597619Y-104476731D01*
X130599846Y-104372079D01*
X130600716Y-104334508D01*
X130602555Y-104263535D01*
X130604436Y-104203337D01*
X130606411Y-104153147D01*
X130608529Y-104112198D01*
X130610841Y-104079722D01*
X130613398Y-104054953D01*
X130616249Y-104037122D01*
X130619445Y-104025464D01*
X130623037Y-104019211D01*
X130626074Y-104014905D01*
X130629456Y-104002198D01*
X130629681Y-103998286D01*
X130633750Y-103981312D01*
X130641366Y-103963251D01*
X130650486Y-103948339D01*
X130659067Y-103940813D01*
X130667375Y-103933658D01*
X130673179Y-103920078D01*
X130678925Y-103906531D01*
X130689515Y-103895835D01*
X130696087Y-103891895D01*
X130711547Y-103881430D01*
X130728877Y-103868724D01*
X130740091Y-103860562D01*
X130753685Y-103851872D01*
X130761459Y-103848498D01*
X130762565Y-103848395D01*
X130773049Y-103845174D01*
X130787886Y-103838846D01*
X130794729Y-103836004D01*
X130810277Y-103832348D01*
X130831011Y-103831160D01*
X130860217Y-103832133D01*
X130879475Y-103833649D01*
X130937118Y-103844295D01*
X130987002Y-103863783D01*
X131029461Y-103892274D01*
X131064831Y-103929927D01*
X131068496Y-103934805D01*
X131080882Y-103951992D01*
X131091236Y-103968323D01*
X131099694Y-103984959D01*
X131106392Y-104003058D01*
X131111466Y-104023779D01*
X131115054Y-104048281D01*
X131117290Y-104077723D01*
X131118310Y-104113264D01*
X131118253Y-104156062D01*
X131117252Y-104207277D01*
X131115445Y-104268068D01*
X131112967Y-104339593D01*
X131112942Y-104340309D01*
X131111125Y-104393551D01*
X131109144Y-104455829D01*
X131107081Y-104524319D01*
X131105018Y-104596195D01*
X131103034Y-104668634D01*
X131101212Y-104738810D01*
X131099631Y-104803900D01*
X131099004Y-104830103D01*
X131097489Y-104888144D01*
X131095855Y-104944619D01*
X131094161Y-104997804D01*
X131092465Y-105045978D01*
X131090828Y-105087418D01*
X131089307Y-105120400D01*
X131087964Y-105143202D01*
X131087860Y-105144666D01*
X131086412Y-105169204D01*
X131084762Y-105203630D01*
X131082980Y-105246074D01*
X131081137Y-105294670D01*
X131079304Y-105347550D01*
X131077553Y-105402847D01*
X131075954Y-105458693D01*
X131074456Y-105512196D01*
X131072668Y-105572121D01*
X131070790Y-105631563D01*
X131068899Y-105688238D01*
X131067072Y-105739864D01*
X131065384Y-105784155D01*
X131063913Y-105818829D01*
X131061842Y-105865562D01*
X131058900Y-105938350D01*
X131056253Y-106011602D01*
X131053934Y-106083943D01*
X131051974Y-106154003D01*
X131050403Y-106220408D01*
X131049254Y-106281786D01*
X131048558Y-106336763D01*
X131048346Y-106383967D01*
X131048650Y-106422025D01*
X131049500Y-106449565D01*
X131049691Y-106453234D01*
X131051459Y-106484611D01*
X131053239Y-106506599D01*
X131055520Y-106521480D01*
X131058794Y-106531535D01*
X131063551Y-106539047D01*
X131070280Y-106546296D01*
X131072335Y-106548282D01*
X131092114Y-106560579D01*
X131112214Y-106560995D01*
X131132405Y-106549518D01*
X131135141Y-106547089D01*
X131140408Y-106541300D01*
X131144217Y-106533878D01*
X131146983Y-106522772D01*
X131149123Y-106505930D01*
X131151050Y-106481301D01*
X131153179Y-106446835D01*
X131153473Y-106441574D01*
X131154673Y-106415100D01*
X131156027Y-106378659D01*
X131157492Y-106333778D01*
X131159024Y-106281979D01*
X131160579Y-106224788D01*
X131162113Y-106163728D01*
X131163583Y-106100324D01*
X131164946Y-106036101D01*
X131166283Y-105971950D01*
X131168083Y-105893721D01*
X131169910Y-105825450D01*
X131171831Y-105766013D01*
X131173914Y-105714285D01*
X131176226Y-105669142D01*
X131178836Y-105629460D01*
X131181809Y-105594113D01*
X131185215Y-105561978D01*
X131189120Y-105531929D01*
X131193592Y-105502843D01*
X131198698Y-105473595D01*
X131209305Y-105420993D01*
X131222007Y-105372369D01*
X131237094Y-105330770D01*
X131255876Y-105293645D01*
X131279662Y-105258441D01*
X131309762Y-105222604D01*
X131347485Y-105183584D01*
X131370299Y-105161874D01*
X131404394Y-105132778D01*
X131434807Y-105111038D01*
X131460433Y-105097413D01*
X131480165Y-105092660D01*
X131488865Y-105090875D01*
X131505800Y-105083825D01*
X131524501Y-105073258D01*
X131542728Y-105062929D01*
X131570579Y-105049551D01*
X131601753Y-105036264D01*
X131631924Y-105024897D01*
X131656770Y-105017281D01*
X131669028Y-105016731D01*
X131689551Y-105022915D01*
X131708954Y-105035422D01*
X131722862Y-105051955D01*
X131726890Y-105060763D01*
X131729762Y-105071457D01*
X131731626Y-105086016D01*
X131732647Y-105106447D01*
X131732990Y-105134760D01*
X131732822Y-105172965D01*
X131732649Y-105193580D01*
X131732366Y-105227293D01*
X131732005Y-105270266D01*
X131731578Y-105321083D01*
X131731098Y-105378327D01*
X131730576Y-105440580D01*
X131730024Y-105506425D01*
X131729453Y-105574446D01*
X131728877Y-105643225D01*
X131728817Y-105650322D01*
X131727926Y-105741342D01*
X131726897Y-105821236D01*
X131725709Y-105890727D01*
X131724344Y-105950542D01*
X131722784Y-106001405D01*
X131721008Y-106044041D01*
X131718999Y-106079175D01*
X131716737Y-106107533D01*
X131715780Y-106117766D01*
X131712218Y-106158459D01*
X131708851Y-106200541D01*
X131706023Y-106239602D01*
X131704073Y-106271231D01*
X131703091Y-106288551D01*
X131700493Y-106328365D01*
X131697455Y-106369427D01*
X131694447Y-106405166D01*
X131693721Y-106414504D01*
X131692267Y-106440230D01*
X131690733Y-106475370D01*
X131689170Y-106518304D01*
X131687632Y-106567409D01*
X131686171Y-106621064D01*
X131684840Y-106677648D01*
X131683692Y-106735539D01*
X131682925Y-106775409D01*
X131681738Y-106828448D01*
X131680456Y-106877157D01*
X131679122Y-106920274D01*
X131677780Y-106956536D01*
X131676475Y-106984681D01*
X131675248Y-107003446D01*
X131674145Y-107011570D01*
X131673775Y-107012399D01*
X131668658Y-107018647D01*
X131658967Y-107020693D01*
X131641172Y-107019372D01*
X131624571Y-107016180D01*
X131599582Y-107009027D01*
X131575119Y-106999987D01*
X131571449Y-106998487D01*
X131552992Y-106991518D01*
X131525556Y-106981673D01*
X131490922Y-106969570D01*
X131450870Y-106955826D01*
X131407180Y-106941059D01*
X131361633Y-106925887D01*
X131344184Y-106920108D01*
X131300563Y-106905567D01*
X131260331Y-106892026D01*
X131225071Y-106880026D01*
X131196370Y-106870109D01*
X131175811Y-106862816D01*
X131164981Y-106858690D01*
X131151707Y-106853652D01*
X131129669Y-106846170D01*
X131102300Y-106837405D01*
X131072715Y-106828382D01*
X131053585Y-106822671D01*
X131007034Y-106808463D01*
X130969567Y-106796447D01*
X130939393Y-106786013D01*
X130914720Y-106776550D01*
X130893755Y-106767450D01*
X130881033Y-106761841D01*
X130865258Y-106755759D01*
X130856137Y-106753396D01*
X130855266Y-106753319D01*
X130844910Y-106750452D01*
X130827448Y-106744277D01*
X130806134Y-106735930D01*
X130781263Y-106726369D01*
X130748507Y-106714895D01*
X130718746Y-106705498D01*
X130709591Y-106702738D01*
X130680482Y-106693181D01*
X130647976Y-106681682D01*
X130617551Y-106670152D01*
X130599658Y-106663248D01*
X130568516Y-106651646D01*
X130531708Y-106638261D01*
X130492423Y-106624249D01*
X130453853Y-106610768D01*
X130450964Y-106609770D01*
X130411218Y-106595918D01*
X130366796Y-106580256D01*
X130319974Y-106563603D01*
X130273024Y-106546777D01*
X130228221Y-106530595D01*
X130187838Y-106515875D01*
X130154151Y-106503436D01*
X130129433Y-106494094D01*
X130127688Y-106493437D01*
X130105475Y-106487546D01*
X130084595Y-106485860D01*
X130068331Y-106488339D01*
X130059967Y-106494941D01*
X130059452Y-106498875D01*
X130062924Y-106513094D01*
X130071548Y-106531764D01*
X130083647Y-106551568D01*
X130097542Y-106569190D01*
X130098857Y-106570638D01*
X130107881Y-106582102D01*
X130111575Y-106589640D01*
X130114527Y-106596415D01*
X130122779Y-106607173D01*
X130126555Y-106611749D01*
X130137091Y-106625990D01*
X130151557Y-106646569D01*
X130168767Y-106671692D01*
X130187533Y-106699566D01*
X130206669Y-106728397D01*
X130224986Y-106756391D01*
X130241300Y-106781755D01*
X130254422Y-106802695D01*
X130263166Y-106817417D01*
X130266344Y-106824127D01*
X130266363Y-106824482D01*
X130270967Y-106833013D01*
X130281226Y-106843799D01*
X130282079Y-106844550D01*
X130292015Y-106854905D01*
X130296107Y-106862247D01*
X130296390Y-106863682D01*
X130301437Y-106873272D01*
X130310802Y-106886472D01*
X130326724Y-106906867D01*
X130346411Y-106932702D01*
X130363431Y-106956158D01*
X130380733Y-106981336D01*
X130401265Y-107012337D01*
X130416419Y-107034940D01*
X130431615Y-107056570D01*
X130443902Y-107072975D01*
X130451536Y-107081747D01*
X130458655Y-107089847D01*
X130462782Y-107099737D01*
X130463388Y-107102623D01*
X130469386Y-107114217D01*
X130479726Y-107128546D01*
X130486849Y-107137524D01*
X130503249Y-107162380D01*
X130509965Y-107182003D01*
X130507188Y-107197403D01*
X130495111Y-107209591D01*
X130487188Y-107214062D01*
X130476951Y-107216612D01*
X130462749Y-107215998D01*
X130440776Y-107212417D01*
X130437982Y-107211868D01*
X130416023Y-107206387D01*
X130387019Y-107197802D01*
X130354419Y-107187178D01*
X130321669Y-107175582D01*
X130286471Y-107162989D01*
X130244960Y-107148906D01*
X130204115Y-107135713D01*
X130169148Y-107125133D01*
X130158046Y-107121943D01*
X130140574Y-107116890D01*
X130124441Y-107112127D01*
X130108603Y-107107295D01*
X130092015Y-107102032D01*
X130073632Y-107095977D01*
X130052409Y-107088769D01*
X130027301Y-107080048D01*
X129997263Y-107069452D01*
X129961250Y-107056621D01*
X129918219Y-107041194D01*
X129867122Y-107022809D01*
X129806917Y-107001107D01*
X129736557Y-106975726D01*
X129735143Y-106975216D01*
X129704241Y-106964212D01*
X129674613Y-106953895D01*
X129649561Y-106945399D01*
X129632386Y-106939863D01*
X129623622Y-106937107D01*
X129597347Y-106928109D01*
X129572859Y-106918894D01*
X129562687Y-106915059D01*
X129535920Y-106906324D01*
X129510356Y-106899433D01*
X129507356Y-106898704D01*
X129484596Y-106891721D01*
X129457340Y-106881621D01*
X129430845Y-106870328D01*
X129425322Y-106867809D01*
X129400086Y-106856952D01*
X129376629Y-106847771D01*
X129359413Y-106842034D01*
X129344290Y-106837329D01*
X129319150Y-106828598D01*
X129287368Y-106816983D01*
X129251240Y-106803338D01*
X129213061Y-106788518D01*
X129175127Y-106773379D01*
X129164233Y-106769187D01*
X129134496Y-106760944D01*
X129112933Y-106760832D01*
X129099166Y-106768829D01*
X129098295Y-106769923D01*
X129095082Y-106777508D01*
X129097160Y-106787789D01*
X129105139Y-106804399D01*
X129109527Y-106811771D01*
X129123543Y-106829445D01*
X129138047Y-106841739D01*
X129148570Y-106849106D01*
X129167792Y-106864540D01*
X129193328Y-106886317D01*
X129223983Y-106913380D01*
X129258561Y-106944670D01*
X129295866Y-106979130D01*
X129334703Y-107015703D01*
X129355923Y-107035733D01*
X129384138Y-107062141D01*
X129417732Y-107093429D01*
X129455297Y-107128299D01*
X129495424Y-107165450D01*
X129536704Y-107203583D01*
X129577729Y-107241397D01*
X129617090Y-107277592D01*
X129653378Y-107310870D01*
X129685184Y-107339928D01*
X129711099Y-107363469D01*
X129729714Y-107380192D01*
X129742616Y-107391779D01*
X129761082Y-107408828D01*
X129775213Y-107422447D01*
X129782690Y-107430439D01*
X129783800Y-107432027D01*
X129789279Y-107447830D01*
X129789020Y-107465309D01*
X129782988Y-107478430D01*
X129779427Y-107480883D01*
X129762616Y-107484729D01*
X129735386Y-107484999D01*
X129698395Y-107481741D01*
X129652301Y-107475003D01*
X129597765Y-107464833D01*
X129573554Y-107459954D01*
X129519067Y-107449163D01*
X129462774Y-107438241D01*
X129406599Y-107427545D01*
X129352468Y-107417433D01*
X129302304Y-107408263D01*
X129258032Y-107400391D01*
X129221578Y-107394177D01*
X129194865Y-107389976D01*
X129190715Y-107389355D01*
X129162057Y-107384199D01*
X129134244Y-107377957D01*
X129112769Y-107371840D01*
X129110834Y-107371197D01*
X129091568Y-107365763D01*
X129064394Y-107359158D01*
X129032649Y-107352157D01*
X128999669Y-107345537D01*
X128997453Y-107345115D01*
X128962720Y-107338249D01*
X128927911Y-107330964D01*
X128896957Y-107324105D01*
X128873789Y-107318514D01*
X128872474Y-107318175D01*
X128847634Y-107312529D01*
X128824531Y-107308519D01*
X128808012Y-107306994D01*
X128805617Y-107306960D01*
X128790186Y-107305132D01*
X128780858Y-107301374D01*
X128772773Y-107296687D01*
X128756824Y-107289706D01*
X128736510Y-107281976D01*
X128697818Y-107268199D01*
X128698666Y-106217606D01*
X128698806Y-106086848D01*
X128699015Y-105958426D01*
X128699286Y-105836627D01*
X128699618Y-105721891D01*
X128700008Y-105614659D01*
X128700453Y-105515371D01*
X128700950Y-105424467D01*
X128701497Y-105342387D01*
X128702092Y-105269571D01*
X128702730Y-105206460D01*
X128703411Y-105153494D01*
X128704130Y-105111113D01*
X128704886Y-105079756D01*
X128705676Y-105059865D01*
X128705832Y-105057111D01*
X128707544Y-105021629D01*
X128709270Y-104977233D01*
X128710927Y-104926658D01*
X128712430Y-104872638D01*
X128713698Y-104817910D01*
X128714646Y-104765208D01*
X128714951Y-104746141D01*
X128715863Y-104699104D01*
X128716934Y-104655151D01*
X128718106Y-104616048D01*
X128719324Y-104583557D01*
X128720531Y-104559442D01*
X128721671Y-104545469D01*
X128722390Y-104540712D01*
X128734634Y-104504080D01*
X128758645Y-104468528D01*
X128794473Y-104433978D01*
X128804326Y-104426236D01*
X128822402Y-104414745D01*
X128841740Y-104407460D01*
X128867658Y-104402064D01*
X128890685Y-104399057D01*
X128926554Y-104396925D01*
X128963348Y-104397154D01*
X128997892Y-104399597D01*
X129027013Y-104404103D01*
X129047534Y-104410523D01*
X129083545Y-104433351D01*
X129111862Y-104463794D01*
X129130266Y-104500315D01*
X129131995Y-104505695D01*
X129135538Y-104518732D01*
X129138713Y-104534033D01*
X129141614Y-104552670D01*
X129144332Y-104575712D01*
X129146962Y-104604230D01*
X129149595Y-104639293D01*
X129152324Y-104681972D01*
X129155242Y-104733336D01*
X129158443Y-104794457D01*
X129162018Y-104866403D01*
X129164218Y-104911381D01*
X129168984Y-105008116D01*
X129173336Y-105095238D01*
X129177359Y-105174337D01*
X129181140Y-105247009D01*
X129184763Y-105314846D01*
X129188316Y-105379442D01*
X129191883Y-105442389D01*
X129195550Y-105505281D01*
X129199404Y-105569711D01*
X129203529Y-105637273D01*
X129206577Y-105688214D01*
X129210295Y-105753960D01*
X129213920Y-105821667D01*
X129217311Y-105888566D01*
X129220330Y-105951891D01*
X129222836Y-106008873D01*
X129224690Y-106056743D01*
X129226186Y-106097659D01*
X129228312Y-106147529D01*
X129230529Y-106187455D01*
X129232988Y-106218594D01*
X129235840Y-106242105D01*
X129239236Y-106259147D01*
X129243328Y-106270876D01*
X129248267Y-106278453D01*
X129254203Y-106283035D01*
X129268254Y-106288314D01*
X129290658Y-106287593D01*
X129311401Y-106275780D01*
X129329220Y-106253373D01*
X129329461Y-106252000D01*
X129330079Y-106240517D01*
X129330722Y-106218042D01*
X129331381Y-106185224D01*
X129332053Y-106142716D01*
X129332729Y-106091167D01*
X129333405Y-106031227D01*
X129334073Y-105963548D01*
X129334728Y-105888780D01*
X129335363Y-105807573D01*
X129335973Y-105720578D01*
X129336550Y-105628446D01*
X129337090Y-105531827D01*
X129337585Y-105431372D01*
X129338030Y-105327731D01*
X129338520Y-105208657D01*
X129339046Y-105091121D01*
X129339574Y-104984616D01*
X129340109Y-104888688D01*
X129340657Y-104802883D01*
X129341222Y-104726746D01*
X129341811Y-104659823D01*
X129342428Y-104601661D01*
X129343080Y-104551805D01*
X129343770Y-104509802D01*
X129344506Y-104475196D01*
X129345292Y-104447535D01*
X129346133Y-104426363D01*
X129347035Y-104411228D01*
X129348003Y-104401674D01*
X129349043Y-104397248D01*
X129353361Y-104384751D01*
X129349437Y-104375071D01*
X129346172Y-104366333D01*
X129344083Y-104346360D01*
X129344076Y-104317413D01*
X129344247Y-104310864D01*
X129344146Y-104287228D01*
X129342998Y-104268241D01*
X129340988Y-104257522D01*
X129339562Y-104249686D01*
X129346324Y-104235791D01*
X129351628Y-104227605D01*
X129350631Y-104221156D01*
X129348545Y-104214838D01*
X129346935Y-104198529D01*
X129346097Y-104174430D01*
X129346156Y-104144667D01*
X129346601Y-104124709D01*
X129347861Y-104097354D01*
X129349992Y-104078240D01*
X129353307Y-104065027D01*
X129358119Y-104055378D01*
X129364455Y-104042125D01*
X129365229Y-104019664D01*
X129364844Y-104002373D01*
X129373451Y-103982433D01*
X129374392Y-103980979D01*
X129382119Y-103965956D01*
X129385311Y-103953971D01*
X129386581Y-103948098D01*
X129394279Y-103939941D01*
X129399065Y-103936337D01*
X129403208Y-103925246D01*
X129404361Y-103918927D01*
X129409863Y-103913978D01*
X129412514Y-103913274D01*
X129423171Y-103906938D01*
X129436816Y-103896156D01*
X129442919Y-103891052D01*
X129481358Y-103867419D01*
X129525956Y-103851875D01*
X129573923Y-103845144D01*
X129622469Y-103847950D01*
X129654894Y-103854917D01*
X129690396Y-103868779D01*
X129719395Y-103889469D01*
X129744106Y-103918679D01*
X129766747Y-103958102D01*
X129791291Y-104007633D01*
X129792979Y-104152778D01*
X129793090Y-104162114D01*
X129793539Y-104197167D01*
X129794150Y-104242184D01*
X129794901Y-104295717D01*
X129795771Y-104356318D01*
X129796740Y-104422537D01*
X129797785Y-104492924D01*
X129798887Y-104566032D01*
X129800023Y-104640410D01*
X129801173Y-104714610D01*
X129801917Y-104763227D01*
X129802869Y-104827859D01*
X129803876Y-104898402D01*
X129804924Y-104973920D01*
X129806003Y-105053473D01*
X129807102Y-105136125D01*
X129808208Y-105220938D01*
X129809312Y-105306974D01*
X129810400Y-105393295D01*
X129811462Y-105478965D01*
X129812486Y-105563045D01*
X129813461Y-105644597D01*
X129814376Y-105722684D01*
X129815219Y-105796368D01*
X129815978Y-105864711D01*
X129816643Y-105926777D01*
X129817202Y-105981626D01*
X129817643Y-106028322D01*
X129817955Y-106065927D01*
X129818127Y-106093503D01*
X129818148Y-106110113D01*
X129818261Y-106121985D01*
X129820195Y-106137216D01*
X129825956Y-106147875D01*
X129837419Y-106158692D01*
X129841533Y-106162051D01*
X129860589Y-106174563D01*
X129876517Y-106178193D01*
X129892312Y-106173765D01*
X129897589Y-106170857D01*
X129904415Y-106165560D01*
X129910410Y-106158262D01*
X129915650Y-106148200D01*
X129920207Y-106134613D01*
X129924157Y-106116739D01*
X129927574Y-106093817D01*
X129930532Y-106065084D01*
X129933105Y-106029779D01*
X129935368Y-105987139D01*
X129937395Y-105936405D01*
X129939260Y-105876812D01*
X129941037Y-105807601D01*
X129942801Y-105728008D01*
X129944627Y-105637273D01*
X129946705Y-105536392D01*
X129949500Y-105416682D01*
X129952475Y-105305690D01*
X129955610Y-105204053D01*
X129958885Y-105112408D01*
X129962280Y-105031393D01*
X129965775Y-104961646D01*
X129965924Y-104958733D01*
X129966666Y-104940083D01*
X129967625Y-104911013D01*
X129968769Y-104872707D01*
X129970068Y-104826347D01*
X129971488Y-104773119D01*
X129972999Y-104714206D01*
X129974569Y-104650792D01*
X129976165Y-104584061D01*
X129977757Y-104515196D01*
X129979784Y-104431277D01*
X129982176Y-104342800D01*
X129984784Y-104255499D01*
X129987569Y-104170268D01*
X129990493Y-104088002D01*
X129993515Y-104009594D01*
X129996597Y-103935938D01*
X129999700Y-103867928D01*
X130002785Y-103806457D01*
X130005812Y-103752420D01*
X130008742Y-103706710D01*
X130011537Y-103670221D01*
X130014156Y-103643847D01*
X130016562Y-103628482D01*
X130019199Y-103619158D01*
X130027978Y-103595564D01*
X130038549Y-103573191D01*
X130040836Y-103569183D01*
X130054224Y-103549848D01*
X130070691Y-103530537D01*
X130087792Y-103513704D01*
X130103084Y-103501804D01*
X130114122Y-103497291D01*
X130118018Y-103496666D01*
X130127649Y-103489804D01*
X130136328Y-103481288D01*
X130154736Y-103470191D01*
X130178479Y-103459689D01*
X130204060Y-103451292D01*
X130227983Y-103446509D01*
X130245407Y-103445294D01*
X130280479Y-103446294D01*
G37*
%TD*%
M02*
