%TF.GenerationSoftware,KiCad,Pcbnew,7.0.10*%
%TF.CreationDate,2024-02-07T09:44:58+01:00*%
%TF.ProjectId,NanoFridgeThermistat-board,4e616e6f-4672-4696-9467-65546865726d,rev?*%
%TF.SameCoordinates,Original*%
%TF.FileFunction,Profile,NP*%
%FSLAX46Y46*%
G04 Gerber Fmt 4.6, Leading zero omitted, Abs format (unit mm)*
G04 Created by KiCad (PCBNEW 7.0.10) date 2024-02-07 09:44:58*
%MOMM*%
%LPD*%
G01*
G04 APERTURE LIST*
%TA.AperFunction,Profile*%
%ADD10C,0.100000*%
%TD*%
G04 APERTURE END LIST*
D10*
X125222000Y-127254000D02*
G75*
G03*
X124206000Y-127254000I-508000J0D01*
G01*
X124206000Y-115578000D02*
G75*
G03*
X124706000Y-116078000I500000J0D01*
G01*
X155956000Y-94455752D02*
X158480000Y-94456000D01*
X121158000Y-131318040D02*
G75*
G03*
X124205998Y-128286000I0J3048040D01*
G01*
X127222000Y-95504000D02*
X131572000Y-95504000D01*
X80010000Y-128270000D02*
X80010000Y-62230000D01*
X124706000Y-118110000D02*
G75*
G03*
X124206000Y-118610000I0J-500000D01*
G01*
X134620000Y-95504000D02*
X152908000Y-95504000D01*
X83010001Y-131270000D02*
X121158000Y-131318041D01*
X126238000Y-94487749D02*
X131572000Y-94485953D01*
X124706000Y-118110000D02*
X124722000Y-118110000D01*
X124206000Y-128286000D02*
X124206000Y-127254000D01*
X131572000Y-95504000D02*
G75*
G03*
X131572000Y-94488000I0J508000D01*
G01*
X124206000Y-124206000D02*
X124206000Y-118610000D01*
X83010000Y-59230000D02*
G75*
G03*
X80010000Y-62230000I0J-3000000D01*
G01*
X125222000Y-106426000D02*
G75*
G03*
X124206000Y-106426000I-508000J0D01*
G01*
X155956000Y-95536248D02*
X158496508Y-95536248D01*
X125222000Y-103378000D02*
X125222000Y-97504000D01*
X134620000Y-94488000D02*
X152908000Y-94488000D01*
X125222000Y-118610000D02*
G75*
G03*
X124722000Y-118110000I-500000J0D01*
G01*
X124206000Y-103378000D02*
G75*
G03*
X125222000Y-103378000I508000J0D01*
G01*
X152908000Y-95504000D02*
G75*
G03*
X152908000Y-94488000I0J508000D01*
G01*
X160480000Y-92456000D02*
X160480000Y-62230000D01*
X127222000Y-95504000D02*
G75*
G03*
X125222000Y-97504000I0J-2000000D01*
G01*
X160480000Y-62230000D02*
G75*
G03*
X157480000Y-59230000I-3000000J0D01*
G01*
X125222000Y-118610000D02*
X125222000Y-124206000D01*
X126238000Y-94487750D02*
G75*
G03*
X124206002Y-96488000I0J-2032250D01*
G01*
X124722000Y-116078000D02*
G75*
G03*
X125222000Y-115578000I0J500000D01*
G01*
X125222000Y-129286000D02*
G75*
G03*
X127222000Y-131286000I2000000J0D01*
G01*
X158528000Y-131318000D02*
G75*
G03*
X160528000Y-129318000I0J2000000D01*
G01*
X124206000Y-124206000D02*
G75*
G03*
X125222000Y-124206000I508000J0D01*
G01*
X160528000Y-97536000D02*
X160528000Y-129318000D01*
X80010000Y-128270000D02*
G75*
G03*
X83010001Y-131270000I3000000J0D01*
G01*
X158528000Y-131318000D02*
X127222000Y-131286000D01*
X134620000Y-94488000D02*
G75*
G03*
X134620000Y-95504000I0J-508000D01*
G01*
X160527999Y-97536000D02*
G75*
G03*
X158496508Y-95536249I-1999999J0D01*
G01*
X124206000Y-103378000D02*
X124206000Y-96488000D01*
X125222000Y-115578000D02*
X125222000Y-106426000D01*
X83010000Y-59230000D02*
X157480000Y-59230000D01*
X158480000Y-94456000D02*
G75*
G03*
X160480000Y-92456000I0J2000000D01*
G01*
X124706000Y-116078000D02*
X124722000Y-116078000D01*
X155956000Y-94455752D02*
G75*
G03*
X155956000Y-95536248I0J-540248D01*
G01*
X125222000Y-129286000D02*
X125222000Y-127254000D01*
X124206000Y-106426000D02*
X124206000Y-115578000D01*
M02*
