%TF.GenerationSoftware,KiCad,Pcbnew,7.0.10*%
%TF.CreationDate,2024-02-07T09:44:58+01:00*%
%TF.ProjectId,NanoFridgeThermistat-board,4e616e6f-4672-4696-9467-65546865726d,rev?*%
%TF.SameCoordinates,Original*%
%TF.FileFunction,Soldermask,Top*%
%TF.FilePolarity,Negative*%
%FSLAX46Y46*%
G04 Gerber Fmt 4.6, Leading zero omitted, Abs format (unit mm)*
G04 Created by KiCad (PCBNEW 7.0.10) date 2024-02-07 09:44:58*
%MOMM*%
%LPD*%
G01*
G04 APERTURE LIST*
%ADD10C,1.000000*%
%ADD11C,1.600000*%
%ADD12O,1.600000X1.600000*%
%ADD13R,1.800000X1.800000*%
%ADD14C,1.800000*%
%ADD15C,0.500000*%
%ADD16R,1.700000X1.700000*%
%ADD17O,1.700000X1.700000*%
%ADD18C,3.800000*%
%ADD19C,2.200000*%
%ADD20C,2.000000*%
%ADD21R,1.600000X1.600000*%
%ADD22R,2.000000X1.905000*%
%ADD23O,2.000000X1.905000*%
%ADD24R,3.000000X3.000000*%
%ADD25C,3.000000*%
%ADD26C,2.800000*%
%ADD27O,2.800000X2.800000*%
G04 APERTURE END LIST*
D10*
%TO.C,TP3*%
X140208000Y-92456000D03*
%TD*%
D11*
%TO.C,R4*%
X137160000Y-106426000D03*
D12*
X137160000Y-116586000D03*
%TD*%
D11*
%TO.C,C1*%
X154940000Y-105316000D03*
X154940000Y-110316000D03*
%TD*%
D13*
%TO.C,D2*%
X119634000Y-109220000D03*
D14*
X122174000Y-109220000D03*
%TD*%
D11*
%TO.C,C2*%
X118872000Y-68032000D03*
X118872000Y-63032000D03*
%TD*%
D15*
%TO.C,mouse-bite-1mm-slot*%
X131946000Y-94246000D03*
X131946000Y-95746000D03*
X132746000Y-93996000D03*
X132746000Y-95996000D03*
X133446000Y-93996000D03*
X133446000Y-95996000D03*
X134246000Y-94246000D03*
X134246000Y-95746000D03*
%TD*%
D10*
%TO.C,TP12*%
X108712000Y-105410000D03*
%TD*%
D11*
%TO.C,R14*%
X128260000Y-78232000D03*
D12*
X138420000Y-78232000D03*
%TD*%
D11*
%TO.C,R19*%
X153416000Y-67056000D03*
D12*
X143256000Y-67056000D03*
%TD*%
D16*
%TO.C,J1*%
X108478000Y-80722000D03*
D17*
X111018000Y-80722000D03*
%TD*%
D18*
%TO.C,H3*%
X156210000Y-63246000D03*
%TD*%
D11*
%TO.C,R16*%
X151628000Y-91948000D03*
D12*
X151628000Y-81788000D03*
%TD*%
D19*
%TO.C,H7*%
X127254000Y-129286000D03*
%TD*%
D20*
%TO.C,T1*%
X111760000Y-113665000D03*
X91440000Y-113665000D03*
X101600000Y-123825000D03*
%TD*%
D19*
%TO.C,H6*%
X127254000Y-97536000D03*
%TD*%
D11*
%TO.C,C5*%
X131856000Y-81788000D03*
X136856000Y-81788000D03*
%TD*%
D21*
%TO.C,A1*%
X99568000Y-103124000D03*
D12*
X99568000Y-100584000D03*
X99568000Y-98044000D03*
X99568000Y-95504000D03*
X99568000Y-92964000D03*
X99568000Y-90424000D03*
X99568000Y-87884000D03*
X99568000Y-85344000D03*
X99568000Y-82804000D03*
X99568000Y-80264000D03*
X99568000Y-77724000D03*
X99568000Y-75184000D03*
X99568000Y-72644000D03*
X99568000Y-70104000D03*
X99568000Y-67564000D03*
X84328000Y-67564000D03*
X84328000Y-70104000D03*
X84328000Y-72644000D03*
X84328000Y-75184000D03*
X84328000Y-77724000D03*
X84328000Y-80264000D03*
X84328000Y-82804000D03*
X84328000Y-85344000D03*
X84328000Y-87884000D03*
X84328000Y-90424000D03*
X84328000Y-92964000D03*
X84328000Y-95504000D03*
X84328000Y-98044000D03*
X84328000Y-100584000D03*
X84328000Y-103124000D03*
%TD*%
D10*
%TO.C,TP6*%
X140208000Y-89916000D03*
%TD*%
D22*
%TO.C,D1*%
X142565000Y-108966000D03*
D23*
X142565000Y-111506000D03*
X142565000Y-114046000D03*
%TD*%
D11*
%TO.C,R15*%
X130292000Y-73152000D03*
D12*
X140452000Y-73152000D03*
%TD*%
D11*
%TO.C,R9*%
X107696000Y-87884000D03*
D12*
X117856000Y-87884000D03*
%TD*%
D18*
%TO.C,H4*%
X120142000Y-127254000D03*
%TD*%
D19*
%TO.C,H5*%
X158496000Y-97536000D03*
%TD*%
D20*
%TO.C,SW2*%
X128322000Y-63282000D03*
X134822000Y-63282000D03*
X128322000Y-67782000D03*
X134822000Y-67782000D03*
%TD*%
D10*
%TO.C,TP1*%
X104140000Y-107696000D03*
%TD*%
D24*
%TO.C,J2*%
X139700000Y-124206000D03*
D25*
X144780000Y-124206000D03*
%TD*%
D11*
%TO.C,R2*%
X107696000Y-91440000D03*
D12*
X117856000Y-91440000D03*
%TD*%
D16*
%TO.C,J4*%
X116332000Y-95504000D03*
D17*
X113792000Y-95504000D03*
X111252000Y-95504000D03*
X108712000Y-95504000D03*
%TD*%
D16*
%TO.C,J6*%
X120396000Y-115824000D03*
D17*
X120396000Y-118364000D03*
%TD*%
D15*
%TO.C,mouse-bite-1mm-slot*%
X153282000Y-94246000D03*
X153282000Y-95746000D03*
X154082000Y-93996000D03*
X154082000Y-95996000D03*
X154782000Y-93996000D03*
X154782000Y-95996000D03*
X155582000Y-94246000D03*
X155582000Y-95746000D03*
%TD*%
D10*
%TO.C,TP9*%
X116332000Y-101092000D03*
%TD*%
D11*
%TO.C,C3*%
X139192000Y-67992000D03*
X139192000Y-62992000D03*
%TD*%
%TO.C,C4*%
X125446000Y-78232000D03*
X122946000Y-78232000D03*
%TD*%
%TO.C,R11*%
X118364000Y-76708000D03*
D12*
X108204000Y-76708000D03*
%TD*%
D21*
%TO.C,D3*%
X138166000Y-85344000D03*
D12*
X130546000Y-85344000D03*
%TD*%
D15*
%TO.C,mouse-bite-1mm-slot*%
X123964000Y-106052000D03*
X125464000Y-106052000D03*
X123714000Y-105252000D03*
X125714000Y-105252000D03*
X123714000Y-104552000D03*
X125714000Y-104552000D03*
X123964000Y-103752000D03*
X125464000Y-103752000D03*
%TD*%
D10*
%TO.C,TP7*%
X155194000Y-77978000D03*
%TD*%
D11*
%TO.C,C7*%
X143540000Y-89916000D03*
X148540000Y-89916000D03*
%TD*%
D19*
%TO.C,H8*%
X158496000Y-129286000D03*
%TD*%
D11*
%TO.C,C6*%
X122468000Y-74168000D03*
X127468000Y-74168000D03*
%TD*%
D16*
%TO.C,J5*%
X129306000Y-112731000D03*
D17*
X131846000Y-112731000D03*
%TD*%
D10*
%TO.C,TP4*%
X106426000Y-105410000D03*
%TD*%
D11*
%TO.C,R17*%
X155184000Y-91948000D03*
D12*
X155184000Y-81788000D03*
%TD*%
D10*
%TO.C,TP8*%
X106426000Y-107696000D03*
%TD*%
D11*
%TO.C,R3*%
X148590000Y-106426000D03*
D12*
X148590000Y-116586000D03*
%TD*%
D21*
%TO.C,U1*%
X126873000Y-116586000D03*
D12*
X126873000Y-119126000D03*
X126873000Y-121666000D03*
X134493000Y-121666000D03*
X134493000Y-119126000D03*
X134493000Y-116586000D03*
%TD*%
D15*
%TO.C,mouse-bite-1mm-slot*%
X123964000Y-126880000D03*
X125464000Y-126880000D03*
X123714000Y-126080000D03*
X125714000Y-126080000D03*
X123714000Y-125380000D03*
X125714000Y-125380000D03*
X123964000Y-124580000D03*
X125464000Y-124580000D03*
%TD*%
D11*
%TO.C,R12*%
X127752000Y-91440000D03*
D12*
X127752000Y-81280000D03*
%TD*%
D11*
%TO.C,R13*%
X123180000Y-81280000D03*
D12*
X123180000Y-91440000D03*
%TD*%
D11*
%TO.C,R10*%
X118364000Y-72644000D03*
D12*
X108204000Y-72644000D03*
%TD*%
D18*
%TO.C,H1*%
X84074000Y-127254000D03*
%TD*%
D10*
%TO.C,TP10*%
X113792000Y-101092000D03*
%TD*%
D26*
%TO.C,R8*%
X151384000Y-100838000D03*
D27*
X131064000Y-100838000D03*
%TD*%
D11*
%TO.C,R18*%
X143256000Y-71628000D03*
D12*
X153416000Y-71628000D03*
%TD*%
D10*
%TO.C,TP5*%
X104140000Y-105410000D03*
%TD*%
D21*
%TO.C,U2*%
X140716000Y-76464000D03*
D12*
X140716000Y-79004000D03*
X140716000Y-81544000D03*
X140716000Y-84084000D03*
X148336000Y-84084000D03*
X148336000Y-81544000D03*
X148336000Y-79004000D03*
X148336000Y-76464000D03*
%TD*%
D18*
%TO.C,H2*%
X104394000Y-70358000D03*
%TD*%
D10*
%TO.C,TP13*%
X108712000Y-101092000D03*
%TD*%
D20*
%TO.C,SW1*%
X108308000Y-63064000D03*
X114808000Y-63064000D03*
X108308000Y-67564000D03*
X114808000Y-67564000D03*
%TD*%
D24*
%TO.C,J3*%
X152146000Y-125476000D03*
D25*
X152146000Y-120396000D03*
%TD*%
D11*
%TO.C,R1*%
X117856000Y-84328000D03*
D12*
X107696000Y-84328000D03*
%TD*%
D10*
%TO.C,TP11*%
X111252000Y-101092000D03*
%TD*%
M02*
